<svg width="1065" height="1068" viewBox="0 0 1065 1068" fill="none" xmlns="http://www.w3.org/2000/svg">
<path fill-rule="evenodd" clip-rule="evenodd" d="M532.096 446.784L270.776 292.164L266.999 268.532L893.869 169.953L887.072 196.961L532.092 446.781L532.096 446.784Z" fill="white" stroke="#4794D4" stroke-width="1.949"/>
<path fill-rule="evenodd" clip-rule="evenodd" d="M288.082 269.146L250.371 294.204L233.488 317.979L233 357.674L240.553 362.401L239.797 371.854L245.084 374.554L245.84 363.92L253.015 367.634L254.903 329.315L269.253 305.682L307.018 280.698L288.082 269.146Z" fill="white" stroke="#4794D4" stroke-width="1.81954"/>
<path fill-rule="evenodd" clip-rule="evenodd" d="M234.364 318.367C234.631 319.799 254.659 329.109 254.659 329.109Z" fill="white"/>
<path d="M234.364 318.367C234.631 319.799 254.659 329.109 254.659 329.109" stroke="#4794D4" stroke-width="1.81954"/>
<path fill-rule="evenodd" clip-rule="evenodd" d="M251.187 294.728L268.544 305.232Z" fill="white"/>
<path d="M251.187 294.728L268.544 305.232" stroke="#4794D4" stroke-width="1.81954"/>
<path fill-rule="evenodd" clip-rule="evenodd" d="M325.852 291.426L288.141 316.484L271.258 340.259L270.77 379.954L278.323 384.681L277.567 394.134L282.854 396.834L283.61 386.2L290.785 389.914L292.673 351.595L307.023 327.962L344.788 302.978L325.852 291.426Z" fill="white" stroke="#4794D4" stroke-width="1.81954"/>
<path fill-rule="evenodd" clip-rule="evenodd" d="M272.134 340.646C272.401 342.079 292.429 351.389 292.429 351.389Z" fill="white"/>
<path d="M272.134 340.646C272.401 342.079 292.429 351.389 292.429 351.389" stroke="#4794D4" stroke-width="1.81954"/>
<path fill-rule="evenodd" clip-rule="evenodd" d="M288.957 317.008L306.314 327.512Z" fill="white"/>
<path d="M288.957 317.008L306.314 327.512" stroke="#4794D4" stroke-width="1.81954"/>
<path fill-rule="evenodd" clip-rule="evenodd" d="M371.166 315.726L333.455 340.784L316.572 364.56L316.084 404.254L323.637 408.981L322.881 418.434L328.168 421.135L328.924 410.5L336.099 414.214L337.987 375.895L352.337 352.262L390.102 327.278L371.166 315.726Z" fill="white" stroke="#4794D4" stroke-width="1.81954"/>
<path fill-rule="evenodd" clip-rule="evenodd" d="M317.448 364.947C317.715 366.379 337.743 375.689 337.743 375.689Z" fill="white"/>
<path d="M317.448 364.947C317.715 366.379 337.743 375.689 337.743 375.689" stroke="#4794D4" stroke-width="1.81954"/>
<path fill-rule="evenodd" clip-rule="evenodd" d="M334.271 341.308L351.628 351.812Z" fill="white"/>
<path d="M334.271 341.308L351.628 351.812" stroke="#4794D4" stroke-width="1.81954"/>
<path fill-rule="evenodd" clip-rule="evenodd" d="M413.462 342.066L375.751 367.123L358.868 390.899L358.38 430.594L365.933 435.321L365.177 444.774L370.464 447.474L371.22 436.84L378.395 440.554L380.283 402.235L394.633 378.602L432.398 353.618L413.462 342.066Z" fill="white" stroke="#4794D4" stroke-width="1.81954"/>
<path fill-rule="evenodd" clip-rule="evenodd" d="M359.744 391.287C360.011 392.719 380.039 402.029 380.039 402.029Z" fill="white"/>
<path d="M359.744 391.287C360.011 392.719 380.039 402.029 380.039 402.029" stroke="#4794D4" stroke-width="1.81954"/>
<path fill-rule="evenodd" clip-rule="evenodd" d="M376.567 367.648L393.924 378.152Z" fill="white"/>
<path d="M376.567 367.648L393.924 378.152" stroke="#4794D4" stroke-width="1.81954"/>
<path fill-rule="evenodd" clip-rule="evenodd" d="M455.756 370.426L418.046 395.484L401.163 419.259L400.675 458.954L408.227 463.681L407.472 473.134L412.759 475.834L413.514 465.2L420.689 468.914L422.578 430.595L436.928 406.962L474.692 381.978L455.756 370.426Z" fill="white" stroke="#4794D4" stroke-width="1.81954"/>
<path fill-rule="evenodd" clip-rule="evenodd" d="M402.039 419.646C402.306 421.079 422.333 430.389 422.333 430.389Z" fill="white"/>
<path d="M402.039 419.646C402.306 421.079 422.333 430.389 422.333 430.389" stroke="#4794D4" stroke-width="1.81954"/>
<path fill-rule="evenodd" clip-rule="evenodd" d="M418.862 396.008L436.219 406.512Z" fill="white"/>
<path d="M418.862 396.008L436.219 406.512" stroke="#4794D4" stroke-width="1.81954"/>
<path fill-rule="evenodd" clip-rule="evenodd" d="M492.009 392.706L454.298 417.764L437.415 441.539L436.927 481.234L444.48 485.961L443.724 495.414L449.011 498.114L449.767 487.48L456.942 491.194L458.83 452.875L473.18 429.242L510.945 404.258L492.009 392.706Z" fill="white" stroke="#4794D4" stroke-width="1.81954"/>
<path fill-rule="evenodd" clip-rule="evenodd" d="M438.291 441.927C438.558 443.359 458.586 452.669 458.586 452.669Z" fill="white"/>
<path d="M438.291 441.927C438.558 443.359 458.586 452.669 458.586 452.669" stroke="#4794D4" stroke-width="1.81954"/>
<path fill-rule="evenodd" clip-rule="evenodd" d="M455.114 418.288L472.471 428.792Z" fill="white"/>
<path d="M455.114 418.288L472.471 428.792" stroke="#4794D4" stroke-width="1.81954"/>
<path fill-rule="evenodd" clip-rule="evenodd" d="M566.766 389.412L606.309 417.467L624.012 444.087L624.524 488.53L616.604 493.822L617.396 504.406L611.852 507.43L611.06 495.523L603.537 499.681L601.557 456.779L586.509 430.319L546.91 402.346L566.766 389.412Z" fill="white" stroke="#4794D4" stroke-width="1.97152"/>
<path fill-rule="evenodd" clip-rule="evenodd" d="M623.085 444.501C622.805 446.105 601.805 456.529 601.805 456.529Z" fill="white"/>
<path d="M623.085 444.501C622.805 446.105 601.805 456.529 601.805 456.529" stroke="#4794D4" stroke-width="1.97152"/>
<path fill-rule="evenodd" clip-rule="evenodd" d="M605.449 418.055L587.249 429.815Z" fill="white"/>
<path d="M605.449 418.055L587.249 429.815" stroke="#4794D4" stroke-width="1.97152"/>
<path fill-rule="evenodd" clip-rule="evenodd" d="M602.266 366.452L641.809 394.507L659.512 421.127L660.024 465.57L652.104 470.862L652.896 481.446L647.352 484.47L646.56 472.563L639.037 476.721L637.057 433.819L622.009 407.359L582.41 379.386L602.266 366.452Z" fill="white" stroke="#4794D4" stroke-width="1.97152"/>
<path fill-rule="evenodd" clip-rule="evenodd" d="M658.585 421.541C658.305 423.145 637.305 433.569 637.305 433.569Z" fill="white"/>
<path d="M658.585 421.541C658.305 423.145 637.305 433.569 637.305 433.569" stroke="#4794D4" stroke-width="1.97152"/>
<path fill-rule="evenodd" clip-rule="evenodd" d="M640.949 395.094L622.749 406.855Z" fill="white"/>
<path d="M640.949 395.094L622.749 406.855" stroke="#4794D4" stroke-width="1.97152"/>
<path fill-rule="evenodd" clip-rule="evenodd" d="M637.006 343.502L676.549 371.557L694.252 398.177L694.764 442.62L686.844 447.912L687.636 458.496L682.092 461.52L681.3 449.613L673.777 453.771L671.797 410.869L656.749 384.409L617.15 356.436L637.006 343.502Z" fill="white" stroke="#4794D4" stroke-width="1.97152"/>
<path fill-rule="evenodd" clip-rule="evenodd" d="M693.326 398.591C693.045 400.195 672.045 410.619 672.045 410.619Z" fill="white"/>
<path d="M693.326 398.591C693.045 400.195 672.045 410.619 672.045 410.619" stroke="#4794D4" stroke-width="1.97152"/>
<path fill-rule="evenodd" clip-rule="evenodd" d="M675.689 372.145L657.489 383.905Z" fill="white"/>
<path d="M675.689 372.145L657.489 383.905" stroke="#4794D4" stroke-width="1.97152"/>
<path fill-rule="evenodd" clip-rule="evenodd" d="M674.006 319.192L713.549 347.247L731.252 373.867L731.764 418.311L723.844 423.602L724.636 434.186L719.092 437.21L718.3 425.303L710.777 429.461L708.797 386.559L693.749 360.099L654.15 332.127L674.006 319.192Z" fill="white" stroke="#4794D4" stroke-width="1.97152"/>
<path fill-rule="evenodd" clip-rule="evenodd" d="M730.326 374.281C730.045 375.885 709.045 386.309 709.045 386.309Z" fill="white"/>
<path d="M730.326 374.281C730.045 375.885 709.045 386.309 709.045 386.309" stroke="#4794D4" stroke-width="1.97152"/>
<path fill-rule="evenodd" clip-rule="evenodd" d="M712.689 347.835L694.489 359.595Z" fill="white"/>
<path d="M712.689 347.835L694.489 359.595" stroke="#4794D4" stroke-width="1.97152"/>
<path fill-rule="evenodd" clip-rule="evenodd" d="M711.776 294.882L751.319 322.937L769.022 349.557L769.534 394L761.614 399.292L762.406 409.876L756.862 412.9L756.07 400.993L748.547 405.151L746.567 362.249L731.519 335.789L691.92 307.816L711.776 294.882Z" fill="white" stroke="#4794D4" stroke-width="1.97152"/>
<path fill-rule="evenodd" clip-rule="evenodd" d="M768.095 349.971C767.815 351.575 746.815 361.999 746.815 361.999Z" fill="white"/>
<path d="M768.095 349.971C767.815 351.575 746.815 361.999 746.815 361.999" stroke="#4794D4" stroke-width="1.97152"/>
<path fill-rule="evenodd" clip-rule="evenodd" d="M750.459 323.525L732.259 335.285Z" fill="white"/>
<path d="M750.459 323.525L732.259 335.285" stroke="#4794D4" stroke-width="1.97152"/>
<path fill-rule="evenodd" clip-rule="evenodd" d="M746.516 269.902L786.059 297.957L803.762 324.577L804.274 369.02L796.354 374.312L797.146 384.896L791.602 387.92L790.81 376.013L783.287 380.171L781.307 337.269L766.259 310.809L726.66 282.836L746.516 269.902Z" fill="white" stroke="#4794D4" stroke-width="1.97152"/>
<path fill-rule="evenodd" clip-rule="evenodd" d="M802.835 324.991C802.555 326.595 781.555 337.019 781.555 337.019Z" fill="white"/>
<path d="M802.835 324.991C802.555 326.595 781.555 337.019 781.555 337.019" stroke="#4794D4" stroke-width="1.97152"/>
<path fill-rule="evenodd" clip-rule="evenodd" d="M785.199 298.545L766.999 310.305Z" fill="white"/>
<path d="M785.199 298.545L766.999 310.305" stroke="#4794D4" stroke-width="1.97152"/>
<path fill-rule="evenodd" clip-rule="evenodd" d="M775.216 245.602L814.759 273.657L832.462 300.277L832.974 344.72L825.054 350.012L825.846 360.596L820.302 363.62L819.51 351.713L811.987 355.871L810.007 312.969L794.959 286.509L755.36 258.536L775.216 245.602Z" fill="white" stroke="#4794D4" stroke-width="1.97152"/>
<path fill-rule="evenodd" clip-rule="evenodd" d="M831.535 300.691C831.255 302.295 810.255 312.719 810.255 312.719Z" fill="white"/>
<path d="M831.535 300.691C831.255 302.295 810.255 312.719 810.255 312.719" stroke="#4794D4" stroke-width="1.97152"/>
<path fill-rule="evenodd" clip-rule="evenodd" d="M813.899 274.245L795.699 286.005Z" fill="white"/>
<path d="M813.899 274.245L795.699 286.005" stroke="#4794D4" stroke-width="1.97152"/>
<path fill-rule="evenodd" clip-rule="evenodd" d="M812.226 221.292L851.769 249.347L869.472 275.967L869.984 320.41L862.064 325.702L862.856 336.286L857.312 339.31L856.52 327.403L848.997 331.561L847.017 288.659L831.969 262.199L792.37 234.226L812.226 221.292Z" fill="white" stroke="#4794D4" stroke-width="1.97152"/>
<path fill-rule="evenodd" clip-rule="evenodd" d="M868.545 276.381C868.265 277.985 847.265 288.409 847.265 288.409Z" fill="white"/>
<path d="M868.545 276.381C868.265 277.985 847.265 288.409 847.265 288.409" stroke="#4794D4" stroke-width="1.97152"/>
<path fill-rule="evenodd" clip-rule="evenodd" d="M850.909 249.935L832.709 261.695Z" fill="white"/>
<path d="M850.909 249.935L832.709 261.695" stroke="#4794D4" stroke-width="1.97152"/>
<path fill-rule="evenodd" clip-rule="evenodd" d="M849.986 196.982L889.529 225.037L907.232 251.657L907.744 296.101L899.824 301.392L900.616 311.976L895.072 315L894.28 303.093L886.757 307.251L884.777 264.349L869.729 237.889L830.13 209.917L849.986 196.982Z" fill="white" stroke="#4794D4" stroke-width="1.97152"/>
<path fill-rule="evenodd" clip-rule="evenodd" d="M906.305 252.072C906.025 253.675 885.025 264.099 885.025 264.099Z" fill="white"/>
<path d="M906.305 252.072C906.025 253.675 885.025 264.099 885.025 264.099" stroke="#4794D4" stroke-width="1.97152"/>
<path fill-rule="evenodd" clip-rule="evenodd" d="M888.669 225.625L870.469 237.385Z" fill="white"/>
<path d="M888.669 225.625L870.469 237.385" stroke="#4794D4" stroke-width="1.97152"/>
<path fill-rule="evenodd" clip-rule="evenodd" d="M682.2 2.85693L683.521 57.0427L692.396 61.094L692.018 68.5213L698.816 71.56L699.193 63.4574L707.124 67.0021L707.69 16.8679" fill="white"/>
<path d="M682.2 2.85693L683.521 57.0427L692.396 61.094L692.018 68.5213L698.816 71.56L699.193 63.4574L707.124 67.0021L707.69 16.8679" stroke="#4794D4" stroke-width="1.81954"/>
<path fill-rule="evenodd" clip-rule="evenodd" d="M651.8 34.2543L686.166 12.8164L708.258 17.5429L681.445 2.35057L666.528 1L632.351 23.114L651.8 34.2543Z" fill="white" stroke="#4794D4" stroke-width="1.81954"/>
<path fill-rule="evenodd" clip-rule="evenodd" d="M723.74 26.4971L725.061 80.6828L733.936 84.7341L733.558 92.1615L740.356 95.2001L740.733 87.0975L748.664 90.6422L749.23 40.5081" fill="white"/>
<path d="M723.74 26.4971L725.061 80.6828L733.936 84.7341L733.558 92.1615L740.356 95.2001L740.733 87.0975L748.664 90.6422L749.23 40.5081" stroke="#4794D4" stroke-width="1.81954"/>
<path fill-rule="evenodd" clip-rule="evenodd" d="M693.34 57.8942L727.706 36.4563L749.798 41.1828L722.985 25.9905L708.068 24.6399L673.891 46.7539L693.34 57.8942Z" fill="white" stroke="#4794D4" stroke-width="1.81954"/>
<path fill-rule="evenodd" clip-rule="evenodd" d="M766.789 50.127L768.111 104.313L776.986 108.364L776.608 115.791L783.406 118.83L783.783 110.727L791.714 114.272L792.28 64.138" fill="white"/>
<path d="M766.789 50.127L768.111 104.313L776.986 108.364L776.608 115.791L783.406 118.83L783.783 110.727L791.714 114.272L792.28 64.138" stroke="#4794D4" stroke-width="1.81954"/>
<path fill-rule="evenodd" clip-rule="evenodd" d="M736.39 81.5243L770.756 60.0864L792.848 64.8129L766.035 49.6206L751.118 48.27L716.941 70.384L736.39 81.5243Z" fill="white" stroke="#4794D4" stroke-width="1.81954"/>
<path fill-rule="evenodd" clip-rule="evenodd" d="M804.56 71.7271L805.881 125.913L814.756 129.964L814.378 137.391L821.176 140.43L821.553 132.327L829.484 135.872L830.05 85.7381" fill="white"/>
<path d="M804.56 71.7271L805.881 125.913L814.756 129.964L814.378 137.391L821.176 140.43L821.553 132.327L829.484 135.872L830.05 85.7381" stroke="#4794D4" stroke-width="1.81954"/>
<path fill-rule="evenodd" clip-rule="evenodd" d="M774.16 103.124L808.526 81.6865L830.618 86.413L803.805 71.2207L788.888 69.8701L754.711 91.9841L774.16 103.124Z" fill="white" stroke="#4794D4" stroke-width="1.81954"/>
<path fill-rule="evenodd" clip-rule="evenodd" d="M852.139 100.767L853.461 154.953L862.336 159.004L861.958 166.431L868.756 169.47L869.133 161.367L877.064 164.912L877.63 114.778" fill="white"/>
<path d="M852.139 100.767L853.461 154.953L862.336 159.004L861.958 166.431L868.756 169.47L869.133 161.367L877.064 164.912L877.63 114.778" stroke="#4794D4" stroke-width="1.81954"/>
<path fill-rule="evenodd" clip-rule="evenodd" d="M821.74 132.164L856.106 110.726L878.198 115.453L851.385 100.26L836.468 98.9099L802.291 121.024L821.74 132.164Z" fill="white" stroke="#4794D4" stroke-width="1.81954"/>
<path fill-rule="evenodd" clip-rule="evenodd" d="M896.699 126.417L898.021 180.603L906.896 184.654L906.518 192.081L913.316 195.12L913.693 187.017L921.624 190.562L922.19 140.428" fill="white"/>
<path d="M896.699 126.417L898.021 180.603L906.896 184.654L906.518 192.081L913.316 195.12L913.693 187.017L921.624 190.562L922.19 140.428" stroke="#4794D4" stroke-width="1.81954"/>
<path fill-rule="evenodd" clip-rule="evenodd" d="M866.3 157.814L900.666 136.376L922.758 141.103L895.945 125.911L881.028 124.56L846.851 146.674L866.3 157.814Z" fill="white" stroke="#4794D4" stroke-width="1.81954"/>
<path fill-rule="evenodd" clip-rule="evenodd" d="M568.312 6.91699L566.966 61.1028L557.927 65.1541L558.312 72.5814L551.389 75.62L551.005 67.5174L542.928 71.0622L542.351 20.928" fill="white"/>
<path d="M568.312 6.91699L566.966 61.1028L557.927 65.1541L558.312 72.5814L551.389 75.62L551.005 67.5174L542.928 71.0622L542.351 20.928" stroke="#4794D4" stroke-width="1.83625"/>
<path fill-rule="evenodd" clip-rule="evenodd" d="M599.272 38.3144L564.272 16.8765L541.773 21.6029L569.08 6.41063L584.272 5.06006L619.08 27.1741L599.272 38.3144Z" fill="white" stroke="#4794D4" stroke-width="1.83625"/>
<path fill-rule="evenodd" clip-rule="evenodd" d="M537.352 30.5469L536.006 84.7327L526.967 88.784L527.352 96.2113L520.429 99.2499L520.045 91.1473L511.968 94.6921L511.391 44.5579" fill="white"/>
<path d="M537.352 30.5469L536.006 84.7327L526.967 88.784L527.352 96.2113L520.429 99.2499L520.045 91.1473L511.968 94.6921L511.391 44.5579" stroke="#4794D4" stroke-width="1.83625"/>
<path fill-rule="evenodd" clip-rule="evenodd" d="M568.312 61.9443L533.312 40.5064L510.813 45.2328L538.12 30.0405L553.312 28.6899L588.12 50.804L568.312 61.9443Z" fill="white" stroke="#4794D4" stroke-width="1.83625"/>
<path fill-rule="evenodd" clip-rule="evenodd" d="M501.852 56.1968L500.506 110.383L491.467 114.434L491.852 121.861L484.929 124.9L484.545 116.797L476.468 120.342L475.891 70.2078" fill="white"/>
<path d="M501.852 56.1968L500.506 110.383L491.467 114.434L491.852 121.861L484.929 124.9L484.545 116.797L476.468 120.342L475.891 70.2078" stroke="#4794D4" stroke-width="1.83625"/>
<path fill-rule="evenodd" clip-rule="evenodd" d="M532.812 87.5942L497.812 66.1563L475.313 70.8827L502.62 55.6904L517.812 54.3398L552.62 76.4539L532.812 87.5942Z" fill="white" stroke="#4794D4" stroke-width="1.83625"/>
<path fill-rule="evenodd" clip-rule="evenodd" d="M464.092 82.5369L462.746 136.723L453.707 140.774L454.092 148.201L447.169 151.24L446.785 143.137L438.708 146.682L438.131 96.5479" fill="white"/>
<path d="M464.092 82.5369L462.746 136.723L453.707 140.774L454.092 148.201L447.169 151.24L446.785 143.137L438.708 146.682L438.131 96.5479" stroke="#4794D4" stroke-width="1.83625"/>
<path fill-rule="evenodd" clip-rule="evenodd" d="M495.052 113.934L460.052 92.4963L437.553 97.2228L464.86 82.0305L480.052 80.6799L514.86 102.794L495.052 113.934Z" fill="white" stroke="#4794D4" stroke-width="1.83625"/>
<path fill-rule="evenodd" clip-rule="evenodd" d="M424.062 108.867L422.716 163.053L413.677 167.104L414.062 174.531L407.139 177.57L406.755 169.467L398.678 173.012L398.101 122.878" fill="white"/>
<path d="M424.062 108.867L422.716 163.053L413.677 167.104L414.062 174.531L407.139 177.57L406.755 169.467L398.678 173.012L398.101 122.878" stroke="#4794D4" stroke-width="1.83625"/>
<path fill-rule="evenodd" clip-rule="evenodd" d="M455.022 140.264L420.022 118.826L397.523 123.553L424.83 108.361L440.022 107.01L474.83 129.124L455.022 140.264Z" fill="white" stroke="#4794D4" stroke-width="1.83625"/>
<path fill-rule="evenodd" clip-rule="evenodd" d="M385.542 137.897L384.196 192.083L375.157 196.134L375.542 203.561L368.619 206.6L368.235 198.497L360.158 202.042L359.581 151.908" fill="white"/>
<path d="M385.542 137.897L384.196 192.083L375.157 196.134L375.542 203.561L368.619 206.6L368.235 198.497L360.158 202.042L359.581 151.908" stroke="#4794D4" stroke-width="1.83625"/>
<path fill-rule="evenodd" clip-rule="evenodd" d="M416.502 169.294L381.502 147.856L359.003 152.583L386.31 137.391L401.502 136.04L436.31 158.154L416.502 169.294Z" fill="white" stroke="#4794D4" stroke-width="1.83625"/>
<path fill-rule="evenodd" clip-rule="evenodd" d="M344.752 167.607L343.406 221.793L334.367 225.844L334.752 233.271L327.829 236.31L327.445 228.207L319.368 231.752L318.791 181.618" fill="white"/>
<path d="M344.752 167.607L343.406 221.793L334.367 225.844L334.752 233.271L327.829 236.31L327.445 228.207L319.368 231.752L318.791 181.618" stroke="#4794D4" stroke-width="1.83625"/>
<path fill-rule="evenodd" clip-rule="evenodd" d="M375.712 199.004L340.712 177.566L318.213 182.293L345.52 167.101L360.712 165.75L395.52 187.864L375.712 199.004Z" fill="white" stroke="#4794D4" stroke-width="1.83625"/>
<path fill-rule="evenodd" clip-rule="evenodd" d="M306.992 192.587L305.646 246.773L296.607 250.824L296.992 258.251L290.069 261.29L289.685 253.187L281.608 256.732L281.031 206.598" fill="white"/>
<path d="M306.992 192.587L305.646 246.773L296.607 250.824L296.992 258.251L290.069 261.29L289.685 253.187L281.608 256.732L281.031 206.598" stroke="#4794D4" stroke-width="1.83625"/>
<path fill-rule="evenodd" clip-rule="evenodd" d="M337.952 223.984L302.952 202.546L280.453 207.273L307.76 192.081L322.952 190.73L357.76 212.844L337.952 223.984Z" fill="white" stroke="#4794D4" stroke-width="1.83625"/>
<path fill-rule="evenodd" clip-rule="evenodd" d="M266.212 221.627L264.866 275.813L255.827 279.864L256.212 287.291L249.289 290.33L248.905 282.227L240.828 285.772L240.251 235.638" fill="white"/>
<path d="M266.212 221.627L264.866 275.813L255.827 279.864L256.212 287.291L249.289 290.33L248.905 282.227L240.828 285.772L240.251 235.638" stroke="#4794D4" stroke-width="1.83625"/>
<path fill-rule="evenodd" clip-rule="evenodd" d="M297.172 253.024L262.172 231.586L239.673 236.313L266.98 221.121L282.172 219.77L316.98 241.884L297.172 253.024Z" fill="white" stroke="#4794D4" stroke-width="1.83625"/>
<path fill-rule="evenodd" clip-rule="evenodd" d="M884.726 172.002L924.269 200.057L941.972 226.677L942.484 271.12L934.564 276.412L935.356 286.996L929.812 290.02L929.02 278.113L921.497 282.271L919.517 239.369L904.469 212.909L864.87 184.936L884.726 172.002Z" fill="white" stroke="#4794D4" stroke-width="1.97152"/>
<path fill-rule="evenodd" clip-rule="evenodd" d="M941.045 227.091C940.765 228.695 919.765 239.119 919.765 239.119Z" fill="white"/>
<path d="M941.045 227.091C940.765 228.695 919.765 239.119 919.765 239.119" stroke="#4794D4" stroke-width="1.97152"/>
<path fill-rule="evenodd" clip-rule="evenodd" d="M923.409 200.645L905.209 212.405Z" fill="white"/>
<path d="M923.409 200.645L905.209 212.405" stroke="#4794D4" stroke-width="1.97152"/>
<path fill-rule="evenodd" clip-rule="evenodd" d="M268.081 268.96L528.337 429.841L895.763 170.13L630.407 13.845L268.081 268.963V268.96Z" fill="white" stroke="#4794D4" stroke-width="2.18163"/>
<path fill-rule="evenodd" clip-rule="evenodd" d="M297.792 252.409L515.692 386.095L823.307 170.288L601.135 40.4216L297.792 252.409Z" fill="white" stroke="#4794D4" stroke-width="1.81954"/>
<path fill-rule="evenodd" clip-rule="evenodd" d="M516.231 385.362C516.231 388.063 527.56 429.925 527.56 429.925Z" fill="white"/>
<path d="M516.231 385.362C516.231 388.063 527.56 429.925 527.56 429.925" stroke="#4794D4" stroke-width="1.81954"/>
<path fill-rule="evenodd" clip-rule="evenodd" d="M822.884 170.639L895.391 169.964Z" fill="white"/>
<path d="M822.884 170.639L895.391 169.964" stroke="#4794D4" stroke-width="1.81954"/>
<path fill-rule="evenodd" clip-rule="evenodd" d="M600.077 40.9895L631.799 13.981Z" fill="white"/>
<path d="M600.077 40.9895L631.799 13.981" stroke="#4794D4" stroke-width="1.81954"/>
<path fill-rule="evenodd" clip-rule="evenodd" d="M297.195 252.341L265.474 269.221Z" fill="white"/>
<path d="M297.195 252.341L265.474 269.221" stroke="#4794D4" stroke-width="1.81954"/>
<path fill-rule="evenodd" clip-rule="evenodd" d="M532.096 447.454L529.074 431.249Z" fill="white"/>
<path d="M532.096 447.454L529.074 431.249" stroke="#4794D4" stroke-width="1.949"/>
<path d="M730.333 447C730.333 452.891 735.109 457.667 741 457.667C746.891 457.667 751.667 452.891 751.667 447C751.667 441.109 746.891 436.333 741 436.333C735.109 436.333 730.333 441.109 730.333 447ZM936 559L937.219 560.585L939.595 558.758L936.996 557.266L936 559ZM821.333 639C821.333 644.891 826.109 649.667 832 649.667C837.891 649.667 842.667 644.891 842.667 639C842.667 633.109 837.891 628.333 832 628.333C826.109 628.333 821.333 633.109 821.333 639ZM740.004 448.734L935.004 560.734L936.996 557.266L741.996 445.266L740.004 448.734ZM934.781 557.415L830.781 637.415L833.219 640.585L937.219 560.585L934.781 557.415Z" fill="#4794D4"/>
<path d="M765.333 423.5C765.333 429.391 770.109 434.167 776 434.167C781.891 434.167 786.667 429.391 786.667 423.5C786.667 417.609 781.891 412.833 776 412.833C770.109 412.833 765.333 417.609 765.333 423.5ZM996.5 550.5L997.754 552.058L1000.03 550.225L997.498 548.767L996.5 550.5ZM852.333 658C852.333 663.891 857.109 668.667 863 668.667C868.891 668.667 873.667 663.891 873.667 658C873.667 652.109 868.891 647.333 863 647.333C857.109 647.333 852.333 652.109 852.333 658ZM775.002 425.233L995.502 552.233L997.498 548.767L776.998 421.767L775.002 425.233ZM995.246 548.942L861.746 656.442L864.254 659.558L997.754 552.058L995.246 548.942Z" fill="#4794D4"/>
<path d="M796.833 403C796.833 408.891 801.609 413.667 807.5 413.667C813.391 413.667 818.167 408.891 818.167 403C818.167 397.109 813.391 392.333 807.5 392.333C801.609 392.333 796.833 397.109 796.833 403ZM1060.5 550L1061.73 551.58L1064.07 549.762L1061.5 548.271L1060.5 550ZM882.833 679.5C882.833 685.391 887.609 690.167 893.5 690.167C899.391 690.167 904.167 685.391 904.167 679.5C904.167 673.609 899.391 668.833 893.5 668.833C887.609 668.833 882.833 673.609 882.833 679.5ZM806.495 404.729L1059.5 551.729L1061.5 548.271L808.505 401.271L806.495 404.729ZM1059.27 548.42L892.274 677.92L894.726 681.08L1061.73 551.58L1059.27 548.42Z" fill="#4794D4"/>
<ellipse cx="625" cy="515" rx="13" ry="8" fill="#4794D4"/>
<ellipse cx="661" cy="492" rx="13" ry="8" fill="#4794D4"/>
<ellipse cx="694" cy="470" rx="13" ry="8" fill="#4794D4"/>
<ellipse cx="836" cy="374" rx="13" ry="8" fill="#4794D4"/>
<ellipse cx="871" cy="352" rx="13" ry="8" fill="#4794D4"/>
<ellipse cx="909" cy="325" rx="13" ry="8" fill="#4794D4"/>
<ellipse cx="943" cy="300" rx="13" ry="8" transform="rotate(-1.0786 943 300)" fill="#4794D4"/>
<path d="M222.333 390.5C222.333 396.391 227.109 401.167 233 401.167C238.891 401.167 243.667 396.391 243.667 390.5C243.667 384.609 238.891 379.833 233 379.833C227.109 379.833 222.333 384.609 222.333 390.5ZM52 514L50.8728 512.348L50.418 512.658L50.1861 513.158L52 514ZM3 619.5L1.1861 618.658L0.491546 620.153L1.82706 621.12L3 619.5ZM233.333 794C233.333 799.891 238.109 804.667 244 804.667C249.891 804.667 254.667 799.891 254.667 794C254.667 788.109 249.891 783.333 244 783.333C238.109 783.333 233.333 788.109 233.333 794ZM231.873 388.848L50.8728 512.348L53.1272 515.652L234.127 392.152L231.873 388.848ZM50.1861 513.158L1.1861 618.658L4.8139 620.342L53.8139 514.842L50.1861 513.158ZM1.82706 621.12L242.827 795.62L245.173 792.38L4.17294 617.88L1.82706 621.12Z" fill="#4794D4"/>
<path d="M252.333 408.5C252.333 414.391 257.109 419.167 263 419.167C268.891 419.167 273.667 414.391 273.667 408.5C273.667 402.609 268.891 397.833 263 397.833C257.109 397.833 252.333 402.609 252.333 408.5ZM97.5 526L96.3422 524.369L95.8985 524.684L95.6756 525.18L97.5 526ZM55.5 619.5L53.6756 618.68L53.0038 620.176L54.3386 621.128L55.5 619.5ZM262.833 775C262.833 780.891 267.609 785.667 273.5 785.667C279.391 785.667 284.167 780.891 284.167 775C284.167 769.109 279.391 764.333 273.5 764.333C267.609 764.333 262.833 769.109 262.833 775ZM261.842 406.869L96.3422 524.369L98.6578 527.631L264.158 410.131L261.842 406.869ZM95.6756 525.18L53.6756 618.68L57.3244 620.32L99.3244 526.82L95.6756 525.18ZM54.3386 621.128L272.339 776.628L274.661 773.372L56.6614 617.872L54.3386 621.128Z" fill="#4794D4"/>
<path d="M285.833 424C285.833 429.891 290.609 434.667 296.5 434.667C302.391 434.667 307.167 429.891 307.167 424C307.167 418.109 302.391 413.333 296.5 413.333C290.609 413.333 285.833 418.109 285.833 424ZM146.5 533L145.324 531.382L144.895 531.694L144.677 532.178L146.5 533ZM114.5 604L112.677 603.178L111.998 604.685L113.349 605.636L114.5 604ZM306.333 746.5C306.333 752.391 311.109 757.167 317 757.167C322.891 757.167 327.667 752.391 327.667 746.5C327.667 740.609 322.891 735.833 317 735.833C311.109 735.833 306.333 740.609 306.333 746.5ZM295.324 422.382L145.324 531.382L147.676 534.618L297.676 425.618L295.324 422.382ZM144.677 532.178L112.677 603.178L116.323 604.822L148.323 533.822L144.677 532.178ZM113.349 605.636L315.849 748.136L318.151 744.864L115.651 602.364L113.349 605.636Z" fill="#4794D4"/>
<path fill-rule="evenodd" clip-rule="evenodd" d="M531.096 1004.78L269.776 850.164L265.999 826.532L892.869 727.953L886.072 754.961L531.092 1004.78L531.096 1004.78Z" fill="white" stroke="#4794D4" stroke-width="1.949"/>
<path fill-rule="evenodd" clip-rule="evenodd" d="M287.082 827.146L249.371 852.204L232.488 875.979L232 915.674L239.553 920.401L238.797 929.854L244.084 932.554L244.84 921.92L252.015 925.634L253.903 887.315L268.253 863.682L306.018 838.698L287.082 827.146Z" fill="white" stroke="#4794D4" stroke-width="1.81954"/>
<path fill-rule="evenodd" clip-rule="evenodd" d="M233.364 876.367C233.631 877.799 253.659 887.109 253.659 887.109Z" fill="white"/>
<path d="M233.364 876.367C233.631 877.799 253.659 887.109 253.659 887.109" stroke="#4794D4" stroke-width="1.81954"/>
<path fill-rule="evenodd" clip-rule="evenodd" d="M250.187 852.728L267.544 863.232Z" fill="white"/>
<path d="M250.187 852.728L267.544 863.232" stroke="#4794D4" stroke-width="1.81954"/>
<path fill-rule="evenodd" clip-rule="evenodd" d="M324.852 849.426L287.141 874.484L270.258 898.259L269.77 937.954L277.323 942.681L276.567 952.134L281.854 954.834L282.61 944.2L289.785 947.914L291.673 909.595L306.023 885.962L343.788 860.978L324.852 849.426Z" fill="white" stroke="#4794D4" stroke-width="1.81954"/>
<path fill-rule="evenodd" clip-rule="evenodd" d="M271.134 898.646C271.401 900.079 291.429 909.389 291.429 909.389Z" fill="white"/>
<path d="M271.134 898.646C271.401 900.079 291.429 909.389 291.429 909.389" stroke="#4794D4" stroke-width="1.81954"/>
<path fill-rule="evenodd" clip-rule="evenodd" d="M287.957 875.008L305.314 885.512Z" fill="white"/>
<path d="M287.957 875.008L305.314 885.512" stroke="#4794D4" stroke-width="1.81954"/>
<path fill-rule="evenodd" clip-rule="evenodd" d="M370.166 873.726L332.455 898.784L315.572 922.56L315.084 962.254L322.637 966.981L321.881 976.434L327.168 979.135L327.924 968.5L335.099 972.214L336.987 933.895L351.337 910.262L389.102 885.278L370.166 873.726Z" fill="white" stroke="#4794D4" stroke-width="1.81954"/>
<path fill-rule="evenodd" clip-rule="evenodd" d="M316.448 922.947C316.715 924.379 336.743 933.689 336.743 933.689Z" fill="white"/>
<path d="M316.448 922.947C316.715 924.379 336.743 933.689 336.743 933.689" stroke="#4794D4" stroke-width="1.81954"/>
<path fill-rule="evenodd" clip-rule="evenodd" d="M333.271 899.308L350.628 909.812Z" fill="white"/>
<path d="M333.271 899.308L350.628 909.812" stroke="#4794D4" stroke-width="1.81954"/>
<path fill-rule="evenodd" clip-rule="evenodd" d="M412.462 900.066L374.751 925.123L357.868 948.899L357.38 988.594L364.933 993.321L364.177 1002.77L369.464 1005.47L370.22 994.84L377.395 998.554L379.283 960.235L393.633 936.602L431.398 911.618L412.462 900.066Z" fill="white" stroke="#4794D4" stroke-width="1.81954"/>
<path fill-rule="evenodd" clip-rule="evenodd" d="M358.744 949.287C359.011 950.719 379.039 960.029 379.039 960.029Z" fill="white"/>
<path d="M358.744 949.287C359.011 950.719 379.039 960.029 379.039 960.029" stroke="#4794D4" stroke-width="1.81954"/>
<path fill-rule="evenodd" clip-rule="evenodd" d="M375.567 925.648L392.924 936.152Z" fill="white"/>
<path d="M375.567 925.648L392.924 936.152" stroke="#4794D4" stroke-width="1.81954"/>
<path fill-rule="evenodd" clip-rule="evenodd" d="M454.756 928.426L417.046 953.484L400.163 977.259L399.675 1016.95L407.227 1021.68L406.472 1031.13L411.759 1033.83L412.514 1023.2L419.689 1026.91L421.578 988.595L435.928 964.962L473.692 939.978L454.756 928.426Z" fill="white" stroke="#4794D4" stroke-width="1.81954"/>
<path fill-rule="evenodd" clip-rule="evenodd" d="M401.039 977.646C401.306 979.079 421.333 988.389 421.333 988.389Z" fill="white"/>
<path d="M401.039 977.646C401.306 979.079 421.333 988.389 421.333 988.389" stroke="#4794D4" stroke-width="1.81954"/>
<path fill-rule="evenodd" clip-rule="evenodd" d="M417.862 954.008L435.219 964.512Z" fill="white"/>
<path d="M417.862 954.008L435.219 964.512" stroke="#4794D4" stroke-width="1.81954"/>
<path fill-rule="evenodd" clip-rule="evenodd" d="M491.009 950.706L453.298 975.764L436.415 999.539L435.927 1039.23L443.48 1043.96L442.724 1053.41L448.011 1056.11L448.767 1045.48L455.942 1049.19L457.83 1010.88L472.18 987.242L509.945 962.258L491.009 950.706Z" fill="white" stroke="#4794D4" stroke-width="1.81954"/>
<path fill-rule="evenodd" clip-rule="evenodd" d="M437.291 999.927C437.558 1001.36 457.586 1010.67 457.586 1010.67Z" fill="white"/>
<path d="M437.291 999.927C437.558 1001.36 457.586 1010.67 457.586 1010.67" stroke="#4794D4" stroke-width="1.81954"/>
<path fill-rule="evenodd" clip-rule="evenodd" d="M454.114 976.288L471.471 986.792Z" fill="white"/>
<path d="M454.114 976.288L471.471 986.792" stroke="#4794D4" stroke-width="1.81954"/>
<path fill-rule="evenodd" clip-rule="evenodd" d="M565.766 947.412L605.309 975.467L623.012 1002.09L623.524 1046.53L615.604 1051.82L616.396 1062.41L610.852 1065.43L610.06 1053.52L602.537 1057.68L600.557 1014.78L585.509 988.319L545.91 960.346L565.766 947.412Z" fill="white" stroke="#4794D4" stroke-width="1.97152"/>
<path fill-rule="evenodd" clip-rule="evenodd" d="M622.085 1002.5C621.805 1004.11 600.805 1014.53 600.805 1014.53Z" fill="white"/>
<path d="M622.085 1002.5C621.805 1004.11 600.805 1014.53 600.805 1014.53" stroke="#4794D4" stroke-width="1.97152"/>
<path fill-rule="evenodd" clip-rule="evenodd" d="M604.449 976.055L586.249 987.815Z" fill="white"/>
<path d="M604.449 976.055L586.249 987.815" stroke="#4794D4" stroke-width="1.97152"/>
<path fill-rule="evenodd" clip-rule="evenodd" d="M601.266 924.452L640.809 952.507L658.512 979.127L659.024 1023.57L651.104 1028.86L651.896 1039.45L646.352 1042.47L645.56 1030.56L638.037 1034.72L636.057 991.819L621.009 965.359L581.41 937.386L601.266 924.452Z" fill="white" stroke="#4794D4" stroke-width="1.97152"/>
<path fill-rule="evenodd" clip-rule="evenodd" d="M657.585 979.541C657.305 981.145 636.305 991.569 636.305 991.569Z" fill="white"/>
<path d="M657.585 979.541C657.305 981.145 636.305 991.569 636.305 991.569" stroke="#4794D4" stroke-width="1.97152"/>
<path fill-rule="evenodd" clip-rule="evenodd" d="M639.949 953.094L621.749 964.855Z" fill="white"/>
<path d="M639.949 953.094L621.749 964.855" stroke="#4794D4" stroke-width="1.97152"/>
<path fill-rule="evenodd" clip-rule="evenodd" d="M636.006 901.502L675.549 929.557L693.252 956.177L693.764 1000.62L685.844 1005.91L686.636 1016.5L681.092 1019.52L680.3 1007.61L672.777 1011.77L670.797 968.869L655.749 942.409L616.15 914.436L636.006 901.502Z" fill="white" stroke="#4794D4" stroke-width="1.97152"/>
<path fill-rule="evenodd" clip-rule="evenodd" d="M692.326 956.591C692.045 958.195 671.045 968.619 671.045 968.619Z" fill="white"/>
<path d="M692.326 956.591C692.045 958.195 671.045 968.619 671.045 968.619" stroke="#4794D4" stroke-width="1.97152"/>
<path fill-rule="evenodd" clip-rule="evenodd" d="M674.689 930.145L656.489 941.905Z" fill="white"/>
<path d="M674.689 930.145L656.489 941.905" stroke="#4794D4" stroke-width="1.97152"/>
<path fill-rule="evenodd" clip-rule="evenodd" d="M673.006 877.192L712.549 905.247L730.252 931.867L730.764 976.311L722.844 981.602L723.636 992.186L718.092 995.21L717.3 983.303L709.777 987.461L707.797 944.559L692.749 918.099L653.15 890.127L673.006 877.192Z" fill="white" stroke="#4794D4" stroke-width="1.97152"/>
<path fill-rule="evenodd" clip-rule="evenodd" d="M729.326 932.281C729.045 933.885 708.045 944.309 708.045 944.309Z" fill="white"/>
<path d="M729.326 932.281C729.045 933.885 708.045 944.309 708.045 944.309" stroke="#4794D4" stroke-width="1.97152"/>
<path fill-rule="evenodd" clip-rule="evenodd" d="M711.689 905.835L693.489 917.595Z" fill="white"/>
<path d="M711.689 905.835L693.489 917.595" stroke="#4794D4" stroke-width="1.97152"/>
<path fill-rule="evenodd" clip-rule="evenodd" d="M710.776 852.882L750.319 880.937L768.022 907.557L768.534 952L760.614 957.292L761.406 967.876L755.862 970.9L755.07 958.993L747.547 963.151L745.567 920.249L730.519 893.789L690.92 865.816L710.776 852.882Z" fill="white" stroke="#4794D4" stroke-width="1.97152"/>
<path fill-rule="evenodd" clip-rule="evenodd" d="M767.095 907.971C766.815 909.575 745.815 919.999 745.815 919.999Z" fill="white"/>
<path d="M767.095 907.971C766.815 909.575 745.815 919.999 745.815 919.999" stroke="#4794D4" stroke-width="1.97152"/>
<path fill-rule="evenodd" clip-rule="evenodd" d="M749.459 881.525L731.259 893.285Z" fill="white"/>
<path d="M749.459 881.525L731.259 893.285" stroke="#4794D4" stroke-width="1.97152"/>
<path fill-rule="evenodd" clip-rule="evenodd" d="M745.516 827.902L785.059 855.957L802.762 882.577L803.274 927.02L795.354 932.312L796.146 942.896L790.602 945.92L789.81 934.013L782.287 938.171L780.307 895.269L765.259 868.809L725.66 840.836L745.516 827.902Z" fill="white" stroke="#4794D4" stroke-width="1.97152"/>
<path fill-rule="evenodd" clip-rule="evenodd" d="M801.835 882.991C801.555 884.595 780.555 895.019 780.555 895.019Z" fill="white"/>
<path d="M801.835 882.991C801.555 884.595 780.555 895.019 780.555 895.019" stroke="#4794D4" stroke-width="1.97152"/>
<path fill-rule="evenodd" clip-rule="evenodd" d="M784.199 856.545L765.999 868.305Z" fill="white"/>
<path d="M784.199 856.545L765.999 868.305" stroke="#4794D4" stroke-width="1.97152"/>
<path fill-rule="evenodd" clip-rule="evenodd" d="M774.216 803.602L813.759 831.657L831.462 858.277L831.974 902.72L824.054 908.012L824.846 918.596L819.302 921.62L818.51 909.713L810.987 913.871L809.007 870.969L793.959 844.509L754.36 816.536L774.216 803.602Z" fill="white" stroke="#4794D4" stroke-width="1.97152"/>
<path fill-rule="evenodd" clip-rule="evenodd" d="M830.535 858.691C830.255 860.295 809.255 870.719 809.255 870.719Z" fill="white"/>
<path d="M830.535 858.691C830.255 860.295 809.255 870.719 809.255 870.719" stroke="#4794D4" stroke-width="1.97152"/>
<path fill-rule="evenodd" clip-rule="evenodd" d="M812.899 832.245L794.699 844.005Z" fill="white"/>
<path d="M812.899 832.245L794.699 844.005" stroke="#4794D4" stroke-width="1.97152"/>
<path fill-rule="evenodd" clip-rule="evenodd" d="M811.226 779.292L850.769 807.347L868.472 833.967L868.984 878.41L861.064 883.702L861.856 894.286L856.312 897.31L855.52 885.403L847.997 889.561L846.017 846.659L830.969 820.199L791.37 792.226L811.226 779.292Z" fill="white" stroke="#4794D4" stroke-width="1.97152"/>
<path fill-rule="evenodd" clip-rule="evenodd" d="M867.545 834.381C867.265 835.985 846.265 846.409 846.265 846.409Z" fill="white"/>
<path d="M867.545 834.381C867.265 835.985 846.265 846.409 846.265 846.409" stroke="#4794D4" stroke-width="1.97152"/>
<path fill-rule="evenodd" clip-rule="evenodd" d="M849.909 807.935L831.709 819.695Z" fill="white"/>
<path d="M849.909 807.935L831.709 819.695" stroke="#4794D4" stroke-width="1.97152"/>
<path fill-rule="evenodd" clip-rule="evenodd" d="M848.986 754.982L888.529 783.037L906.232 809.657L906.744 854.101L898.824 859.392L899.616 869.976L894.072 873L893.28 861.093L885.757 865.251L883.777 822.349L868.729 795.889L829.13 767.917L848.986 754.982Z" fill="white" stroke="#4794D4" stroke-width="1.97152"/>
<path fill-rule="evenodd" clip-rule="evenodd" d="M905.305 810.072C905.025 811.675 884.025 822.099 884.025 822.099Z" fill="white"/>
<path d="M905.305 810.072C905.025 811.675 884.025 822.099 884.025 822.099" stroke="#4794D4" stroke-width="1.97152"/>
<path fill-rule="evenodd" clip-rule="evenodd" d="M887.669 783.625L869.469 795.385Z" fill="white"/>
<path d="M887.669 783.625L869.469 795.385" stroke="#4794D4" stroke-width="1.97152"/>
<path fill-rule="evenodd" clip-rule="evenodd" d="M681.2 560.857L682.521 615.043L691.396 619.094L691.018 626.521L697.816 629.56L698.193 621.457L706.124 625.002L706.69 574.868" fill="white"/>
<path d="M681.2 560.857L682.521 615.043L691.396 619.094L691.018 626.521L697.816 629.56L698.193 621.457L706.124 625.002L706.69 574.868" stroke="#4794D4" stroke-width="1.81954"/>
<path fill-rule="evenodd" clip-rule="evenodd" d="M650.8 592.254L685.166 570.816L707.258 575.543L680.445 560.351L665.528 559L631.351 581.114L650.8 592.254Z" fill="white" stroke="#4794D4" stroke-width="1.81954"/>
<path fill-rule="evenodd" clip-rule="evenodd" d="M722.74 584.497L724.061 638.683L732.936 642.734L732.558 650.161L739.356 653.2L739.733 645.097L747.664 648.642L748.23 598.508" fill="white"/>
<path d="M722.74 584.497L724.061 638.683L732.936 642.734L732.558 650.161L739.356 653.2L739.733 645.097L747.664 648.642L748.23 598.508" stroke="#4794D4" stroke-width="1.81954"/>
<path fill-rule="evenodd" clip-rule="evenodd" d="M692.34 615.894L726.706 594.456L748.798 599.183L721.985 583.99L707.068 582.64L672.891 604.754L692.34 615.894Z" fill="white" stroke="#4794D4" stroke-width="1.81954"/>
<path fill-rule="evenodd" clip-rule="evenodd" d="M765.789 608.127L767.111 662.313L775.986 666.364L775.608 673.791L782.406 676.83L782.783 668.727L790.714 672.272L791.28 622.138" fill="white"/>
<path d="M765.789 608.127L767.111 662.313L775.986 666.364L775.608 673.791L782.406 676.83L782.783 668.727L790.714 672.272L791.28 622.138" stroke="#4794D4" stroke-width="1.81954"/>
<path fill-rule="evenodd" clip-rule="evenodd" d="M735.39 639.524L769.756 618.086L791.848 622.813L765.035 607.621L750.118 606.27L715.941 628.384L735.39 639.524Z" fill="white" stroke="#4794D4" stroke-width="1.81954"/>
<path fill-rule="evenodd" clip-rule="evenodd" d="M803.56 629.727L804.881 683.913L813.756 687.964L813.378 695.391L820.176 698.43L820.553 690.327L828.484 693.872L829.05 643.738" fill="white"/>
<path d="M803.56 629.727L804.881 683.913L813.756 687.964L813.378 695.391L820.176 698.43L820.553 690.327L828.484 693.872L829.05 643.738" stroke="#4794D4" stroke-width="1.81954"/>
<path fill-rule="evenodd" clip-rule="evenodd" d="M773.16 661.124L807.526 639.687L829.618 644.413L802.805 629.221L787.888 627.87L753.711 649.984L773.16 661.124Z" fill="white" stroke="#4794D4" stroke-width="1.81954"/>
<path fill-rule="evenodd" clip-rule="evenodd" d="M851.139 658.767L852.461 712.953L861.336 717.004L860.958 724.431L867.756 727.47L868.133 719.367L876.064 722.912L876.63 672.778" fill="white"/>
<path d="M851.139 658.767L852.461 712.953L861.336 717.004L860.958 724.431L867.756 727.47L868.133 719.367L876.064 722.912L876.63 672.778" stroke="#4794D4" stroke-width="1.81954"/>
<path fill-rule="evenodd" clip-rule="evenodd" d="M820.74 690.164L855.106 668.726L877.198 673.453L850.385 658.26L835.468 656.91L801.291 679.024L820.74 690.164Z" fill="white" stroke="#4794D4" stroke-width="1.81954"/>
<path fill-rule="evenodd" clip-rule="evenodd" d="M895.699 684.417L897.021 738.603L905.896 742.654L905.518 750.081L912.316 753.12L912.693 745.017L920.624 748.562L921.19 698.428" fill="white"/>
<path d="M895.699 684.417L897.021 738.603L905.896 742.654L905.518 750.081L912.316 753.12L912.693 745.017L920.624 748.562L921.19 698.428" stroke="#4794D4" stroke-width="1.81954"/>
<path fill-rule="evenodd" clip-rule="evenodd" d="M865.3 715.814L899.666 694.376L921.758 699.103L894.945 683.911L880.028 682.56L845.851 704.674L865.3 715.814Z" fill="white" stroke="#4794D4" stroke-width="1.81954"/>
<path fill-rule="evenodd" clip-rule="evenodd" d="M567.312 564.917L565.966 619.103L556.927 623.154L557.312 630.581L550.389 633.62L550.005 625.517L541.928 629.062L541.351 578.928" fill="white"/>
<path d="M567.312 564.917L565.966 619.103L556.927 623.154L557.312 630.581L550.389 633.62L550.005 625.517L541.928 629.062L541.351 578.928" stroke="#4794D4" stroke-width="1.83625"/>
<path fill-rule="evenodd" clip-rule="evenodd" d="M598.272 596.314L563.272 574.876L540.773 579.603L568.08 564.411L583.272 563.06L618.08 585.174L598.272 596.314Z" fill="white" stroke="#4794D4" stroke-width="1.83625"/>
<path fill-rule="evenodd" clip-rule="evenodd" d="M536.352 588.547L535.006 642.733L525.967 646.784L526.352 654.211L519.429 657.25L519.045 649.147L510.968 652.692L510.391 602.558" fill="white"/>
<path d="M536.352 588.547L535.006 642.733L525.967 646.784L526.352 654.211L519.429 657.25L519.045 649.147L510.968 652.692L510.391 602.558" stroke="#4794D4" stroke-width="1.83625"/>
<path fill-rule="evenodd" clip-rule="evenodd" d="M567.312 619.944L532.312 598.506L509.813 603.233L537.12 588.041L552.312 586.69L587.12 608.804L567.312 619.944Z" fill="white" stroke="#4794D4" stroke-width="1.83625"/>
<path fill-rule="evenodd" clip-rule="evenodd" d="M500.852 614.197L499.506 668.383L490.467 672.434L490.852 679.861L483.929 682.9L483.545 674.797L475.468 678.342L474.891 628.208" fill="white"/>
<path d="M500.852 614.197L499.506 668.383L490.467 672.434L490.852 679.861L483.929 682.9L483.545 674.797L475.468 678.342L474.891 628.208" stroke="#4794D4" stroke-width="1.83625"/>
<path fill-rule="evenodd" clip-rule="evenodd" d="M531.812 645.594L496.812 624.156L474.313 628.883L501.62 613.69L516.812 612.34L551.62 634.454L531.812 645.594Z" fill="white" stroke="#4794D4" stroke-width="1.83625"/>
<path fill-rule="evenodd" clip-rule="evenodd" d="M463.092 640.537L461.746 694.723L452.707 698.774L453.092 706.201L446.169 709.24L445.785 701.137L437.708 704.682L437.131 654.548" fill="white"/>
<path d="M463.092 640.537L461.746 694.723L452.707 698.774L453.092 706.201L446.169 709.24L445.785 701.137L437.708 704.682L437.131 654.548" stroke="#4794D4" stroke-width="1.83625"/>
<path fill-rule="evenodd" clip-rule="evenodd" d="M494.052 671.934L459.052 650.496L436.553 655.223L463.86 640.031L479.052 638.68L513.86 660.794L494.052 671.934Z" fill="white" stroke="#4794D4" stroke-width="1.83625"/>
<path fill-rule="evenodd" clip-rule="evenodd" d="M423.062 666.867L421.716 721.053L412.677 725.104L413.062 732.531L406.139 735.57L405.755 727.467L397.678 731.012L397.101 680.878" fill="white"/>
<path d="M423.062 666.867L421.716 721.053L412.677 725.104L413.062 732.531L406.139 735.57L405.755 727.467L397.678 731.012L397.101 680.878" stroke="#4794D4" stroke-width="1.83625"/>
<path fill-rule="evenodd" clip-rule="evenodd" d="M454.022 698.264L419.022 676.826L396.523 681.553L423.83 666.361L439.022 665.01L473.83 687.124L454.022 698.264Z" fill="white" stroke="#4794D4" stroke-width="1.83625"/>
<path fill-rule="evenodd" clip-rule="evenodd" d="M384.542 695.897L383.196 750.083L374.157 754.134L374.542 761.561L367.619 764.6L367.235 756.497L359.158 760.042L358.581 709.908" fill="white"/>
<path d="M384.542 695.897L383.196 750.083L374.157 754.134L374.542 761.561L367.619 764.6L367.235 756.497L359.158 760.042L358.581 709.908" stroke="#4794D4" stroke-width="1.83625"/>
<path fill-rule="evenodd" clip-rule="evenodd" d="M415.502 727.294L380.502 705.856L358.003 710.583L385.31 695.391L400.502 694.04L435.31 716.154L415.502 727.294Z" fill="white" stroke="#4794D4" stroke-width="1.83625"/>
<path fill-rule="evenodd" clip-rule="evenodd" d="M343.752 725.607L342.406 779.793L333.367 783.844L333.752 791.271L326.829 794.31L326.445 786.207L318.368 789.752L317.791 739.618" fill="white"/>
<path d="M343.752 725.607L342.406 779.793L333.367 783.844L333.752 791.271L326.829 794.31L326.445 786.207L318.368 789.752L317.791 739.618" stroke="#4794D4" stroke-width="1.83625"/>
<path fill-rule="evenodd" clip-rule="evenodd" d="M374.712 757.004L339.712 735.566L317.213 740.293L344.52 725.101L359.712 723.75L394.52 745.864L374.712 757.004Z" fill="white" stroke="#4794D4" stroke-width="1.83625"/>
<path fill-rule="evenodd" clip-rule="evenodd" d="M305.992 750.587L304.646 804.773L295.607 808.824L295.992 816.251L289.069 819.29L288.685 811.187L280.608 814.732L280.031 764.598" fill="white"/>
<path d="M305.992 750.587L304.646 804.773L295.607 808.824L295.992 816.251L289.069 819.29L288.685 811.187L280.608 814.732L280.031 764.598" stroke="#4794D4" stroke-width="1.83625"/>
<path fill-rule="evenodd" clip-rule="evenodd" d="M336.952 781.984L301.952 760.546L279.453 765.273L306.76 750.081L321.952 748.73L356.76 770.844L336.952 781.984Z" fill="white" stroke="#4794D4" stroke-width="1.83625"/>
<path fill-rule="evenodd" clip-rule="evenodd" d="M265.212 779.627L263.866 833.813L254.827 837.864L255.212 845.291L248.289 848.33L247.905 840.227L239.828 843.772L239.251 793.638" fill="white"/>
<path d="M265.212 779.627L263.866 833.813L254.827 837.864L255.212 845.291L248.289 848.33L247.905 840.227L239.828 843.772L239.251 793.638" stroke="#4794D4" stroke-width="1.83625"/>
<path fill-rule="evenodd" clip-rule="evenodd" d="M296.172 811.024L261.172 789.586L238.673 794.313L265.98 779.121L281.172 777.77L315.98 799.884L296.172 811.024Z" fill="white" stroke="#4794D4" stroke-width="1.83625"/>
<path fill-rule="evenodd" clip-rule="evenodd" d="M883.726 730.002L923.269 758.057L940.972 784.677L941.484 829.12L933.564 834.412L934.356 844.996L928.812 848.02L928.02 836.113L920.497 840.271L918.517 797.369L903.469 770.909L863.87 742.936L883.726 730.002Z" fill="white" stroke="#4794D4" stroke-width="1.97152"/>
<path fill-rule="evenodd" clip-rule="evenodd" d="M940.045 785.091C939.765 786.695 918.765 797.119 918.765 797.119Z" fill="white"/>
<path d="M940.045 785.091C939.765 786.695 918.765 797.119 918.765 797.119" stroke="#4794D4" stroke-width="1.97152"/>
<path fill-rule="evenodd" clip-rule="evenodd" d="M922.409 758.645L904.209 770.405Z" fill="white"/>
<path d="M922.409 758.645L904.209 770.405" stroke="#4794D4" stroke-width="1.97152"/>
<path fill-rule="evenodd" clip-rule="evenodd" d="M267.081 826.96L527.337 987.841L894.763 728.13L629.407 571.845L267.081 826.963V826.96Z" fill="white" stroke="#4794D4" stroke-width="2.18163"/>
<path fill-rule="evenodd" clip-rule="evenodd" d="M296.792 810.409L514.692 944.095L822.307 728.288L600.135 598.422L296.792 810.409Z" fill="white" stroke="#4794D4" stroke-width="1.81954"/>
<path fill-rule="evenodd" clip-rule="evenodd" d="M515.231 943.362C515.231 946.063 526.56 987.925 526.56 987.925Z" fill="white"/>
<path d="M515.231 943.362C515.231 946.063 526.56 987.925 526.56 987.925" stroke="#4794D4" stroke-width="1.81954"/>
<path fill-rule="evenodd" clip-rule="evenodd" d="M821.884 728.639L894.391 727.964Z" fill="white"/>
<path d="M821.884 728.639L894.391 727.964" stroke="#4794D4" stroke-width="1.81954"/>
<path fill-rule="evenodd" clip-rule="evenodd" d="M599.077 598.99L630.799 571.981Z" fill="white"/>
<path d="M599.077 598.99L630.799 571.981" stroke="#4794D4" stroke-width="1.81954"/>
<path fill-rule="evenodd" clip-rule="evenodd" d="M296.195 810.341L264.474 827.221Z" fill="white"/>
<path d="M296.195 810.341L264.474 827.221" stroke="#4794D4" stroke-width="1.81954"/>
<path fill-rule="evenodd" clip-rule="evenodd" d="M531.096 1005.45L528.074 989.249Z" fill="white"/>
<path d="M531.096 1005.45L528.074 989.249" stroke="#4794D4" stroke-width="1.949"/>
</svg>
