<svg width="801" height="729" viewBox="0 0 801 729" fill="none" xmlns="http://www.w3.org/2000/svg">
<path fill-rule="evenodd" clip-rule="evenodd" d="M22.5889 404.341V357.578H661.002V404.341C661.002 412.612 654.228 419.204 645.818 419.204H37.4537C29.1128 419.204 22.5889 412.681 22.5889 404.341ZM19.5889 404.341V357.578V354.578H19.5936H22.5889H661.002H664.002V357.578V404.341C664.002 414.338 655.815 422.204 645.818 422.204H622.223L621.928 424.291L588.073 663.746C588.073 673.742 580.025 681.79 570.027 681.79H123.773C113.775 681.79 105.727 673.742 105.727 663.746L71.0726 424.288L70.7709 422.204H37.4537C27.4561 422.204 19.5889 414.338 19.5889 404.341ZM109.686 663.173L75.1145 424.29C82.3969 424.295 96.05 424.307 114.449 424.324C229.051 424.426 527.774 424.694 617.885 424.31L584.113 663.186L584.073 663.464V663.746C584.073 671.533 577.816 677.79 570.027 677.79H123.773C115.984 677.79 109.727 671.533 109.727 663.746V663.458L109.686 663.173Z" fill="#4794D4"/>
<path d="M620.375 336.443H64.0207V340.443H620.375V336.443ZM661.425 353.782L23.5637 352.717L82.372 256.548H602.035L661.425 353.782Z" stroke="#4794D4" stroke-width="4"/>
<path d="M583.043 269.389L621.681 336.999L59.473 337.651L100.051 268.737L583.043 269.389Z" stroke="#4794D4"/>
<path d="M583.043 269.389L621.681 336.999L59.473 337.651L100.051 268.737L583.043 269.389Z" stroke="#4794D4"/>
<path d="M99.9469 268.729H100.118V337.588H59.3831L99.9469 268.729Z" stroke="#4794D4"/>
<path d="M582.185 268.729H582.356L622.92 337.588H582.185V268.729Z" stroke="#4794D4"/>
<path d="M135.578 534.405H109.462V450.554H135.578V534.405ZM190.448 534.405H164.332V450.554H190.448V534.405ZM245.638 534.405H219.522V450.554H245.638V534.405ZM300.508 534.405H274.711V450.554H300.508V534.405ZM355.698 534.405H329.581V450.554H355.698V534.405ZM410.568 534.405H384.771V450.554H410.568V534.405ZM465.757 534.405H439.641V450.554H465.757V534.405ZM520.947 534.405H494.831V450.554H520.947V534.405ZM575.817 534.405H549.701V450.554H575.817V534.405ZM116.758 656.898L109.507 573.046H135.578V656.898H116.758ZM190.448 656.898H164.332V573.046H190.448V656.898ZM245.638 656.898H219.522V573.046H245.638V656.898ZM300.508 656.898H274.711V573.046H300.508V656.898ZM355.698 656.898H329.581V573.046H355.698V656.898ZM410.568 656.898H384.771V573.046H410.568V656.898ZM465.757 656.898H439.641V573.046H465.757V656.898ZM520.947 656.898H494.831V573.046H520.947V656.898ZM568.521 656.898H549.701V573.046H575.772L568.521 656.898Z" stroke="#4794D4"/>
<path d="M135.435 461.304H109.319V451.458H135.435V461.304ZM190.305 461.304H164.189V451.458H190.305V461.304ZM245.495 461.304H219.379V451.458H245.495V461.304ZM300.365 461.304H274.568V451.458H300.365V461.304ZM355.555 461.304H329.438V451.458H355.555V461.304ZM410.425 461.304H384.628V451.458H410.425V461.304ZM465.614 461.304H439.498V451.458H465.614V461.304ZM520.804 461.304H494.688V451.458H520.804V461.304ZM575.674 461.304H549.558V451.458H575.674V461.304ZM110.233 583.796L109.365 573.951H135.435V583.796H110.233ZM190.305 583.796H164.189V573.951H190.305V583.796ZM245.495 583.796H219.379V573.951H245.495V583.796ZM300.365 583.796H274.568V573.951H300.365V583.796ZM355.555 583.796H329.438V573.951H355.555V583.796ZM410.425 583.796H384.628V573.951H410.425V583.796ZM465.614 583.796H439.498V573.951H465.614V583.796ZM520.804 583.796H494.688V573.951H520.804V583.796ZM574.759 583.796H549.558V573.951H575.628L574.759 583.796Z" stroke="#4794D4"/>
<path opacity="0.8" d="M21.5029 352.309L660.8 354.86" stroke="#4794D4" stroke-width="2.279"/>
<path opacity="0.8" d="M362.459 394.788C362.459 402.848 355.925 409.382 347.864 409.382C339.803 409.382 333.268 402.848 333.268 394.788C333.268 386.728 339.803 380.194 347.864 380.194C355.925 380.194 362.459 386.728 362.459 394.788Z" stroke="#4794D4" stroke-width="5.2625"/>
<path opacity="0.996" d="M636.288 319.567C636.304 319.512 636.32 319.464 636.335 319.424C636.375 319.423 636.421 319.424 636.474 319.425C636.907 319.438 637.545 319.533 638.41 319.745C640.13 320.168 642.425 320.974 645.163 322.095C650.589 324.315 669.737 333.949 676.851 337.603L684.383 341.885L684.395 341.891L684.408 341.898C685.845 342.69 686.729 343.181 687.273 343.485C687.545 343.637 687.729 343.741 687.852 343.811C687.897 343.837 687.932 343.857 687.96 343.873C688 343.903 688.031 343.924 688.048 343.935C688.186 344.028 688.42 344.159 688.789 344.363L696.245 348.495C696.784 348.793 697.582 349.23 698.601 349.788C700.837 351.012 704.137 352.819 708.091 355.022L727.748 366.303C734.618 370.393 741.287 374.568 746.329 378.153C748.856 379.951 750.928 381.567 752.4 382.926C753.137 383.607 753.687 384.189 754.062 384.67C754.198 384.843 754.299 384.988 754.373 385.106C754.241 385.203 754.059 385.323 753.811 385.463C752.784 386.043 751.158 386.686 749.023 387.4C746.669 388.187 743.977 388.974 741.095 389.816C738.661 390.528 736.091 391.279 733.474 392.103C727.967 393.838 722.417 395.855 718.801 398.289C717 399.502 715.424 400.983 714.731 402.813C713.978 404.798 714.388 406.848 715.834 408.772L726.354 422.769L736.874 436.767L747.394 450.765L757.914 464.763C758.197 465.139 758.382 465.547 758.477 465.964C758.573 466.383 758.58 466.818 758.498 467.244L760.518 467.626L758.498 467.244C758.417 467.67 758.249 468.085 757.996 468.461C757.744 468.837 757.408 469.176 756.987 469.452L747.545 475.658C745.858 476.766 743.636 476.346 742.549 474.86L741.11 475.793L742.549 474.86L701.572 418.833C700.155 416.896 698.254 415.82 696.004 415.873C693.953 415.921 691.989 416.907 690.242 418.164C686.723 420.695 683.001 425.132 679.562 429.624C677.937 431.748 676.394 433.857 674.93 435.858C673.184 438.245 671.55 440.477 670.026 442.395C668.646 444.131 667.492 445.427 666.586 446.196C666.381 446.37 666.212 446.497 666.077 446.588C665.986 446.486 665.883 446.361 665.769 446.21C665.403 445.723 664.987 445.046 664.53 444.169C663.618 442.418 662.632 440.044 661.603 437.202C659.55 431.529 657.402 424.196 655.4 416.709C652.02 404.07 649.089 391.127 647.75 385.213C647.503 384.123 647.31 383.272 647.179 382.706C647.047 382.139 646.844 381.286 646.585 380.195C645.177 374.279 642.097 361.335 639.613 348.716C638.14 341.237 636.887 333.926 636.313 328.291C636.025 325.463 635.916 323.13 636.017 321.435C636.068 320.583 636.168 319.97 636.288 319.567ZM687.524 343.439C687.526 343.441 687.527 343.443 687.528 343.445C687.512 343.424 687.507 343.416 687.524 343.439Z" fill="white" stroke="#4794D4" stroke-width="4"/>
<path d="M440.369 469.5H723.485C736.259 469.5 746.354 479.214 746.354 490.883V643.041C746.354 654.711 736.259 664.425 723.485 664.425H440.369C427.594 664.425 417.5 654.711 417.5 643.041V490.883C417.5 479.214 427.594 469.5 440.369 469.5Z" fill="white" stroke="#4794D4" stroke-width="5"/>
<path d="M746.353 551.78H417.5V500.453H746.353V551.78Z" fill="#4794D4" stroke="#4794D4" stroke-width="5"/>
<path d="M440.782 578.843H471.23C474.254 578.843 476.496 581.122 476.496 583.683V594.807C476.496 597.368 474.254 599.647 471.23 599.647H440.782C437.758 599.647 435.516 597.368 435.516 594.807V583.683C435.516 581.122 437.758 578.843 440.782 578.843Z" fill="white" stroke="#4794D4" stroke-width="4"/>
<path d="M500.533 584.727H535.932C538.856 584.727 540.855 586.813 540.855 588.953V589.537C540.855 591.676 538.856 593.762 535.932 593.762H500.533C497.609 593.762 495.61 591.676 495.61 589.537V588.953C495.61 586.813 497.609 584.727 500.533 584.727Z" fill="white" stroke="#4794D4" stroke-width="4"/>
<path d="M560.627 584.727H569.645C572.479 584.727 574.568 586.862 574.568 589.245C574.568 591.628 572.479 593.762 569.645 593.762H560.627C557.792 593.762 555.704 591.628 555.704 589.245C555.704 586.862 557.792 584.727 560.627 584.727Z" fill="white" stroke="#4794D4" stroke-width="4"/>
<path opacity="0.995" d="M724.649 627.021C724.649 637.737 715.376 646.676 703.616 646.676C691.856 646.676 682.583 637.737 682.583 627.021C682.583 616.306 691.856 607.366 703.616 607.366C715.376 607.366 724.649 616.306 724.649 627.021Z" fill="white" stroke="#4794D4" stroke-width="5"/>
<path opacity="0.995" d="M690.405 627.021C690.405 637.737 681.132 646.676 669.372 646.676C657.611 646.676 648.339 637.737 648.339 627.021C648.339 616.306 657.611 607.366 669.372 607.366C681.132 607.366 690.405 616.306 690.405 627.021Z" fill="white" stroke="#4794D4" stroke-width="5"/>
<path opacity="0.997" d="M9.15539 571.5H298.645C303.01 571.5 306.3 574.686 306.3 578.323V719.77C306.3 723.407 303.01 726.593 298.645 726.593H9.15539C4.78974 726.593 1.5 723.407 1.5 719.77V578.323C1.5 574.686 4.78973 571.5 9.15539 571.5Z" fill="white" stroke="#4794D4" stroke-width="3"/>
<path opacity="0.997" d="M15.2351 582.483H292.565V715.61H15.2351V582.483Z" fill="white" stroke="#4794D4" stroke-width="5"/>
<path opacity="0.997" d="M47.4251 609.418C52.6644 604.438 56.1501 598.143 57.4157 591.338H250.384C251.65 598.143 255.135 604.438 260.375 609.418C265.668 614.448 272.483 617.885 279.905 619.337V678.755C272.483 680.207 265.668 683.644 260.375 688.675C255.135 693.654 251.65 699.95 250.384 706.754H57.4157C56.1501 699.95 52.6644 693.654 47.4251 688.675C42.132 683.644 35.3167 680.207 27.8951 678.755V619.337C35.3167 617.885 42.132 614.448 47.4251 609.418Z" fill="white" stroke="#4794D4" stroke-width="5"/>
<path opacity="0.997" d="M99.6834 671.42H208.117C208.883 671.42 209.496 671.673 209.874 671.979C210.248 672.28 210.324 672.558 210.324 672.722V673.982C210.324 674.146 210.248 674.423 209.874 674.725C209.496 675.031 208.883 675.283 208.117 675.283H99.6834C98.9174 675.283 98.3042 675.031 97.9256 674.725C97.5519 674.423 97.4763 674.146 97.4763 673.982V672.722C97.4763 672.558 97.5519 672.281 97.9256 671.979C98.3042 671.673 98.9174 671.42 99.6834 671.42Z" fill="white" stroke="#4794D4" stroke-width="5"/>
<path opacity="0.997" d="M71.3734 648.848H236.427C237.79 648.848 238.634 649.853 238.634 650.78C238.634 651.706 237.79 652.711 236.427 652.711H71.3734C70.0102 652.711 69.1663 651.706 69.1663 650.78C69.1663 649.853 70.0102 648.848 71.3734 648.848Z" fill="white" stroke="#4794D4" stroke-width="5"/>
<path opacity="0.997" d="M99.6834 625.3H208.117C208.883 625.3 209.496 625.553 209.874 625.859C210.248 626.16 210.324 626.438 210.324 626.601V627.862C210.324 628.026 210.248 628.303 209.874 628.605C209.496 628.911 208.883 629.163 208.117 629.163H99.6834C98.9174 629.163 98.3042 628.911 97.9256 628.605C97.5519 628.303 97.4763 628.026 97.4763 627.862V626.601C97.4763 626.438 97.5519 626.16 97.9256 625.859C98.3042 625.553 98.9174 625.3 99.6834 625.3Z" fill="white" stroke="#4794D4" stroke-width="5"/>
<path opacity="0.997" d="M190.205 649.047C190.205 672.137 173.676 690.327 153.9 690.327C134.124 690.327 117.595 672.137 117.595 649.047C117.595 625.956 134.124 607.766 153.9 607.766C173.676 607.766 190.205 625.956 190.205 649.047Z" fill="white" stroke="#4794D4" stroke-width="5"/>
<path d="M163.806 644.224L162.172 647.741H139L140.279 644.224H163.806ZM160.75 651.259L159.115 654.776H139L140.279 651.259H160.75ZM168 634.728L166.294 638.386C165.536 637.706 164.736 637.12 163.895 636.627C163.054 636.135 162.172 635.754 161.248 635.484C160.324 635.215 159.352 635.08 158.333 635.08C156.319 635.08 154.507 635.631 152.896 636.733C151.285 637.835 150.011 639.459 149.075 641.604C148.14 643.75 147.672 646.381 147.672 649.5C147.672 652.619 148.14 655.25 149.075 657.396C150.011 659.541 151.285 661.165 152.896 662.267C154.507 663.369 156.319 663.92 158.333 663.92C159.376 663.92 160.359 663.785 161.283 663.516C162.219 663.246 163.09 662.877 163.895 662.408C164.713 661.939 165.465 661.411 166.152 660.825L167.929 664.483C166.685 665.644 165.228 666.523 163.558 667.121C161.887 667.707 160.146 668 158.333 668C155.419 668 152.837 667.25 150.586 665.749C148.347 664.248 146.588 662.115 145.308 659.348C144.041 656.581 143.407 653.298 143.407 649.5C143.407 645.702 144.041 642.419 145.308 639.652C146.588 636.885 148.347 634.752 150.586 633.251C152.837 631.75 155.419 631 158.333 631C160.217 631 161.976 631.322 163.611 631.967C165.258 632.612 166.721 633.532 168 634.728Z" fill="#4794D4"/>
<g clip-path="url(#clip0_73_1127)">
<path fill-rule="evenodd" clip-rule="evenodd" d="M339.559 336.664V202.162H186.381V336.664H339.559ZM339.578 202.2C344.287 183.35 346.928 172.782 351.637 153.933L351.665 264.292L339.546 336.636M351.665 153.896H207.08L186.339 201.945L339.581 202.205" fill="white"/>
<path d="M339.578 202.2C344.287 183.35 346.928 172.782 351.637 153.933L351.665 264.292L339.546 336.636M351.665 153.896H207.08L186.339 201.945L339.581 202.205M339.559 336.664V202.162H186.381V336.664H339.559Z" stroke="#4794D4" stroke-width="5" stroke-linecap="round" stroke-linejoin="round"/>
<path d="M262.673 203.199L276.926 152.802" stroke="#4794D4" stroke-width="3"/>
<path opacity="0.7" fill-rule="evenodd" clip-rule="evenodd" d="M249.296 202.472L249.25 219.008L251.918 216.895L254.586 219.008L257.209 216.987L259.969 218.962L262.683 216.895L265.259 219.008L267.973 216.941L270.641 219.008L273.355 216.987L276.023 219.1L275.977 202.472L276.031 202.464L285.671 152.582L267.061 152.536L249.296 202.472Z" fill="#4794D4"/>
</g>
<g clip-path="url(#clip1_73_1127)">
<path fill-rule="evenodd" clip-rule="evenodd" d="M498.559 335.664V201.162H345.381V335.664H498.559ZM498.578 201.2C503.287 182.35 505.928 171.782 510.637 152.933L510.665 263.292L498.546 335.636M510.665 152.896H366.08L345.339 200.945L498.581 201.205" fill="white"/>
<path d="M498.578 201.2C503.287 182.35 505.928 171.782 510.637 152.933L510.665 263.292L498.546 335.636M510.665 152.896H366.08L345.339 200.945L498.581 201.205M498.559 335.664V201.162H345.381V335.664H498.559Z" stroke="#4794D4" stroke-width="5" stroke-linecap="round" stroke-linejoin="round"/>
<path d="M421.673 202.199L435.926 151.802" stroke="#4794D4" stroke-width="3"/>
<path opacity="0.7" fill-rule="evenodd" clip-rule="evenodd" d="M408.296 201.472L408.25 218.008L410.918 215.895L413.586 218.008L416.209 215.987L418.969 217.962L421.683 215.895L424.259 218.008L426.973 215.941L429.641 218.008L432.355 215.987L435.023 218.1L434.977 201.472L435.031 201.464L444.671 151.582L426.061 151.536L408.296 201.472Z" fill="#4794D4"/>
</g>
<g clip-path="url(#clip2_73_1127)">
<path fill-rule="evenodd" clip-rule="evenodd" d="M398.559 184.664V50.1621H245.381V184.664H398.559ZM398.578 50.1996C403.287 31.3503 405.928 20.7822 410.637 1.93293L410.665 112.292L398.546 184.636M410.665 1.89551H266.08L245.339 49.9446L398.581 50.2045" fill="white"/>
<path d="M398.578 50.1996C403.287 31.3503 405.928 20.7822 410.637 1.93293L410.665 112.292L398.546 184.636M410.665 1.89551H266.08L245.339 49.9446L398.581 50.2045M398.559 184.664V50.1621H245.381V184.664H398.559Z" stroke="#4794D4" stroke-width="5" stroke-linecap="round" stroke-linejoin="round"/>
<path d="M321.673 51.1993L335.926 0.802246" stroke="#4794D4" stroke-width="3"/>
<path opacity="0.7" fill-rule="evenodd" clip-rule="evenodd" d="M308.296 50.4723L308.25 67.0078L310.918 64.8949L313.586 67.0078L316.209 64.9868L318.969 66.9619L321.683 64.895L324.259 67.0078L326.973 64.9409L329.641 67.0078L332.355 64.9868L335.023 67.0997L334.977 50.4723L335.031 50.464L344.671 0.581832L326.061 0.535889L308.296 50.4723Z" fill="#4794D4"/>
</g>
<path d="M341.791 396.708C341.63 396.484 341.487 396.273 341.364 396.081L548.998 161.325L550.196 159.97L548.969 158.642L475.469 79.1423L474.078 77.6379L472.607 79.0646L426.264 124.031L429.891 97.4376L465.088 62.2247L465.224 62.088L465.332 61.9277C466.728 59.8539 469.04 58.3941 471.511 58.0205C473.934 57.8531 476.432 58.7179 478.233 60.3475L568.407 150.568L568.51 150.671L568.627 150.758C570.522 152.17 571.726 154.471 572.027 156.979C572.327 159.475 571.709 161.984 570.217 163.801L359.987 399.342C356.378 401.311 353.432 401.948 351.076 401.898C348.666 401.848 346.738 401.076 345.215 400.061C343.676 399.034 342.543 397.752 341.791 396.708Z" fill="white" stroke="#4794D4" stroke-width="4"/>
<defs>
<clipPath id="clip0_73_1127">
<rect width="168" height="186" fill="white" transform="translate(185 152)"/>
</clipPath>
<clipPath id="clip1_73_1127">
<rect width="168" height="186" fill="white" transform="translate(344 151)"/>
</clipPath>
<clipPath id="clip2_73_1127">
<rect width="168" height="186" fill="white" transform="translate(244)"/>
</clipPath>
</defs>
</svg>
