<svg width="223" height="223" viewBox="0 0 223 223" fill="none"
    xmlns="http://www.w3.org/2000/svg">
    <circle cx="111.5" cy="111.5" r="111.5" fill="#FAFAFA"/>
    <path d="M74.9371 47.276L71.9712 52.3025C72.0936 67.7748 76.3121 95.7418 95.9411 89.7612L113.261 84.4841C121.77 81.3025 122.741 76.5305 122.66 65.718C122.579 54.9055 115.886 43.8305 112.865 39.8428L108.269 37.1203L113.849 57.2122L100.199 73.1506L80.5169 67.3679L74.9371 47.276Z" fill="#4794D4" stroke="#4794D4" strokeWidth="2"/>
    <path fill-rule="evenodd" clip-rule="evenodd" d="M113.443 88.0056L96.8256 93.0686L119.182 180.4C129.328 183.468 134.09 182.544 140.172 174.004L113.443 88.0056ZM129.384 176.149C131.703 175.442 133.036 172.901 132.361 170.472C131.687 168.044 129.26 166.648 126.942 167.354C124.623 168.061 123.291 170.602 123.965 173.03C124.639 175.459 127.066 176.855 129.384 176.149Z" fill="#4794D4"/>
    <rect width="15.0647" height="93.7913" transform="matrix(0.862682 0.505747 -0.47129 0.881978 128.549 78.1278)" fill="#4794D4"/>
    <rect width="15.0647" height="7.12339" transform="matrix(0.862682 0.505747 -0.47129 0.881978 82.6675 163.991)" fill="#4794D4"/>
    <path d="M146.238 60.995L142.24 84.435L129.253 76.8217L146.238 60.995Z" fill="#4794D4"/>
    <path d="M118.408 92.5984L116.116 96.7983L125.854 128.597L128.718 123.198L118.408 92.5984Z" fill="white"/>
    <path d="M102.942 117.198L100.543 120.927L107.768 154.58L111.172 149.293L102.942 117.198Z" fill="white"/>
</svg>
