<svg width="223" height="223" viewBox="0 0 223 223" fill="none"
    xmlns="http://www.w3.org/2000/svg">
    <circle cx="111.5" cy="111.5" r="111.5" fill="#FAFAFA"/>
    <path d="M160.14 88H63C63 95.816 63.0754 103.068 63.2637 109.786H159.799C160.041 103.015 160.14 95.7567 160.14 88Z" fill="#4794D4"/>
    <path d="M63.2637 109.786C63.2637 184 73.9156 184 111.162 184C148.05 184 159.799 184 159.799 109.786M63.2637 109.786C63.0754 103.068 63 95.816 63 88H160.14C160.14 95.7567 160.041 103.015 159.799 109.786M63.2637 109.786H159.799" stroke="#4794D4" strokeWidth="7"/>
    <ellipse cx="142" cy="99.5" rx="6" ry="5.5" fill="white"/>
    <ellipse cx="79" cy="99.5" rx="6" ry="5.5" fill="white"/>
    <path d="M75.9525 91C73.8984 74 71.5948 40 110.505 40C149.416 40 153.128 74 146.158 91" stroke="#4794D4" strokeWidth="3"/>
</svg>
