<svg width="223" height="223" viewBox="0 0 223 223" fill="none"
    xmlns="http://www.w3.org/2000/svg">
    <circle cx="111.5" cy="111.5" r="111.5" fill="#FAFAFA"/>
    <path d="M102 81H122C121.088 95.687 119.604 99.7978 116.754 100.94L122 167.296L112.164 183.963L102 167.296L107.642 100.94C104.162 99.8125 102 95.737 102 81Z" fill="#4794D4"/>
    <path d="M116.754 100.94C119.604 99.7978 121.088 95.687 122 81H102C102 101.37 106.131 101.37 112.164 101.37C114 101.37 115.508 101.439 116.754 100.94ZM116.754 100.94L122 167.296L112.164 183.963L102 167.296L107.642 100.94H116.754Z" stroke="#4794D4" strokeWidth="7"/>
    <path d="M119.377 122.852L104.623 130.259L104.295 135.074L119.705 127.296L119.377 122.852Z" fill="white"/>
    <path d="M119.377 130.63L104.623 138.037L104.295 142.852L119.705 135.074L119.377 130.63Z" fill="white"/>
    <path d="M89.5 40C89.5 40 75.201 47.8137 67 52.5C68.9178 68.0613 74.0852 77.6486 94 97L97.5 73C82 65 87.5 40.5 89.5 40Z" stroke="#4794D4" strokeWidth="3"/>
    <path d="M134 40C134 40 148.299 47.8137 156.5 52.5C154.582 68.0613 149.415 77.6486 129.5 97L126 73C141.5 65 136 40.5 134 40Z" stroke="#4794D4" strokeWidth="3"/>
</svg>
