<svg width="225" height="40" viewBox="0 0 225 40" fill="none" xmlns="http://www.w3.org/2000/svg">
<path d="M0.732443 10.0822C0.726283 8.81872 1.74454 7.79202 3.00574 7.78588L4.25312 7.77979L4.27138 11.525C6.63866 8.9818 10.0015 7.37869 13.9026 7.35968C18.6495 7.33653 23.0317 9.95431 25.3815 13.9023C27.6305 9.93188 31.8273 7.27228 36.8483 7.2478C43.958 7.21314 50.1572 12.9901 50.1937 20.4744L50.2582 33.7035L49.0085 33.7096C47.7465 33.7158 46.7245 32.7044 46.7183 31.4402L46.6649 20.4916C46.6387 15.1121 42.2373 10.7588 36.907 10.7848C31.6396 10.8105 27.4372 15 27.2485 20.214L27.3148 33.8154L23.7922 33.8326L23.7259 20.2311C23.4786 15.0193 19.1327 10.8715 13.9782 10.8966C8.70078 10.9223 4.4992 15.1118 4.31429 20.3258L4.36948 31.6466C4.37565 32.9109 3.36044 33.9322 2.10077 33.9383L0.848785 33.9444L0.732443 10.0822Z" fill="#162447"/>
<path d="M76.7107 20.5097C76.6845 15.1287 72.3378 10.8243 66.966 10.8504C61.6303 10.8765 57.2867 15.2233 57.3129 20.6043C57.3389 25.9239 61.7249 30.2834 67.0607 30.2574C72.4325 30.2312 76.7366 25.8293 76.7107 20.5097ZM80.2381 20.5393C80.2739 27.8747 74.4539 33.7502 67.0241 33.7864C59.6358 33.8224 53.8156 28.0037 53.7798 20.6683C53.7436 13.2332 59.4069 7.35079 66.8951 7.31428C74.0124 7.27958 80.2016 13.0535 80.2381 20.5393Z" fill="#162447"/>
<path d="M84.3041 9.67594C84.298 8.41244 85.3155 7.38575 86.5782 7.37959L87.8317 7.37348L87.85 11.1187C90.2127 8.57551 93.5763 6.97701 97.4689 6.95803C104.594 6.92329 110.792 12.6956 110.829 20.1799L110.893 33.4091L109.646 33.4152C108.382 33.4213 107.36 32.41 107.354 31.1457L107.3 20.1971C107.274 14.8177 102.871 10.4644 97.5445 10.4903C92.2755 10.516 88.0755 14.7009 87.8929 19.9195L87.9481 31.2403C87.9543 32.5046 86.9321 33.5259 85.6778 33.532L84.4205 33.5382L84.3041 9.67594Z" fill="#162447"/>
<path d="M144.511 9.38114C144.505 8.11764 145.523 7.09095 146.781 7.08482L148.033 7.07871L148.051 10.8239C150.413 8.28074 153.781 6.68222 157.684 6.66319C162.428 6.64006 166.814 9.25321 169.153 13.2013C171.404 9.23083 175.614 6.57577 180.623 6.55135C187.737 6.51666 193.937 12.289 193.973 19.7733L194.038 33.0117L192.783 33.0178C191.526 33.0239 190.493 32.0034 190.487 30.7483L190.434 19.7906C190.407 14.4111 186.01 10.0578 180.691 10.0837C175.409 10.1094 171.217 14.2989 171.034 19.5128L171.1 33.1235L167.564 33.1408L167.498 19.5301C167.265 14.3182 162.92 10.1703 157.752 10.1955C152.47 10.2213 148.283 14.4107 148.094 19.6247L148.149 30.9548C148.155 32.2098 147.135 33.2404 145.878 33.2465L144.628 33.2526L144.511 9.38114Z" fill="#162447"/>
<path d="M120.78 13.354C124.544 9.51821 130.658 9.46461 134.489 13.235C135.961 14.671 136.87 16.4582 137.228 18.2788L118.136 18.4448C118.455 16.6171 119.33 14.8165 120.78 13.354ZM133.196 28.2172C129.437 30.7979 124.282 30.3992 120.897 27.0765C119.428 25.6305 118.521 23.7489 118.165 21.929L131.449 21.8136L140.733 21.7683C140.799 21.3404 140.851 20.8888 140.881 20.4273C140.922 16.8645 139.603 13.2922 136.928 10.6738C131.591 5.42536 123.427 5.61408 118.208 10.9124C113.08 16.1505 113.112 24.3809 118.379 29.5537C122.55 33.6487 128.542 34.4638 133.405 32.1027L133.566 31.9921C133.787 31.8805 137.108 30.2661 139.182 26.3533L137.098 26.0649C136.126 26.0696 135.187 26.4703 134.506 27.1645L133.196 28.2172Z" fill="#162447"/>
<path d="M223.978 18.9876C223.747 11.6731 217.652 6.08602 210.654 6.12013C203.168 6.15663 197.504 12.0375 197.54 19.4773C197.576 26.8042 203.398 32.6275 210.783 32.5915C213.026 32.5806 215.114 32.0307 216.944 31.0769L216.943 31.0577C216.94 30.2463 216.552 29.4851 215.903 29.0101C215.245 28.5243 214.406 28.3879 213.636 28.625C212.747 28.9057 211.803 29.0569 210.818 29.0617C205.492 29.0877 201.095 24.7267 201.069 19.4056C201.042 14.0268 205.398 9.68304 210.723 9.65707C215.999 9.63135 220.265 13.7742 220.457 19.004C220.458 19.0777 220.463 19.136 220.463 19.2066L220.518 30.4614C220.524 31.718 221.554 32.737 222.814 32.7309L224.064 32.7248L223.997 18.9867C223.991 18.9867 223.985 18.9868 223.978 18.9876Z" fill="#162447"/>
</svg>
