<svg width="225" height="28" viewBox="0 0 225 28" fill="none" xmlns="http://www.w3.org/2000/svg">
<path d="M0.73245 4.08218C0.72629 2.8187 1.74455 1.79199 3.00575 1.78585L4.25313 1.77976L4.27139 5.52497C6.63867 2.98177 10.0015 1.37867 13.9026 1.35966C18.6495 1.33651 23.0317 3.95428 25.3815 7.90227C27.6305 3.93185 31.8273 1.27225 36.8483 1.24777C43.958 1.21311 50.1572 6.99007 50.1937 14.4744L50.2582 27.7035L49.0085 27.7096C47.7465 27.7158 46.7245 26.7044 46.7183 25.4402L46.6649 14.4916C46.6387 9.11208 42.2373 4.75877 36.907 4.78477C31.6396 4.81047 27.4372 8.99998 27.2485 14.214L27.3148 27.8154L23.7922 27.8326L23.7259 14.2311C23.4786 9.01928 19.1327 4.87147 13.9782 4.89657C8.70079 4.92227 4.49921 9.11177 4.3143 14.3258L4.36949 25.6466C4.37566 26.9109 3.36045 27.9322 2.10078 27.9383L0.848792 27.9444L0.73245 4.08218Z" fill="white"/>
<path d="M76.7107 14.5097C76.6845 9.12872 72.3378 4.82432 66.966 4.85042C61.6303 4.87652 57.2867 9.22332 57.3129 14.6043C57.3389 19.9239 61.7249 24.2834 67.0607 24.2574C72.4325 24.2312 76.7366 19.8293 76.7107 14.5097ZM80.2381 14.5393C80.2739 21.8747 74.4539 27.7502 67.0241 27.7864C59.6358 27.8224 53.8156 22.0037 53.7798 14.6683C53.7436 7.23322 59.4069 1.35081 66.8951 1.3143C74.0124 1.2796 80.2016 7.05352 80.2381 14.5393Z" fill="white"/>
<path d="M84.3041 3.67595C84.298 2.41245 85.3155 1.38576 86.5782 1.3796L87.8317 1.37349L87.85 5.11871C90.2127 2.57552 93.5763 0.977022 97.4689 0.958042C104.594 0.923302 110.792 6.69561 110.829 14.1799L110.893 27.4091L109.646 27.4152C108.382 27.4213 107.36 26.41 107.354 25.1457L107.3 14.1971C107.274 8.81771 102.871 4.46441 97.5445 4.49031C92.2755 4.51601 88.0755 8.70091 87.8929 13.9195L87.9481 25.2403C87.9543 26.5046 86.9321 27.5259 85.6778 27.532L84.4205 27.5382L84.3041 3.67595Z" fill="white"/>
<path d="M144.511 3.38115C144.505 2.11765 145.523 1.09096 146.781 1.08483L148.033 1.07872L148.051 4.82391C150.413 2.28075 153.781 0.682234 157.684 0.663204C162.428 0.640074 166.814 3.25322 169.153 7.20131C171.404 3.23084 175.614 0.575784 180.623 0.551364C187.737 0.516674 193.937 6.28901 193.973 13.7733L194.038 27.0117L192.783 27.0178C191.526 27.0239 190.493 26.0034 190.487 24.7483L190.434 13.7906C190.407 8.41111 186.01 4.05781 180.691 4.08371C175.409 4.10941 171.217 8.29891 171.034 13.5128L171.1 27.1235L167.564 27.1408L167.498 13.5301C167.265 8.31821 162.92 4.17031 157.752 4.19551C152.47 4.22131 148.283 8.41071 148.094 13.6247L148.149 24.9548C148.155 26.2098 147.135 27.2404 145.878 27.2465L144.628 27.2526L144.511 3.38115Z" fill="white"/>
<path d="M120.78 7.35398C124.544 3.51819 130.658 3.46459 134.489 7.23498C135.961 8.67098 136.87 10.4582 137.228 12.2788L118.136 12.4448C118.455 10.6171 119.33 8.81648 120.78 7.35398ZM133.196 22.2172C129.437 24.7979 124.282 24.3992 120.897 21.0765C119.428 19.6305 118.521 17.7489 118.165 15.929L131.449 15.8136L140.733 15.7683C140.799 15.3404 140.851 14.8888 140.881 14.4273C140.922 10.8645 139.603 7.29218 136.928 4.67378C131.591 -0.574656 123.427 -0.385936 118.208 4.91238C113.08 10.1505 113.112 18.3809 118.379 23.5537C122.55 27.6487 128.542 28.4638 133.405 26.1027L133.566 25.9921C133.787 25.8805 137.108 24.2661 139.182 20.3533L137.098 20.0649C136.126 20.0696 135.187 20.4703 134.506 21.1645L133.196 22.2172Z" fill="white"/>
<path d="M223.978 12.9876C223.747 5.67312 217.652 0.0860405 210.654 0.12015C203.168 0.15665 197.504 6.03752 197.54 13.4773C197.576 20.8042 203.398 26.6275 210.783 26.5915C213.026 26.5806 215.114 26.0307 216.944 25.0769L216.943 25.0577C216.94 24.2463 216.552 23.4851 215.903 23.0101C215.245 22.5243 214.406 22.3879 213.636 22.625C212.747 22.9057 211.803 23.0569 210.818 23.0617C205.492 23.0877 201.095 18.7267 201.069 13.4056C201.042 8.02682 205.398 3.68306 210.723 3.65709C215.999 3.63137 220.265 7.77422 220.457 13.004C220.458 13.0777 220.463 13.136 220.463 13.2066L220.518 24.4614C220.524 25.718 221.554 26.737 222.814 26.7309L224.064 26.7248L223.997 12.9867C223.991 12.9867 223.985 12.9868 223.978 12.9876Z" fill="white"/>
</svg>
