<svg width="835" height="637" viewBox="0 0 835 637" fill="none" xmlns="http://www.w3.org/2000/svg">
<path d="M784.089 636.743C778.703 636.734 772.643 636.751 765.929 636.756C758.568 636.761 750.575 636.753 741.972 636.702C737.356 634.653 733.252 630.737 728.118 628.827C728.118 628.827 724.39 628.828 717.675 628.828C710.722 628.828 700.382 628.828 687.359 628.829C673.687 628.829 656.949 628.83 638.119 628.83C618.413 628.831 596.489 628.831 573.7 628.832C525.819 628.833 475.376 628.834 436.246 628.835C396.313 628.836 369.385 628.836 369.385 628.836C369.243 629.04 368.973 629.446 368.83 629.649C367.059 633.042 364.023 636.158 360.247 636.129C355.68 636.666 351.329 632.987 350.449 628.177C349.58 623.391 352.188 618.151 356.491 616.376C361.763 613.852 368.277 617.574 369.242 623.555C370.67 623.821 397.909 623.958 437.686 624.017C476.656 624.074 526.525 624.058 574.061 624.028C596.701 624.013 618.532 623.995 638.256 623.981C657.112 623.967 673.968 623.958 687.884 623.961C701.135 623.965 711.803 623.98 719.219 624.016C726.363 624.051 730.654 624.108 731.418 624.192C735.475 626.643 739.35 629.092 743.099 631.412C743.607 631.63 742.825 631.706 748.975 631.729C751.937 631.74 756.41 631.739 763.061 631.733C769.239 631.728 776.89 631.72 785.866 631.72C785.282 633.397 784.69 635.072 784.089 636.743Z" fill="#4794D4"/>
<path d="M782.297 627.379C780.44 633.671 781.021 637.85 783.533 635.084C785.502 633.134 788.09 627.435 789.376 622.444C796.843 612.287 803.44 602.282 809.175 591.333C809.833 590.077 810.064 590.65 810.448 590.516C810.448 590.516 812.581 590.519 815.061 590.525C816.674 590.53 817.473 590.542 816.723 590.546C814.428 590.557 810.595 590.561 806.718 590.566C801.988 590.572 798.366 590.575 798.366 590.575C798.812 588.855 799.248 587.133 799.676 585.408C799.676 585.408 803.407 585.407 808.255 585.403C812.199 585.4 816.039 585.398 818.245 585.392C818.812 585.39 817.736 585.383 815.853 585.38C813.052 585.377 810.676 585.375 810.676 585.375C804.826 596.53 797.882 607.507 790.069 618.099C789.975 611.003 784.66 618.867 782.297 627.379Z" fill="#4794D4"/>
<path d="M789.428 635.068C789.681 637.54 792.153 634.546 794.386 629.21C795.894 625.487 797.307 620.942 797.559 618.247C798.176 613.573 795.939 614.694 793.402 620.327C790.969 625.447 789.033 632.777 789.428 635.068Z" fill="#4794D4"/>
<path d="M790.222 618.664C782.347 618.664 774.438 618.676 766.783 618.691C758.402 618.708 750.747 618.728 743.871 618.745C729.063 618.783 718.892 618.807 712.115 618.769C697.91 618.688 699.846 618.353 699.596 617.311C690.983 591.799 678.997 566.071 664.262 540.716C664.262 540.716 654.691 540.72 639.935 540.725C624.719 540.731 603.754 540.739 582.067 540.746C536.747 540.761 489.227 540.776 489.227 540.776C487.841 541.018 489.345 543.081 474.356 525.498C459.118 507.623 425.939 469.44 351.214 389.855C324.136 389.852 297.056 389.849 270.052 389.846C268.71 390.008 266.902 389.264 267.093 387.494C267.088 381.752 267.321 376.012 267.377 370.282C255.559 365.004 259.672 351.306 267.653 349.312C273.795 347.244 280.564 353.288 279.708 360.178C279.726 364.919 276.133 368.612 272.214 370.145C272.106 374.98 272.035 379.814 271.971 384.655C298.627 384.561 325.351 384.629 352.071 384.621C352.796 384.51 350.878 381.975 367.487 399.505C375.813 408.292 388.833 422.088 408.929 443.913C428.925 465.632 455.929 494.825 489.524 535.515C489.524 535.515 537.161 535.513 582.589 535.511C604.327 535.51 625.339 535.509 640.589 535.508C655.377 535.507 664.969 535.507 664.969 535.507C666.018 535.356 665.734 534.064 670.623 542.654C675.446 551.131 686.554 568.544 700.484 607.562C701.565 609.572 701.586 613.618 703.746 613.6C723.061 613.407 740.587 613.394 756.281 613.444C770.089 613.488 781.936 613.588 791.814 613.584C791.292 615.28 790.761 616.973 790.222 618.664Z" fill="#4794D4"/>
<path d="M794.828 603.439C789.471 603.443 784.319 603.455 779.478 603.469C774.286 603.484 769.634 603.5 765.518 603.513C756.769 603.539 750.91 603.548 747.061 603.494C739.043 603.381 740.33 603.014 739.637 601.991C733.376 592.755 732.891 592.501 731.648 592.641C727.813 592.666 723.915 592.658 719.936 592.657C714.091 605.945 706.582 600.905 708.358 591.058C709.216 584.995 713.6 579.148 717.007 579.682C719.684 579.636 721.041 583.334 720.989 587.538C725.572 587.653 730.17 587.275 734.48 587.68C740.02 593.316 741.437 598.471 743.682 598.367C754.782 597.832 764.893 597.796 774.094 597.931C782.401 598.052 789.76 598.323 796.267 598.31C795.797 600.022 795.317 601.732 794.828 603.439Z" fill="#4794D4"/>
<path d="M370.291 595.702C368.719 600.051 365.118 603.304 360.797 603.812C356.037 603.634 351.92 600.084 350.821 595.071C350.871 592.808 350.853 590.409 351.969 588.365C355.568 580.876 366.416 579.566 370.314 590.35C399.251 590.747 427.969 590.408 456.29 590.542C457.432 574.442 458.426 558.203 459.121 541.866C458.921 541.556 458.721 541.247 458.52 540.938C458.094 540.369 392.062 466.973 347.363 419.818C316.979 419.827 286.618 419.766 256.389 419.844C249.178 427.574 242.061 435.382 234.816 443.024C205.293 443.003 176.179 443.022 147.578 443.03C119.589 443.037 92.3105 443.034 65.8396 442.964C59.808 435.072 53.7485 427.384 47.9601 419.551C45.8534 420.849 43.5196 422.021 41.2174 421.351C37.8681 420.678 35.4571 417.048 34.7698 412.909C34.3444 407.736 37.0027 402.297 40.9479 400.463C45.4135 398.397 50.4959 401.767 51.4734 407.451C51.9211 410.071 51.3868 412.788 50.892 415.395C56.4838 422.808 62.1625 430.285 68.0051 437.71C120.366 437.674 175.407 437.794 232.387 437.649C239.768 430.664 246.459 422.725 253.56 415.343C254.519 414.348 255.918 414.68 257.07 414.551C305.221 414.653 345.416 414.398 349.607 414.87C380.039 446.431 410.002 478.276 438.679 510.468C464.295 539.225 464.325 538.231 463.896 541.321C463.067 558.62 462.081 575.788 460.731 592.808C460.791 594.447 459.341 595.884 457.905 595.686C452.091 595.719 373.33 595.721 370.291 595.702Z" fill="#4794D4"/>
<path d="M756.48 593.698C755.074 595.372 753.755 595.411 752.523 595.478C750.697 594.294 749.817 590.205 750.936 585.257C752.025 579.58 755.503 574.179 758.092 574.445C760.328 574.115 761.447 577.747 761.107 582.129C763.068 582.287 773.379 582.349 782.858 582.342C791.288 582.336 798.777 582.266 800.439 582.162C800.006 583.954 799.564 585.743 799.113 587.53C799.113 587.53 791.261 587.526 782.107 587.522C771.677 587.517 760 587.513 760 587.513C758.944 589.81 757.838 592.326 756.48 593.698Z" fill="#4794D4"/>
<path d="M641.472 577.116C636.916 578.85 632.698 574.673 632.987 568.521C633.011 562.378 637.742 555.927 642.271 556.337C646.362 555.997 649.232 561.196 648.472 566.767C647.829 571.438 644.867 575.815 641.472 577.116Z" fill="#4794D4"/>
<path d="M616.861 577.149C612.6 578.629 608.381 575.46 607.93 570.028C606.999 563.597 612.106 556.056 617.255 556.32C621.341 555.996 624.438 560.521 624.138 565.822C623.849 570.816 620.673 575.817 616.861 577.149Z" fill="#4794D4"/>
<path d="M591.044 577.174C585.929 578.927 581.094 574.077 581.656 567.618C581.849 561.533 586.942 555.723 591.736 556.337C596.544 556.301 599.79 562.551 598.14 568.521C597.321 572.638 594.251 576.069 591.044 577.174Z" fill="#4794D4"/>
<path d="M810.328 563.839C811.891 568.185 813.013 572.793 813.867 576.906C814.18 577.007 813.498 577.057 817.213 577.086C818.59 577.097 821.652 577.103 820.882 577.103C820.507 577.103 819.407 577.101 817.184 577.1C813.968 577.097 809.021 577.094 801.67 577.09C802.084 575.299 802.489 573.506 802.884 571.711C803.002 571.752 806.599 571.79 811.269 571.824C815.111 571.852 818.927 571.875 821.273 571.884C822.119 571.887 821.461 571.873 819.948 571.847C817.557 571.806 815.409 571.755 815.21 571.669C814.511 568.525 814.598 566.812 811.71 559.037C814.41 544.514 810.889 544.005 808.255 552.675C805.645 560.661 805.285 572.034 808.824 567.12C809.327 566.084 809.826 564.962 810.328 563.839Z" fill="#4794D4"/>
<path d="M619.222 571.19C621.43 566.746 621.628 560.808 618.935 557.701C613.751 550.695 602.685 559.039 604.847 570.71C607.581 578.709 615.006 578.245 619.222 571.19Z" fill="#4794D4"/>
<path d="M633.215 575.629C637.021 578.423 643.067 574.644 644.876 568.36C646.923 562.366 644.271 555.952 639.947 555.286C635.651 554.637 630.576 559.818 630.086 565.94C629.303 570.073 630.832 573.871 633.215 575.629Z" fill="#4794D4"/>
<path d="M369.329 565.814C366.149 570.329 359.825 571.823 355.561 568.461C350.95 565.326 350.055 558.075 353.207 553.312C354.743 551.386 356.785 550.071 358.897 549.017C359.085 528.624 359.304 508.123 359.413 487.531C357.185 485.071 349.262 476.467 342.958 469.729C342.012 468.718 340.984 467.435 339.457 467.735C264.712 467.796 269.191 467.996 266.613 466.906C266.498 461.564 266.544 456.211 266.552 450.868C263.767 449.478 260.86 447.665 259.688 444.386C257.091 438.493 260.632 430.746 266.562 429.387C272.553 427.54 279.306 433.076 278.94 439.873C279.273 444.974 275.62 449.044 271.444 450.721C271.438 454.649 271.453 458.577 271.434 462.505C271.711 462.459 271.988 462.413 272.265 462.367C295.882 462.625 319.559 462.35 343.243 462.496C350.258 470.27 357.513 477.749 364.439 485.557C364.314 506.791 364.124 527.948 363.882 548.975C365.724 550.132 367.905 551.099 369.234 553.15C371.872 556.718 371.671 562.055 369.329 565.814Z" fill="#4794D4"/>
<path d="M803.853 567.062C803.853 567.062 800.032 567.059 793.674 567.055C786.572 567.051 775.964 567.046 764.084 567.041C750.964 567.035 736.642 567.03 725.135 567.026C712.993 567.022 704.554 567.02 704.554 567.02C702.969 567.415 702.387 565.17 701.669 563.644C701.648 563.599 696.025 551.059 689.378 538.412C682.598 525.519 674.796 512.532 674.081 511.505C674.081 511.505 664.093 511.502 648.656 511.496C632.695 511.49 610.643 511.483 587.77 511.475C539.821 511.46 489.396 511.445 489.396 511.445C488.29 509.904 456.079 472.296 422.139 435.496C387.91 398.384 353.549 362.294 353.503 362.245C339.325 362.372 325.142 362.152 310.95 362.356C309.614 366.811 305.735 370.464 301.233 370.281C295.779 370.564 290.903 365.148 291.358 359.304C291.275 348.415 306.772 343.919 311.063 357.018C325.825 357.221 340.608 356.858 355.349 357.188C356.447 358.026 391.5 394.754 425.842 431.977C459.9 468.896 491.689 506.077 491.726 506.121C544.93 506.174 582.307 506.136 608.699 506.088C634.021 506.043 649.669 505.989 659.482 506.021C678.452 506.085 676.499 506.486 677.255 507.951C687.702 525.347 696.994 542.85 704.862 560.424C705.774 563.307 708.93 560.895 716.863 561.785C724.039 561.647 733.902 561.581 744.439 561.563C754.378 561.547 764.694 561.574 773.861 561.621C782.3 561.664 789.683 561.726 795.111 561.775C800.088 561.82 803.542 561.856 804.926 561.845C804.577 563.585 804.219 565.324 803.853 567.062Z" fill="#4794D4"/>
<path d="M817.349 560.323C817.349 560.323 819.547 560.324 822.108 560.326C823.782 560.327 824.632 560.331 823.899 560.332C821.586 560.335 817.698 560.336 813.757 560.337C808.945 560.339 805.257 560.34 805.257 560.34C805.601 558.595 805.937 556.849 806.263 555.1C806.263 555.1 809.93 555.097 814.722 555.092C818.654 555.088 822.551 555.084 824.896 555.075C825.684 555.071 824.912 555.061 823.309 555.057C820.834 555.052 818.7 555.049 818.7 555.049C818.648 553.523 817.322 532.962 816.663 528.077C818.004 520.788 818.134 515.714 816.836 513.103C815.577 511.656 813.629 516.009 812.583 522.096C811.15 532.872 812.851 537.648 815.334 532.332C815.667 534.592 817.346 556.808 817.349 560.323Z" fill="#4794D4"/>
<path d="M806.859 551.675C806.107 551.683 803.563 551.69 799.912 551.696C795.999 551.702 790.715 551.707 785.046 551.713C772.516 551.726 758.544 551.738 756.266 551.759C736.495 551.943 726.174 552.13 720.931 552.017C715.57 551.9 715.779 551.471 715.374 550.385C704.665 526.158 691.331 501.985 675.864 478.228C675.864 478.228 667.373 478.233 654.306 478.241C640.856 478.248 622.354 478.258 603.236 478.267C563.315 478.287 521.421 478.306 521.421 478.306C516.977 491.939 502.548 486.901 502.778 476.175C502.314 469.401 508.361 463.51 514.045 465.017C517.698 465.701 520.389 469.124 521.471 473.061C521.471 473.061 563.537 473.071 603.613 473.082C622.8 473.088 641.366 473.093 654.86 473.097C667.967 473.101 676.483 473.104 676.483 473.104C677.527 472.899 678.251 474.06 678.892 475.037C694.186 498.362 707.297 522.266 717.828 546.265C718.877 546.262 726.067 546.254 736.099 546.243C745.658 546.232 757.447 546.22 768.618 546.21C778.872 546.2 788.383 546.192 795.408 546.191C801.755 546.19 806.204 546.196 807.812 546.214C807.503 548.036 807.186 549.856 806.859 551.675Z" fill="#4794D4"/>
<path d="M37.2519 542.981C39.5474 551.705 50.5695 555.841 53.5824 543.194C92.4344 543.171 122.226 543.171 144.786 543.176C167.764 543.182 182.8 543.193 192.71 543.193C212.69 543.193 211.536 543.15 214.02 542.929C222.414 533.565 267.497 483.484 312.261 435.435C356.846 387.579 397.712 342.226 398.791 341.26C398.793 339.168 397.441 337.674 396.081 336.357C395.084 337.431 355.417 381.483 311.485 428.619C267.304 476.023 222.078 526.072 211.703 537.896C183.852 537.819 156.455 537.817 129.602 537.826C103.377 537.836 77.869 537.858 53.157 537.827C51.5694 533.224 47.9246 529.422 44.0238 529.667C38.8777 529.529 35.2153 536.604 37.2519 542.981Z" fill="#4794D4"/>
<path d="M821.509 542.121C821.439 543.141 821.176 543.513 822.83 543.627C824.242 543.724 828.721 543.548 827.606 543.483C826.588 543.423 824.67 543.502 821.881 543.514C818.215 543.529 813.689 543.49 808.327 543.321C808.604 541.624 808.874 539.927 809.134 538.228C816.274 538.221 821.167 538.218 824.426 538.217C826.765 538.217 828.022 538.216 828.567 538.221C828.909 538.224 827.007 538.233 825.815 538.229C822.473 538.218 822.926 538.161 822.707 537.938C823.178 519.377 821.953 500.225 818.893 481.574C818.882 481.574 813.807 481.461 808.034 481.359C801.573 481.246 794.431 481.144 794.414 481.143C794.191 478.314 793.578 476.035 792.796 474.174C789.136 469.763 785.761 477.764 786.09 487.04C787.579 498.401 792.585 496.087 794.147 486.583C803.288 486.624 811.287 486.59 818.096 486.91C819.123 493.848 822.096 523.661 821.509 542.121Z" fill="#4794D4"/>
<path d="M826.258 526.315C826.258 526.315 827.746 526.315 829.365 526.314C830.247 526.313 830.274 526.311 828.987 526.31C826.391 526.309 822.491 526.308 818.717 526.307C814.222 526.307 810.827 526.306 810.827 526.306C811.054 524.564 811.273 522.82 811.483 521.076C811.483 521.076 814.843 521.076 819.301 521.077C823.053 521.078 826.949 521.079 829.572 521.08C830.915 521.081 830.975 521.083 830.177 521.083C828.659 521.084 827.247 521.085 827.247 521.085C827.877 501.558 826.716 481.914 823.867 462.324C821.55 462.351 815.3 462.375 805.691 462.391C800.196 462.401 793.588 462.408 786.116 462.414C778.058 462.42 769.06 462.425 759.55 462.427C738.787 462.432 716.279 462.427 697.417 462.413C677.395 462.398 662.488 462.372 659.07 462.333C658.992 462.125 658.915 461.918 658.837 461.711C655.625 450.504 646.053 452.379 643.887 461.521C643.322 463.923 643.545 466.467 643.863 468.876C647.371 478.747 655.973 477.261 658.404 469.117C658.821 468.102 658.678 468.444 659.032 467.607C659.032 467.607 674.218 467.605 695.934 467.601C706.293 467.599 717.941 467.598 729.884 467.596C741.255 467.594 752.734 467.591 763.525 467.589C773.61 467.587 782.974 467.585 791.083 467.583C798.534 467.581 804.884 467.579 809.857 467.577C814.391 467.576 817.832 467.574 820.056 467.573C822.128 467.573 823.243 467.572 823.243 467.572C823.502 469.167 827.717 488.543 826.258 526.315Z" fill="#4794D4"/>
<path d="M811.085 524.03C811.085 524.03 807.829 524.041 802.493 524.051C796.616 524.062 787.941 524.071 778.288 524.069C767.713 524.067 756.185 524.053 746.83 524.019C736.974 523.982 729.947 523.923 729.454 523.833C728.436 521.825 719.149 501.921 708.192 482.883C696.953 463.358 684.304 444.763 684.254 444.688C683.618 443.575 682.705 443.041 681.739 443.187C681.722 443.187 670.742 443.198 653.655 443.209C635.91 443.22 611.257 443.23 585.457 443.228C531.138 443.224 473.288 443.168 470.994 442.98C466.043 437.96 422.604 390.68 352.774 317.064C311.407 317.089 270.118 317.123 229.214 317.03C227.347 347.84 226.421 379.093 225.776 410.646C226.074 412.349 224.63 413.817 223.118 413.578C175.681 413.572 129.608 413.567 85.3233 413.561C80.7129 426.468 68.8425 422.824 67.8941 413.156C67.0018 407.09 71.283 400.819 76.3133 400.221C80.7131 399.707 84.4694 403.494 85.5271 408.455C107.259 408.437 139.374 408.441 167.123 408.444C195.397 408.447 218.723 408.449 221.007 408.429C221.637 376.893 222.769 345.666 224.655 314.891C224.563 313.126 226.08 311.737 227.628 312C361.655 311.915 353.353 311.956 354.55 312.132C355.413 312.67 354.088 311.135 367.888 325.591C381.811 340.177 412.217 370.342 473.121 437.958C534.691 437.903 577.815 437.821 608.121 437.761C637.041 437.704 654.798 437.667 665.863 437.706C687.134 437.781 684.821 438.152 685.456 439.217C688.046 442.955 700.183 460.927 710.701 479.191C720.972 497.032 729.518 515.122 731.052 518.487C733.684 518.743 733.227 518.774 745.492 518.742C751.345 518.726 759.87 518.696 772.215 518.67C777.976 518.657 784.403 518.646 791.48 518.639C798.002 518.633 804.818 518.629 811.738 518.633C811.53 520.433 811.312 522.232 811.085 524.03Z" fill="#4794D4"/>
<path d="M141.452 515.737C138.776 521.227 131.75 522.366 127.436 518.189C124.649 515.483 123.518 511.137 124.011 507.17C124.909 503.43 127.408 500.601 130.552 499.363C130.435 494.646 130.299 489.918 130.231 485.187C130.177 485.187 111.108 485.219 92.0326 485.214C73.3553 485.209 54.7661 485.164 53.3473 485.014C48.6614 479.527 34.9522 462.044 22.9992 445.402C11.2532 429.046 1.23362 413.544 0.228752 412.444C5.83011 312.982 21.4635 269.198 27.1302 249.23C32.7397 229.47 32.1289 232.518 32.3301 231.987C33.0088 230.493 34.2678 230.124 35.1982 230.153C41.8897 230.363 48.8127 230.153 55.7598 230.161C57.4479 227.525 59.4694 224.818 61.948 223.704C66.4018 221.379 70.5433 224.11 70.4389 229.31C70.6259 234.408 66.3848 240.664 61.9394 242.057C58.414 243.391 55.5163 241.34 54.5818 237.956C54.536 236.95 54.4913 235.931 54.4609 234.897C47.861 234.899 41.3483 234.902 34.9248 234.905C18.4825 289.128 8.37654 346.675 4.59217 405.449C4.65232 409.386 3.33623 408.477 6.13782 412.979C8.95579 417.505 15.7016 427.782 34.4163 453.217C37.2973 457.132 52.8822 477.274 54.9937 479.789C80.4533 480.026 106.716 479.732 133.692 479.927C135.101 483.039 134.509 479.735 135.125 499.251C136.368 499.947 137.611 500.627 138.813 501.384C142.49 504.83 143.704 511.094 141.452 515.737Z" fill="#4794D4"/>
<path d="M112.339 515.196C110.79 519.016 107.169 521.34 103.503 520.674C100.828 520.569 98.6367 518.353 96.7383 516.208C89.4458 499.716 108.414 492.223 113.023 507.599C113.085 510.158 113.4 512.912 112.339 515.196Z" fill="#4794D4"/>
<path d="M174.203 508.818C174.664 515.052 169.56 520.583 164.048 519.74C158.083 519.322 153.639 511.873 155.305 505.51C156.189 503.283 157.336 501.022 159.32 499.869C160.268 498.975 162.217 498.691 161.969 496.858C161.8 487.135 161.567 477.399 161.559 467.657C127.14 467.513 93.7313 467.676 61.5156 467.571C59.7715 467.779 59.8292 467.614 42.126 445.188C16.9747 413.322 19.3251 415.14 17.5947 412.124C17.8621 405.861 19.2932 382.421 21.9096 359.985C24.5138 337.672 28.2249 316.433 28.8406 313.44C32.0641 309.849 62.3726 279.804 67.5252 275.135C68.1403 275.07 63.5825 274.952 95.41 274.889C111.849 274.857 138.344 274.839 181.372 274.847C225.71 274.855 287.574 274.89 372.763 274.965C372.888 275.091 471.69 374.665 478.406 381.409C479.901 381.572 477.326 381.648 504.455 381.677C517.806 381.691 538.148 381.693 568.93 381.688C583.9 381.686 601.149 381.681 620.901 381.676C639.983 381.671 661.073 381.664 684.113 381.656C686.17 382.004 688.537 380.536 690.332 383.253C704.244 400.541 717.143 418.087 728.753 435.913C733.426 435.874 740.73 435.858 749.301 435.852C757.497 435.847 766.675 435.852 775.663 435.855C784.05 435.858 792.127 435.86 799.087 435.846C805.446 435.833 810.83 435.807 814.81 435.749C814.884 437.561 814.949 439.372 815.005 441.184C814.113 441.2 810.269 441.212 804.473 441.219C798.083 441.227 789.111 441.23 779.261 441.229C768.51 441.229 756.94 441.225 747.397 441.217C737.356 441.209 729.948 441.198 728.541 441.184C727.935 441.329 728.289 442.117 724.066 435.82C719.808 429.469 711.134 415.516 688.867 387.775C688.5 387.245 680.284 386.953 667.023 386.814C653.315 386.671 633.953 386.679 612.121 386.728C589.465 386.779 564.212 386.873 540.394 386.911C515.974 386.95 493.348 386.93 477.051 386.757C474.647 384.992 370.927 279.812 370.84 279.724C370.84 279.724 291.821 279.726 213.667 279.728C175.58 279.729 138.5 279.73 111.503 279.731C85.3184 279.732 68.3625 279.732 68.3625 279.732C29.9971 316.526 31.9033 315.201 31.8224 317.37C26.7588 347.685 23.2478 378.566 21.5802 409.709C22.8155 411.927 56.7693 455.893 62.1466 462.254C94.3707 462.113 127.772 462.27 162.183 462.176C163.793 462.047 166.228 462.495 166.126 464.869C166.282 475.993 166.268 487.117 166.685 498.208C166.917 498.352 167.149 498.495 167.381 498.638C171.108 500.269 174.14 504.221 174.203 508.818Z" fill="#4794D4"/>
<path d="M488.007 508.509C492.403 511.419 498.496 509.104 501.086 504.04C503.957 497.216 501.609 489.966 494.153 487.996C481.831 487.782 480.066 504.059 488.007 508.509Z" fill="#4794D4"/>
<path d="M803.767 497.357C801.842 507.58 798.032 507.846 796.845 499.758C796.302 487.401 800.315 481.178 802.554 484.626C803.521 485.829 803.962 488.831 804.169 491.83C807.712 491.905 811.034 492.064 814.156 491.761C814.039 493.581 813.912 495.401 813.776 497.22C810.656 497.335 807.342 497.091 803.767 497.357Z" fill="#4794D4"/>
<path d="M774.35 504.909C771.323 507.19 768.287 502.084 768.718 495.154C768.84 489.35 771.321 483.788 773.923 483.695C776.406 483.136 778.429 487.829 778.357 493.346C778.288 498.318 776.512 503.272 774.35 504.909Z" fill="#4794D4"/>
<path d="M831.087 505.038C831.332 507.505 832.191 503.297 832.74 496.763C833.298 490.445 833.356 483.759 832.895 484.109C832.475 483.726 831.73 489.247 831.333 495.102C831.008 499.458 830.928 503.424 831.087 505.038Z" fill="#4794D4"/>
<path d="M833.335 496.023C832.843 502.728 832.565 507.577 832.833 505.175C833.044 503.33 833.599 496.507 833.977 490.839C834.186 487.265 834.324 483.073 834.29 479.883C832.538 479.478 829.073 479.833 824.03 479.797C822.941 472.165 821.595 464.305 819.909 456.669C818.438 456.88 816.899 456.487 815.29 456.876C815.288 455.049 815.276 453.221 815.255 451.394C817.069 451.344 818.796 451.493 820.433 451.325C820.827 453.191 824.446 473.387 824.711 474.414C827.485 474.492 830.485 474.488 832.39 474.454C833.744 474.43 834.432 474.381 834.5 474.414C834.575 474.182 834.568 475.636 834.56 476.777C834.537 480.049 834.436 483.238 834.249 486.487C834.317 485.254 834.371 483.98 834.333 484.108C834.281 483.587 833.774 489.816 833.335 496.023Z" fill="#4794D4"/>
<path d="M488.015 473.871C497.042 479.451 505.996 469.208 501.709 459.363C500.37 456.304 497.551 454.962 495.662 453.631C495.555 444.162 495.57 434.689 495.293 425.225C495.482 423.537 494.201 421.98 492.709 422.211C485.941 422.107 479.155 422.279 472.338 422.133C469.753 414.623 462.962 411.349 456.575 416.176C455.662 417.243 454.801 418.354 454.025 419.498C451.62 424.972 453.736 432.464 459.05 434.767C464.035 437.501 470.178 434.217 472.013 428.637C472.173 428.292 472.334 427.948 472.494 427.603C478.581 427.346 484.66 427.577 490.715 427.474C490.82 431.558 490.985 444.79 491.023 453.751C488.449 455.064 485.758 456.766 484.654 459.897C482.434 464.754 484.193 470.844 488.015 473.871Z" fill="#4794D4"/>
<path d="M832.751 464.249C832.818 473.293 833.741 478.429 834.257 464.741C834.968 464.779 834.841 464.792 833.882 464.786C832.091 464.775 829.47 464.773 826.022 464.819C825.838 464.689 825.572 465.091 825.417 464.162C824.332 457.659 823.096 450.775 821.571 444.266C821.321 442.922 821.387 443.085 815.097 443.222C815.05 441.458 814.994 439.696 814.929 437.933C817.344 438.133 819.61 437.514 821.706 438.218C823.413 445.092 824.793 452.468 825.977 459.475C825.977 459.475 827.381 459.475 829.267 459.475C830.889 459.475 832.64 459.475 833.919 459.475C834.724 459.475 835.056 459.475 834.993 459.475C834.663 459.475 834.295 459.475 834.295 459.475C834.126 448.995 833.301 449.367 832.928 456.574C832.809 458.875 832.781 461.642 832.751 464.249Z" fill="#4794D4"/>
<path d="M459.666 469.41C465.286 471.758 472.19 467.374 472.731 460.588C473.69 454.34 468.768 448.274 463.155 448.227C458.042 448.194 453.236 453.061 453.351 458.845C453.041 463.446 455.857 467.81 459.666 469.41Z" fill="#4794D4"/>
<path d="M815.162 467.589C804.973 467.675 792.757 467.45 778.561 467.323C762.445 467.18 744.476 467.141 724.725 467.494C723.891 467.508 723.047 467.363 722.249 466.889C721.073 464.852 713.029 451.659 704.488 439.144C695.811 426.432 686.748 414.413 686.622 414.249C685.992 413.428 688.511 413.167 667.329 413.122C656.302 413.098 638.535 413.13 609.481 413.171C579.002 413.213 535.521 413.265 473.29 413.286C470.792 413.762 472.387 413.602 434.605 374.273C409.493 348.136 384.334 322.43 359.776 296.862C311.629 296.851 263.6 296.84 216.164 296.829C214.269 323.397 212.71 350.377 211.893 377.665C210.936 378.662 209.78 379.429 208.426 379.2C208.426 379.2 167.834 379.194 128.325 379.187C90.1736 379.181 53.6461 379.175 53.6461 379.175C49.2869 390.624 39.3942 388.992 37.426 380.66C36.0862 374.938 39.4756 367.942 44.2669 366.202C48.988 364.499 53.3021 368.406 54.1557 374.01C102.705 374.01 153.936 374.01 207.227 374.01C210.504 288.384 211.345 293.644 213.252 291.669C367.352 292.376 360.311 290.48 362.645 292.935C385.564 316.978 471.958 406.543 473.244 407.914C473.244 407.914 488.124 407.913 510.15 407.91C531.779 407.908 559.921 407.905 587.171 407.901C613.426 407.898 638.586 407.895 656.68 407.892C674.066 407.89 685.246 407.888 685.246 407.888C686.502 407.684 687.659 408.678 688.562 410.062C701.332 427.157 713.269 444.199 723.742 461.841C724.784 462.669 725.627 462.604 740.822 462.395C748.036 462.296 758.187 462.165 772.173 462.095C778.674 462.062 785.812 462.043 793.54 462.055C800.633 462.066 807.939 462.099 815.237 462.186C815.221 463.988 815.196 465.788 815.162 467.589Z" fill="#4794D4"/>
<path d="M830.059 448.529C829.791 454.426 828.603 455.903 827.766 451.844C827.053 448.374 826.771 442.032 827.014 437.338C826.278 433.366 825.458 429.442 824.561 425.535C821.553 425.498 818.142 425.527 814.325 425.527C814.22 423.775 814.105 422.024 813.982 420.274C817.996 420.306 821.55 420.185 824.667 420.334C825.7 424.745 826.629 429.235 827.474 433.595C829.244 429.062 830.481 441.13 830.059 448.529Z" fill="#4794D4"/>
<path d="M834.861 445.439C834.974 451.99 834.715 453.636 834.406 448.288C834.231 445.732 834.095 441.686 833.973 438.019C832.632 428.007 830.014 417.527 826.31 408.033C822.647 407.629 818.226 408.005 812.964 407.862C812.799 406.106 812.625 404.352 812.443 402.598C820.53 402.571 823.609 402.473 824.952 402.57C826.182 402.66 826.153 402.94 826.385 403.645C830.006 413.432 832.543 423.16 833.88 433.275C833.991 423.398 834.728 436.91 834.861 445.439Z" fill="#4794D4"/>
<path d="M304.741 449.997C298.946 452.813 291.493 448.374 290.826 441.539C290.046 436.441 293.09 431.064 297.735 429.612C302.729 427.695 308.619 430.931 310.383 436.277C312.118 441.567 309.624 447.964 304.741 449.997Z" fill="#4794D4"/>
<path d="M672.057 436.588C676.393 438.668 681.188 433.594 681.046 426.94C681.229 420.885 677.281 415.099 673.215 415.29C669.883 415.181 666.988 418.82 666.388 423.562C665.699 429.052 668.266 435.179 672.057 436.588Z" fill="#4794D4"/>
<path d="M641.939 426.13C642.008 432.232 646.302 437.425 650.659 437.01C658.524 436.236 660.568 420.312 651.424 415.489C650.44 397.264 650.693 389.056 647.114 359.229C646.823 358.925 646.244 358.315 645.958 358.01C620.499 358.021 597.403 358.029 576.664 358.036C555.328 358.043 536.813 358.047 520.831 358.049C488.168 358.053 466.802 358.045 452.915 358.021C424.834 357.974 427.992 357.866 426.862 357.654C426.273 358.73 425.463 359.696 425.668 361.026C426.045 370.673 426.364 380.353 426.627 390.061C426.49 391.319 427.179 392.329 427.836 393.288C435.985 392.981 444.136 393.279 452.24 393.1C453.408 395.566 454.741 398.034 456.826 399.716C460.848 402.516 466.318 401.803 469.283 397.856C473.126 393.308 471.867 384.898 466.882 381.565C464.257 379.407 460.926 379.74 458.009 380.268C455.222 381.884 453.208 384.633 452.104 387.888C445.13 387.743 438.152 387.999 431.142 387.709C431.138 379.611 430.758 371.516 430.36 363.452C447.276 363.304 488.361 363.261 532.036 363.251C573.886 363.241 616.931 363.263 643.855 363.24C644.624 370.23 646.993 401.403 647.522 415.437C644.258 416.863 641.598 421.073 641.939 426.13Z" fill="#4794D4"/>
<path d="M692.321 434.707C695.102 438.129 699.062 437.534 701.446 434.086C702.228 432.332 702.752 430.362 703.254 428.759C708.311 428.742 723.509 428.724 742.382 428.709C751.222 428.702 760.67 428.696 770.04 428.691C778.813 428.687 787.364 428.684 795.191 428.684C802.328 428.683 808.734 428.685 814.123 428.69C818.885 428.695 822.775 428.703 825.711 428.715C830.293 428.735 832.492 428.775 832.825 428.836C833.146 421.458 833.031 414.137 832.435 406.505C829.424 376.558 823.77 346.857 815.548 317.895C815.64 317.833 815.464 317.783 815.148 317.828C815.066 317.84 814.894 317.579 815.129 318.75C817.055 328.988 817.684 339.328 817.051 349.751C817.034 350.424 817.136 350.624 815.98 350.667C814.731 350.714 811.828 350.61 804.43 350.662C804.073 348.926 803.707 347.192 803.333 345.459C810.36 345.443 813.09 345.487 814.309 345.463C815.444 345.44 815.408 345.349 815.664 345.055C816.866 325.684 813.635 313.903 813.464 312.895C813.956 312.706 814.198 312.848 813.96 312.779C815.909 319.382 821.913 341.189 825.872 362.004C829.829 382.82 831.909 402.524 832.044 403.792C832.405 408.871 832.721 412.495 832.412 422.788C832.396 423.049 832.493 423.227 832.214 423.335C831.912 423.452 831.098 423.501 828.678 423.514C827.191 423.522 825.01 423.52 821.767 423.513C818.029 423.505 812.796 423.491 805.422 423.476C796.982 423.459 785.663 423.441 770.457 423.424C762.128 423.415 752.632 423.406 741.808 423.397C730.378 423.389 717.48 423.381 702.937 423.374C701.837 419.634 699.85 416.537 697.311 415.411C688.639 413.651 687.008 428.92 692.321 434.707Z" fill="#4794D4"/>
<path d="M814.611 431.361C811.558 431.425 806.366 431.456 799.801 431.469C792.572 431.484 783.657 431.479 774.498 431.469C764.632 431.457 754.721 431.438 746.919 431.423C738.788 431.407 733.224 431.395 732.606 431.396C731.107 431.8 730.048 429.478 729.02 427.802C717.62 409.226 704.931 390.927 691.27 372.817C691.27 372.817 680.692 372.815 664.219 372.813C647.05 372.811 623.135 372.808 598.132 372.805C572.13 372.801 545.224 372.798 524.511 372.796C503.387 372.794 489.098 372.792 489.098 372.792C488.266 372.928 487.526 372.671 486.875 372.035C486.02 371.195 470.316 353.584 467.532 350.013C466.236 338.148 465.851 326.273 464.728 314.518C462.476 313.416 460.105 312.099 458.716 309.66C454.943 303.959 456.503 293.395 466.885 293.883C478.353 297.691 477.357 311.999 469.332 314.493C470.075 324.882 470.998 335.332 471.651 345.838C471.488 348.215 473.492 349.683 474.786 351.27C479.736 356.456 484.203 362.206 489.19 367.315C491.283 367.841 493.41 367.519 495.49 367.552C553.29 368.485 593.559 368.921 621.743 369.048C648.562 369.169 664.954 369.008 675.137 368.8C694.671 368.4 692.463 367.822 693.281 369.117C707.487 387.774 720.6 406.735 732.311 426.009C755.352 425.877 768.066 425.844 780.007 425.85C785.556 425.853 790.881 425.864 796.745 425.873C802.197 425.881 807.935 425.888 814.313 425.88C814.422 427.706 814.522 429.534 814.611 431.361Z" fill="#4794D4"/>
<path d="M832.372 405.474C833.072 412.268 833.397 417.753 833.015 415.781C832.783 414.788 832.303 410.74 831.834 406.557C829.459 398.572 826.56 395.144 825.314 393.444C824.033 391.696 823.99 391.962 823.644 392.132C820.195 392.264 816.032 392.027 811.264 392.243C811.042 390.448 810.811 388.654 810.57 386.862C818.179 386.862 821.153 386.826 822.522 386.858C823.78 386.888 823.857 386.983 824.237 387.246C827.493 392.223 829.859 396.337 831.306 401.277C830.265 388.505 831.402 395.926 832.372 405.474Z" fill="#4794D4"/>
<path d="M813.435 413.578C813.264 413.581 810.225 413.587 805.306 413.593C799.923 413.599 792.062 413.606 783.226 413.608C773.578 413.612 762.926 413.611 753.823 413.605C744.216 413.598 736.685 413.584 734.362 413.561C706.961 370.459 703.952 369.857 696.531 360.304C695.143 358.819 693.879 356.241 692.248 355.842C692.248 355.842 682.18 355.84 666.508 355.837C650.178 355.833 627.438 355.829 603.663 355.825C578.934 355.821 553.335 355.816 533.618 355.813C513.499 355.81 499.881 355.808 499.881 355.808C498.311 356.144 497.155 354.294 497.277 352.637C496.35 339.849 495.251 327.141 493.978 314.526C483.23 310.201 484.288 296.928 491.369 294.308C496.131 292.56 501.922 296.443 503.791 302.067C504.366 304.832 504.425 307.778 503.229 310.081C502.235 312.324 500.217 313.5 498.351 314.676C499.889 328.524 501.169 346.3 501.687 350.637C501.687 350.637 515.291 350.641 535.387 350.648C555.074 350.654 580.624 350.662 605.292 350.671C628.996 350.679 651.653 350.688 667.913 350.694C683.508 350.7 693.522 350.705 693.522 350.705C708.779 369.485 722.756 388.934 735.387 408.507C738.22 408.429 745.779 408.397 755.173 408.388C764.072 408.379 774.328 408.393 783.599 408.405C792.106 408.416 799.667 408.427 804.891 408.408C809.677 408.391 812.675 408.345 812.966 408.249C813.132 410.025 813.288 411.801 813.435 413.578Z" fill="#4794D4"/>
<path d="M708.394 407.278C709.36 408.508 707.965 408.972 723.585 409.074C731.05 409.123 742.107 409.085 758.118 408.996C765.585 408.954 773.908 408.902 783.048 408.842C791.452 408.787 800.199 408.727 809.019 408.661C814.332 408.622 818.989 408.643 822.973 408.642C826.281 408.641 828.91 408.644 830.839 408.473C830.903 407.244 831.269 407.917 830.503 394.932C830.454 394.273 830.442 393.716 830.286 392.543C826.384 362.083 819.734 331.962 810.447 302.693C811.005 302.738 811.049 302.79 810.496 302.702C810.442 302.693 810.417 302.346 811.169 306.036C811.919 309.713 814.088 317.464 813.503 333.718C813.46 334.906 813.548 336.706 813.05 336.458C809.724 336.412 805.823 336.472 801.299 336.425C800.897 334.711 800.487 332.999 800.069 331.29C804.595 331.212 808.6 331.477 811.854 331.173C812.397 321.601 811.522 311.369 809.588 301.699C809.369 300.399 808.644 297.741 808.841 297.807C809.586 298.065 809.341 297.8 808.627 297.856C818.528 328.032 825.624 359.155 829.766 390.634C830.098 395.23 830.148 398.961 830.182 403.294C827.893 403.292 824.984 403.291 821.601 403.291C817.577 403.291 813.272 403.291 808.791 403.291C798.441 403.292 788.278 403.295 778.696 403.297C768.227 403.3 759.03 403.302 751.09 403.302C742.779 403.302 736.073 403.301 730.71 403.296C707.984 403.275 711.402 403.199 710.159 402.959C710.103 402.898 696.872 387.699 693.874 384.289C688.424 384.169 682.939 384.567 677.292 384.084C675.789 378.506 671.166 374.781 667.6 376.498C663.863 377.891 661.955 384.443 663.799 390.035C666.473 399.431 676.438 401.126 678.007 389.428C696.071 389.746 691.613 388.394 695.096 391.755C699.601 396.976 704.149 401.886 708.394 407.278Z" fill="#4794D4"/>
<path d="M76.669 399.887C81.0101 402.351 86.9505 399.177 88.7679 393.45C91.185 387.074 87.5637 379.319 81.9587 379.184C77.0978 378.518 72.0115 383.955 71.8411 390C71.4928 394.255 73.5294 398.361 76.669 399.887Z" fill="#4794D4"/>
<path d="M811.911 397.992C806.288 398.039 797.171 398.014 785.61 397.942C772.469 397.859 756.409 397.718 740.086 397.528C739.501 397.03 740.185 397.878 733.238 388.346C726.206 378.698 711.706 357.584 673.562 317.072C654.621 317.072 634.736 317.072 613.965 317.072C612.406 317.352 611.483 314.982 611.314 313.284C607.52 291.139 602.708 269.359 597.196 248.079C597.196 248.079 586.271 248.073 569.482 248.064C552.242 248.055 528.606 248.043 504.3 248.032C453.996 248.008 401.989 247.985 401.989 247.985C400.147 246.727 364.897 217.714 332.212 189.379C316.555 175.804 301.703 162.471 291.05 152.58C280.715 142.983 274.137 136.535 273.957 136.358C273.335 135.821 272.738 135.064 271.787 135.17C257.945 135.168 244.186 135.166 230.525 135.163C228.289 146.805 226.255 158.721 224.289 170.89C224.196 172.773 222.185 173.403 220.865 173.217C200.245 173.212 179.938 173.207 159.995 173.203C158.431 173.502 157.716 171.912 158.308 170.254C161.993 156.166 166.123 142.431 170.424 129.11C170.169 128.951 169.674 128.623 169.42 128.462C166.356 126.518 166.897 120.69 170.438 116.774C173.879 112.653 179.341 111.76 181.483 114.662C183.411 117.287 182.441 122.452 179.114 125.833C177.629 127.504 175.736 128.376 173.954 129.216C169.886 142.008 166.09 155.173 162.531 168.67C181.6 168.675 201.003 168.68 220.694 168.684C222.706 156.713 224.797 144.996 227.144 133.551C227.254 131.864 228.942 130.755 230.268 131.066C244.853 131.219 259.657 130.835 274.405 131.252C275.226 131.861 282.172 138.561 292.721 148.287C303.608 158.324 318.531 171.68 334.163 185.213C366.822 213.483 401.588 242.126 403.162 243.097C459.137 243.315 498.725 243.343 526.759 243.299C553.902 243.256 570.517 243.143 580.855 243.088C600.976 242.982 598.085 243.101 600.019 244.478C605.909 266.487 611.011 289.028 614.989 311.975C647.42 311.988 661.683 311.827 668.335 311.936C674.865 312.044 674.314 312.421 675.319 313.515C699.163 339.464 721.365 365.166 740.414 392.259C740.684 392.266 746.632 392.297 755.068 392.342C763.093 392.386 773.062 392.441 782.26 392.5C790.699 392.553 798.348 392.61 803.57 392.653C808.349 392.692 811.29 392.721 811.29 392.721C811.506 394.477 811.713 396.234 811.911 397.991L811.911 397.992Z" fill="#4794D4"/>
<path d="M714.772 388.135C717.651 390.683 721.058 389.843 722.512 385.895C722.735 385.442 722.956 384.989 723.176 384.536C728.879 384.469 734.443 384.38 739.895 384.587C737.12 360.738 732.853 337.107 727.285 313.897C726.066 312.515 712.875 295.638 698.794 279.468C684.568 263.134 669.622 247.531 668.976 246.796C661.899 225.925 653.941 205.599 644.78 185.999C650.179 182.792 642.369 169.687 636.4 168.023C633.804 167.098 632.354 168.58 632.124 171.083C632.23 173.683 633.399 177.17 635.678 180.193C637.452 182.776 639.672 184.404 641.711 185.647C644.8 192.526 662.15 235.257 666.718 249.063C690.255 273.521 719.282 308.881 725.005 316.143C730.202 336.857 733.713 357.949 736.516 379.208C732.154 379.011 727.773 379.442 723.216 378.978C722.798 375.549 721.387 372.592 719.729 370.222C714.191 364.557 708.216 370.933 711.396 382.759C712.334 384.825 713.376 386.898 714.772 388.135Z" fill="#4794D4"/>
<path d="M827.69 371.217C829.474 381.596 830.039 387.465 827.642 374.623C826.53 379.409 824.435 380.636 822.898 381.136C821.153 381.702 818.819 381.178 809.801 381.352C809.552 379.633 809.295 377.916 809.029 376.2C810.975 376.59 819.843 376.232 821.11 376.336C822.664 376.463 824.832 375.589 826.651 369.832C826.683 369.568 826.836 369.848 826.515 367.978C825.827 363.737 825.371 360.562 825.524 360.569C825.627 360.201 826.693 365.372 827.69 371.217Z" fill="#4794D4"/>
<path d="M241.578 370.546C244.684 372.238 248.276 371.115 251.303 369.491C254.914 365.996 256.49 360.436 254.558 355.615C252.445 351.443 247.892 349.079 243.501 350.156C233.267 353.735 233.66 367.339 241.578 370.546Z" fill="#4794D4"/>
<path d="M267.857 356.139C264.993 362.071 268.435 369.69 274.345 371.15C283.907 373.486 292.158 360.097 282.359 351.439C277.451 348.24 270.302 350.284 267.857 356.139Z" fill="#4794D4"/>
<path d="M746.741 370.673C744.595 371.5 741.823 369.716 739.968 365.734C735.921 357.025 738.334 345.62 744.966 350.704C746.407 352.483 747.72 354.707 748.623 357.467C750.808 357.577 752.919 357.441 755.051 357.595C756.522 352.97 757.829 348.25 759.008 343.532C767.996 343.576 776.323 343.579 783.985 343.571C790.972 343.564 797.273 343.547 802.888 343.565C803.27 345.305 803.643 347.046 804.008 348.789C798.518 348.834 792.345 348.803 785.517 348.788C778.04 348.771 769.928 348.771 761.208 348.857C759.57 352.813 758.754 358.472 756.942 362.527C754.713 363.371 752.104 362.487 749.681 362.73C748.841 366.404 749.77 367.649 746.741 370.673Z" fill="#4794D4"/>
<path d="M820.86 365.217C820.762 365.742 820.767 365.882 819.522 365.905C818.159 365.93 815.085 365.844 807.329 365.896C807.028 364.178 806.718 362.461 806.4 360.746C811.086 360.738 815.173 360.949 818.543 360.746C819.279 360.703 819.395 361.6 819.859 359.3C820.319 357.018 821.858 351.474 820.436 338.858C819.321 334.223 818.239 329.514 817.947 327.788C817.431 324.96 818.834 329.69 820.498 336.508C821.981 342.555 823.227 348.512 822.961 348.114C822.897 348.311 822.293 346.063 821.652 343.708C822.457 350.876 822.182 358.111 820.86 365.217Z" fill="#4794D4"/>
<path d="M50.7123 352.875C41.0406 356.377 37.6937 342.267 44.4443 335.251C48.446 330.69 54.8013 331.476 56.7865 336.794C59.1998 342.224 56.0303 350.933 50.7123 352.875Z" fill="#4794D4"/>
<path d="M691.362 352.275C695.527 354.515 699.271 349.713 698.491 343.329C698.006 337.302 693.542 331.306 689.823 331.641C685.72 331.244 683.58 337.929 685.45 344.129C686.584 347.875 688.846 351.155 691.362 352.275Z" fill="#4794D4"/>
<path d="M715.05 352.756C717.468 351.443 719.113 347.453 718.197 342.48C717.322 336.437 712.942 330.933 709.603 331.666C707.801 331.584 706.767 333.552 705.831 335.384C703.992 343.998 709.559 354.134 715.05 352.756Z" fill="#4794D4"/>
<path d="M757.795 343.868C758.221 343.87 764.667 343.872 773.543 343.872C781.711 343.873 791.379 343.873 799.766 343.873C806.853 343.873 812.618 343.872 816.097 343.871C818.806 343.87 820.205 343.869 820.275 343.868C819.377 339.915 816.222 326.595 812.403 313.533C808.584 300.471 804.113 287.686 802.84 284.136C804.108 284.136 804.612 284.139 804.752 284.12C804.804 284.113 804.565 284.113 804.442 284.126C804.098 284.164 804.173 284.256 804.215 284.534C808.563 300.985 808.114 309.118 808.175 313.037C808.236 316.964 808.19 316.901 808.221 317.895C804.94 317.901 801.066 317.906 796.605 317.911C796.14 316.209 795.667 314.509 795.185 312.812C799.329 312.812 802.96 312.784 806.105 312.828C806.649 313.081 806.486 311.249 806.493 310.049C806.546 300.433 802.749 281.047 802.219 279.232C802.903 279.098 802.398 279.146 800.583 279.135C807.799 298.591 813.818 318.492 818.628 338.682C818.628 338.682 817.224 338.679 814.523 338.677C811.112 338.673 805.47 338.669 798.59 338.665C790.489 338.661 781.189 338.656 773.441 338.653C765.043 338.65 759.089 338.648 759.089 338.648C752.061 305.084 747.451 292.609 745.995 287.885C744.54 283.164 745.509 286.316 745.162 285.191C754.514 285.156 763.132 285.176 770.977 285.188C778.04 285.199 784.304 285.206 789.732 285.118C790.494 286.735 791.253 288.363 792.008 289.864C795.915 296.695 796.877 291.719 792.31 279.968C787.505 269.216 785.546 270.896 787.799 279.28C787.866 279.568 787.933 279.857 788 280.145C788 280.145 785.979 280.143 782.717 280.14C779.181 280.137 774.042 280.133 768.426 280.129C762.337 280.125 755.782 280.121 750.564 280.118C745.091 280.115 741.302 280.113 741.302 280.113C742.299 283.357 747.19 299.007 751.04 314.117C754.897 329.258 757.781 343.798 757.795 343.868Z" fill="#4794D4"/>
<path d="M398.791 341.261C448.299 341.123 496.523 341.086 542.967 341.082C565.372 341.08 587.154 341.086 608.258 341.09C628.628 341.095 648.212 341.099 666.959 341.093C665.653 332.909 657.748 287.071 643.895 243.435C630.313 200.684 611.022 160.999 607.202 153.626C607.351 153.661 607.645 153.724 607.793 153.759C617.423 153.715 635.511 153.69 655.931 153.676C665.352 153.67 675.027 153.666 684.343 153.664C692.92 153.662 700.999 153.661 708.166 153.661C714.51 153.661 719.954 153.662 724.318 153.662C727.943 153.662 730.66 153.661 732.503 153.658C734.653 153.655 734.923 153.634 734.784 153.613C744.023 166.116 752.689 179.041 760.752 192.333C759.309 192.297 756.377 192.296 751.968 192.281C747.902 187.182 743.997 182.866 739.811 178.246C738.505 178.349 737 178.254 735.515 178.303C734.588 176.824 733.653 175.348 732.71 173.878C734.445 173.997 735.794 173.64 737.523 174.044C741.64 178.432 745.795 183.223 749.682 187.815C753.594 187.746 756.365 187.841 757.814 187.764C749.642 174.602 740.876 161.81 731.548 149.449C731.52 149.394 731.463 149.284 731.44 149.236C731.502 149.264 731.728 149.297 731.691 149.303C731.479 149.341 730.766 149.331 729.321 149.337C727.224 149.344 724 149.346 719.624 149.346C714.29 149.346 707.592 149.343 699.862 149.34C691.11 149.336 681.377 149.332 671.363 149.329C660.519 149.325 649.661 149.322 639.762 149.322C618.514 149.321 603.049 149.33 602.105 149.36C631.144 205.787 651.603 269.266 662.625 335.871C662.127 335.91 648.107 335.931 626.464 335.939C603.864 335.947 572.55 335.944 539.817 335.94C505.88 335.935 470.889 335.93 443.835 335.932C416.396 335.934 397.577 335.944 396.553 335.972C396.433 336.064 396.2 336.257 396.08 336.357C397.441 337.674 398.793 339.168 398.791 341.261Z" fill="#4794D4"/>
<path d="M743.148 329.166C743.679 341.769 735.039 337.913 732.363 328.23C730.342 321.882 731.823 315.472 735.274 316.11C737.608 316.212 740.227 319.759 741.95 323.817C742.586 323.866 746.598 323.893 752.284 323.907C757.748 323.921 764.598 323.922 771.32 323.917C777.605 323.912 783.676 323.902 788.496 323.893C792.952 323.885 796.39 323.879 798.164 323.884C798.623 325.645 799.072 327.408 799.513 329.174C799.513 329.174 797.048 329.174 793.078 329.173C788.783 329.172 782.558 329.171 775.768 329.17C768.423 329.169 760.532 329.168 754.26 329.167C747.691 329.166 743.148 329.166 743.148 329.166Z" fill="#4794D4"/>
<path d="M802.851 324.409C804.983 327.92 805.836 324.884 804.602 318.908C804.548 318.598 804.494 318.288 804.44 317.978C805.021 317.933 811.402 317.669 812.014 318.202C807.013 300.579 801.153 283.197 794.332 266.201C796.533 266.206 797.484 266.198 797.826 266.154C797.876 266.147 797.739 266.11 797.603 266.127C797.18 266.179 797.316 266.373 797.537 267.057C803.365 285.703 803.315 295.063 803.533 299.269C803.752 303.48 803.556 302.835 803.334 302.742C800.152 302.697 796.451 302.717 792.215 302.725C791.716 301.091 791.209 299.459 790.694 297.83C794.794 297.835 798.398 297.84 801.501 297.846C801.752 297.978 802.064 298.849 801.865 294.718C801.665 290.591 801.638 281.148 795.419 261.998C795.228 261.409 795.104 261.275 795.57 261.215C795.719 261.196 795.851 261.188 795.771 261.184C795.353 261.163 794.234 261.127 791.677 261.057C798.612 277.946 804.713 295.238 809.847 312.787C807.913 312.814 805.635 312.871 802.946 312.754C801.414 308.44 799.482 304.785 798.563 305.048C797.613 304.716 797.651 307.231 797.999 310.173C798.884 315.076 801.014 321.704 802.851 324.409Z" fill="#4794D4"/>
<path d="M770.534 321.128C770.987 317.356 769.344 311.239 767.061 307.175C765.572 305.134 763.923 303.289 762.688 303.524C760.73 303.428 760.099 307.056 760.695 311.421C763.357 323.931 769.72 327.819 770.534 321.128Z" fill="#4794D4"/>
<path d="M777.939 322.127C780.481 325.837 782.755 324.775 782.678 320.072C782.613 316.322 781.084 311.232 779.239 307.439C777.956 305.597 776.53 303.551 775.469 303.549C773.875 303.062 773.279 305.55 773.358 308.793C773.803 313.223 775.684 319.088 777.939 322.127Z" fill="#4794D4"/>
<path d="M188.66 317.637C182.758 320.536 175.948 315.272 176.718 308.322C176.796 302.569 182.025 297.254 187.093 297.65C191.581 297.53 195.312 301.665 195.319 306.647C195.582 311.223 192.655 315.99 188.66 317.637Z" fill="#4794D4"/>
<path d="M445.074 309.759C442.665 314.727 436.173 316.237 431.731 312.671C427.422 309.589 426.041 303.044 428.328 298.511C432.675 291.942 439.508 292.721 444.062 298.322C446.186 301.771 446.762 306.262 445.074 309.759Z" fill="#4794D4"/>
<path d="M793.71 307.819C788.203 307.766 782.046 307.824 775.21 307.84C767.715 307.859 759.561 307.832 750.729 307.645C747.339 303.548 744.001 298.462 740.489 294.145C738.509 294.169 736.491 294.152 734.447 294.152C734.939 296.82 735.299 299.604 734.667 301.369C733.575 305.69 728.97 304.414 725.93 298.921C722.933 293.934 722.139 286.875 724.112 284.354C725.98 281.984 729.785 284.328 732.463 289.09C735.101 289.348 737.484 288.826 740.107 289.342C743.663 293.385 747.034 298.42 750.409 302.791C758.924 302.736 766.842 302.731 774.139 302.738C780.802 302.744 786.825 302.76 792.185 302.734C792.702 304.426 793.21 306.121 793.71 307.819Z" fill="#4794D4"/>
<path d="M633.614 296.854C633.548 302.463 629.683 306.362 625.062 304.018C619.804 301.839 616.198 292.874 618.438 287.689C620.941 281.933 627.911 282.497 632.443 291.709C644.823 291.789 656.721 291.344 668.434 291.757C670.207 291.819 671.398 290.429 672.701 289.441C675.801 287.087 684.864 279.822 692.648 272.714C700.1 265.907 706.364 259.242 707.143 258.366C707.674 257.767 706.422 257.478 716.96 257.355C721.996 257.296 729.531 257.278 740.539 257.289C745.681 257.293 751.435 257.304 757.783 257.321C763.641 257.336 769.78 257.356 776.028 257.38C776.685 258.988 777.335 260.599 777.976 262.213C771.37 262.22 764.901 262.205 758.766 262.185C752.11 262.163 746.144 262.135 740.875 262.11C729.605 262.057 722.239 262.025 717.506 262.097C707.638 262.247 709.98 262.832 708.19 264.593C690.674 281.795 680.445 289.132 675.562 293.09C670.571 297.134 670.879 296.931 669.619 296.895C657.923 296.57 646 296.927 633.614 296.854Z" fill="#4794D4"/>
<path d="M78.8685 302.866C83.7629 304.637 90.351 299.361 91.0889 292.681C92.2871 286.097 87.3424 280.851 81.961 283.073C77.1748 284.592 73.4654 291.317 74.2889 296.642C74.752 299.609 76.4794 301.995 78.8685 302.866Z" fill="#4794D4"/>
<path d="M798.889 286.443C798.959 287.461 799.177 288.94 798.747 288.772C795.605 288.766 791.933 288.761 787.734 288.756C787.156 287.034 786.568 285.315 785.971 283.599C785.971 283.599 788.894 283.619 791.662 283.628C794.166 283.636 796.481 283.632 796.794 283.583C796.959 283.632 797.151 284.279 796.801 280.238C796.452 276.197 796.219 267.135 789.9 249.151C789.651 248.464 789.454 248.276 790.056 248.169C790.188 248.145 790.183 248.147 789.611 248.153C788.346 248.167 785.515 248.174 779.588 248.158C778.174 245.547 776.993 243.233 775.077 241.149C771.635 239.048 775.721 250.769 779.988 257.723C782.062 260.928 783.611 261.861 783.39 259.313C783.339 257.977 782.486 255.356 781.763 253.052C782.226 253.089 783.953 253.109 786.046 253.119C787.844 253.128 789.693 253.128 791.045 253.12C791.938 253.115 792.427 253.097 792.396 253.093C792.179 253.071 791.898 253.076 791.898 253.076C791.804 252.993 791.732 252.629 793.021 256.614C794.302 260.574 797.671 268.808 798.889 286.443Z" fill="#4794D4"/>
<path d="M499.424 276.233C498.242 282.54 490.643 284.541 485.815 279.83C483.667 278.411 483.138 274.028 480.299 274.652C453.227 274.657 425.697 274.663 397.806 274.668C370.837 251.084 344.843 227.858 320.183 205.025C319.406 204.641 323.365 204.485 293.479 204.438C278.58 204.415 255.353 204.419 219.349 204.436C201.598 204.445 180.903 204.457 156.9 204.471C133.451 204.484 107.194 204.499 78.1031 204.515C75.0066 210.3 68.3914 213.769 65.3712 210.441C61.9662 207.419 64.518 198.822 69.5673 194.81C72.6854 192.664 76.188 192.09 78.0167 194.173C79.3512 195.376 79.4746 197.711 79.5679 199.914C79.5679 199.914 93.0645 199.911 113.871 199.906C135.296 199.901 164.716 199.895 194.97 199.888C257.339 199.875 321.095 199.862 321.095 199.862C353.663 229.584 395.232 266.638 399.468 269.656C427.263 269.839 454.688 269.712 481.649 269.736C482.412 265.346 485.541 261.721 489.841 262.212C495.688 262.261 501.053 270.127 499.424 276.233Z" fill="#4794D4"/>
<path d="M609.507 277.913C613.68 283.736 621.823 285.272 622.448 274.692C627.598 274.676 632.691 274.644 637.752 274.7C632.535 254.187 622.195 219.68 610.517 190.628C599.062 162.146 586.723 138.895 584.621 135.083C585.234 134.917 598.729 134.922 622.442 134.951C633.471 134.964 646.273 134.983 660.197 134.985C672.783 134.987 685.56 134.978 697.638 134.922C671.641 101.026 656.789 87.8464 650.209 81.4101C643.636 74.9812 644.447 75.8482 643.786 75.1968C646.273 74.7818 649.482 75.2181 651.861 75.1221C631.577 56.499 609.779 39.5807 586.778 24.6205C586.855 24.6436 587.014 24.6939 587.091 24.717C587.805 24.6534 592.815 24.5845 593.402 24.7586C595.501 25.8331 603.069 30.0135 605.534 31.4353C605.876 31.5269 606.568 31.5554 605.598 31.5556C602.89 31.5563 598.026 31.5323 595.594 31.5307C594.135 30.5232 592.671 29.5237 591.202 28.5326C591.202 28.5326 596.69 28.5333 600.266 28.53C601.865 28.5286 601.46 28.5224 601.4 28.5138C600.944 28.4467 603.87 29.5485 588.81 21.8408C586.874 21.7788 584.621 21.8418 581.722 21.8048C604.802 36.5075 626.7 53.1788 647.109 71.5672C644.586 71.5971 641.759 71.5626 638.753 71.5839C658.381 89.735 676.558 109.558 693.133 130.767C693.133 130.767 688.618 130.767 681.145 130.767C672.845 130.767 660.528 130.767 646.828 130.767C631.801 130.767 615.508 130.767 602.498 130.767C588.844 130.767 579.399 130.767 579.399 130.767C585.644 142.272 598.785 168.494 609.612 196.531C620.645 225.113 629.249 255.298 632.978 269.743C629.083 269.727 625.173 269.751 621.225 269.735C619.443 266.348 616.889 263.56 614.057 262.363C611.537 261.924 608.929 262.256 607.711 264.695C605.632 267.838 606.583 273.82 609.507 277.913Z" fill="#4794D4"/>
<path d="M788.348 275.442C788.17 276.799 788.192 278.693 787.754 279.627C786.849 279.955 785.668 279.63 784.618 279.757C784.042 278.143 783.46 276.533 782.869 274.926C783.623 274.918 784.371 274.949 785.091 274.958C786.205 275.266 785.91 272.351 786.174 270.901C781.228 258.462 782.848 256.054 786.307 262.117C788.839 266.354 791.745 274.376 791.885 277.501C792.142 280.427 790.463 279.204 788.348 275.442Z" fill="#4794D4"/>
<path d="M626.074 266.185C624.492 275.79 615.356 273.184 611.194 263.865C607.989 252.253 615.393 249.524 620.779 254.358C622.791 255.998 624.149 258.659 625.326 261.176C634.191 261.373 642.769 261.184 651.23 261.28C652.134 251.093 653.976 217.253 650.19 187.155C646.508 157.949 637.783 132.532 637.587 131.798C637.296 130.966 638.065 131.186 638.421 131.06C638.432 131.06 643.336 131.061 650.517 131.062C657.364 131.063 666.015 131.064 674.193 131.066C681.699 131.067 688.647 131.069 693.651 131.07C698.187 131.072 701.247 131.073 702.028 131.074C703.093 132.409 704.151 133.751 705.203 135.097C705.203 135.097 702.621 135.103 698.38 135.11C693.704 135.118 686.8 135.128 679.145 135.137C670.755 135.148 661.646 135.158 654.355 135.165C646.679 135.173 641.352 135.177 641.352 135.177C653.276 170.261 657.787 208.976 655.852 248.71C655.077 264.565 655.033 266.305 653.716 266.161C644.742 266.25 635.505 266.193 626.074 266.185Z" fill="#4794D4"/>
<path d="M776.489 238.384C780.793 248.037 779.575 251.705 773.157 239.789C771.693 239.821 770.129 239.804 768.485 239.789C767.771 238.212 767.05 236.638 766.321 235.068C767.958 235.083 769.49 235.035 770.991 235.099C769.432 231.135 768.519 227.748 769.39 227.689C770.303 227.244 773.931 232.653 776.489 238.384Z" fill="#4794D4"/>
<path d="M697.825 239.281C703.872 247.998 709.343 246.636 707.046 236.833C703.737 229.439 702.837 228.551 698.313 225.417C690.285 206.178 681.215 187.5 671.112 169.533C688.365 169.573 702.882 169.584 714.508 169.58C724.382 169.575 731.849 169.559 737.111 169.547C741.189 169.538 743.727 169.528 745.116 169.557C745.969 169.576 746.298 169.614 746.372 169.733C753.869 180.743 760.936 192.046 767.552 203.607C767.552 203.607 767.475 203.605 767.11 203.604C766.443 203.601 765.087 203.599 763.198 203.596C760.779 203.593 757.833 203.59 755.279 203.589C752.433 203.586 750.373 203.585 750.373 203.585C749.529 202.049 748.676 200.518 747.815 198.991C747.815 198.991 749.792 198.99 752.532 198.989C755.001 198.987 757.868 198.986 760.248 198.983C762.137 198.982 763.534 198.98 764.257 198.978C764.702 198.977 764.844 198.976 764.844 198.976C758.107 187.483 750.92 176.251 743.307 165.318C747.22 164.017 725.526 165.246 708.641 165.309C698.188 165.348 688.312 165.375 680.613 165.362C672.456 165.347 667.214 165.288 666.393 165.149C667.07 166.336 674.85 180.056 681.883 194.409C688.953 208.839 695.244 223.873 695.923 225.702C693.478 227.199 694.431 233.855 697.825 239.281Z" fill="#4794D4"/>
<path d="M316.429 230.091C317.737 234.992 314.935 240.684 310.267 242.104C305.253 244.02 299.805 240.274 298.613 234.99C297.608 225.669 305.719 220.539 312.414 224.203C314.185 225.741 315.916 227.597 316.429 230.091Z" fill="#4794D4"/>
<path d="M255.263 239.992C257.262 241.068 253.938 238.079 330.816 240.641C334.03 240.748 337.268 240.914 340.487 240.562C340.853 240.106 341.316 239.507 341.595 239.141C341.587 238.609 340.788 203.807 339.723 169.12C339.211 152.454 338.647 135.952 338.176 123.157C337.718 110.717 337.35 101.655 337.254 99.0478C339.523 99.0846 341.801 99.1648 344.085 99.1462C345.278 102.405 348.059 105.295 351.459 105.373C355.928 105.731 359.344 101.026 358.196 96.3734C356.45 89.3646 346.937 86.7519 344.07 95.4093C341.006 95.4699 337.934 95.2328 334.88 95.2633C333.661 95.5409 333.206 95.2121 333.488 108.106C333.633 114.715 333.972 124.914 334.477 140.828C334.997 157.256 335.706 180.037 336.49 211.856C336.684 219.737 336.745 227.697 337.058 235.721C258.296 235.635 261.918 235.948 258.193 235.519C253.499 227.129 249.26 218.564 245.124 210.139C249.484 206.827 250.947 199.853 247.704 195.929C244.575 191.365 237.239 192.472 233.897 197.645C230.635 202.709 232.235 209.662 237.125 211.492C238.313 211.704 239.56 211.833 240.814 211.962C245.492 221.175 249.99 230.762 255.263 239.992Z" fill="#4794D4"/>
<path d="M782.575 235.113C783.708 236.453 781.078 230.272 777.825 224.033C775.043 218.699 772.759 215.048 772.761 215.823C773.866 219.6 781.236 233.833 782.575 235.113Z" fill="#4794D4"/>
<path d="M270.563 211.515C273.636 216.799 276.349 222.421 279.77 227.589C293.624 227.42 307.5 227.612 321.391 227.519C322.684 227.68 324.332 226.857 324.111 225.186C324.117 188.125 324.098 161.94 324.077 143.235C324.058 125.182 324.036 113.786 324.027 106.383C324.01 91.9908 324.041 92.1486 324.212 89.7145C326.535 84.9575 329.059 80.4193 331.275 75.8056C335.122 75.7538 338.978 75.8115 342.833 75.7712C346.011 83.1432 353.717 82.6202 355.806 76.9682C356.637 73.9178 355.382 70.2703 352.762 68.2743C350.22 66.3434 346.719 66.4871 344.623 68.5093C343.591 69.5084 343.189 70.9913 342.441 72.2085C330.513 72.3255 329.48 71.599 328.772 73.3117C326.454 77.611 324.342 82.1435 321.806 86.509C320.886 87.8475 320.627 86.8824 320.448 101.095C320.356 108.412 320.284 119.904 320.179 138.32C320.069 157.441 319.921 184.392 319.697 222.729C316.444 222.729 299.696 222.662 282.161 222.76C282.113 222.678 275.76 211.275 274.355 208.908C275.806 206.731 277.05 204.275 276.881 201.602C277.117 195.943 271.633 191.645 266.606 193.323C261.86 194.548 258.443 200.409 259.698 205.341C260.68 210.397 265.896 212.92 270.563 211.515Z" fill="#4794D4"/>
<path d="M642.371 226.333C641.222 226.439 628.068 226.507 608.159 226.545C587.318 226.585 558.72 226.595 528.983 226.594C466.27 226.59 401.203 226.533 401.166 226.533C399.206 226.657 401.969 229.314 346.542 181.798C328.532 166.356 310.922 150.721 297.83 138.605C285.25 126.963 276.64 118.463 274.768 116.716C263.1 116.358 251.35 116.665 239.763 116.568C238.235 119.497 235.57 122.108 232.548 122.606C227.98 123.639 224.374 119.438 225.665 114.584C227.219 106.37 239.281 102.7 240.533 112.553C251.749 112.572 263.009 112.715 274.369 112.546C276.236 112.517 275.184 111.402 287.352 123.064C293.654 129.104 303.696 138.691 320.51 153.643C338.069 169.255 363.438 190.902 400.184 221.157C400.457 221.358 400.73 221.56 401.004 221.762C445.015 221.868 487.819 221.851 528.995 221.811C548.846 221.793 568.139 221.769 586.83 221.753C604.869 221.738 622.216 221.731 638.833 221.746C639.058 220.066 639.69 193.482 635.972 168.083C632.348 143.373 624.315 120.132 623.989 118.624C638.841 118.693 652.334 118.724 664.427 118.737C675.081 118.748 684.238 118.744 691.877 118.747C693.001 120.069 694.118 121.396 695.228 122.729C695.228 122.729 692.573 122.733 688.199 122.737C683.356 122.741 676.177 122.746 668.172 122.748C659.376 122.751 649.788 122.752 642.052 122.747C633.898 122.743 628.163 122.733 627.968 122.716C645.887 174.176 642.685 201.721 642.713 214.134C642.74 226.735 642.533 224.911 642.371 226.333Z" fill="#4794D4"/>
<path d="M713.964 218.621C715.163 222.67 714.827 225.898 712.704 225.933C706.938 225.131 700.789 212.986 701.972 208.455C702.513 205.413 705.897 206.465 709.2 210.297C710.076 211.468 710.926 212.687 711.766 213.894C711.766 213.894 725.19 213.899 737.046 213.905C742.371 213.908 747.288 213.911 750.704 213.913C753.885 213.915 755.875 213.917 755.875 213.917C756.682 215.465 757.481 217.018 758.272 218.575C758.272 218.575 756.274 218.578 753.079 218.582C749.648 218.586 744.709 218.592 739.36 218.598C733.605 218.604 727.45 218.609 722.575 218.613C717.48 218.618 713.964 218.621 713.964 218.621Z" fill="#4794D4"/>
<path d="M698.427 225.556C697.05 225.996 695.33 226.028 693.191 224.08C688.054 219.948 682.678 207.455 688.88 206.483C683.677 187.642 676.725 169.166 668.984 151.776C679.201 151.716 688.632 151.717 697.225 151.741C704.948 151.762 711.795 151.802 717.713 151.81C718.678 153.155 719.635 154.504 720.587 155.859C714.967 155.864 709.609 155.867 704.667 155.869C699.328 155.871 694.719 155.872 690.808 155.873C682.495 155.874 677.867 155.871 675.435 155.869C670.436 155.866 675.019 155.864 673.027 155.887C680.547 172.611 686.924 190.079 691.895 207.958C692.876 208.975 693.855 209.971 694.823 211.022C698.902 216.205 700.689 223.608 698.427 225.556Z" fill="#4794D4"/>
<path d="M682.762 221.541C683.043 225.9 679.941 226.947 676.465 224.663C668.874 218.822 665.728 205.175 673.13 206.715C668.255 172.335 662.07 157.199 659.496 149.744C656.932 142.321 656.922 142.488 656.443 140.851C662.999 140.779 677.865 140.827 690.016 140.879C700.449 140.924 708.552 140.973 709.652 140.879C710.74 142.314 711.82 143.754 712.893 145.201C706.629 145.212 699.335 145.207 691.053 145.217C681.793 145.229 671.592 145.259 660.495 145.331C660.741 146.109 666.046 160.462 669.92 175.638C673.833 190.974 676.27 207.094 676.544 208.976C679.808 212.211 682.712 217.636 682.762 221.541Z" fill="#4794D4"/>
<path d="M779.07 225.54C779.175 225.531 779.369 225.505 779.297 225.501C778.848 225.478 777.753 225.476 776.069 225.475C773.794 225.474 770.937 225.486 768.246 225.514C765.185 225.546 762.67 225.594 761.84 225.671C761.039 224.032 760.229 222.398 759.41 220.768C759.41 220.768 761.728 220.768 764.901 220.768C767.708 220.768 770.877 220.768 773.385 220.768C775.23 220.768 776.408 220.768 776.853 220.768C776.921 220.768 776.758 220.768 776.758 220.768C771.09 209.918 765.036 199.272 758.602 188.85C757.464 188.771 755.385 188.879 752.125 188.733C754.643 192.867 757.106 197.046 759.5 201.244C759.715 202.386 760.253 204.134 761.703 207.07C763.858 211.592 767.145 217.038 769.049 219.339C772.77 223.125 767.88 212.246 763.573 205.642C762.065 203.245 761.192 202.385 760.06 200.938C758.7 198.625 757.134 195.916 755.81 193.641C758.404 193.595 760.34 193.776 761.327 193.552C767.619 203.998 773.539 214.67 779.07 225.54Z" fill="#4794D4"/>
<path d="M761.047 216.654C766.573 224.444 765.887 218.422 761.054 209.859C758.799 205.744 756.354 202.523 754.864 201.243C750.81 194.073 746.604 187.004 742.213 180.041C742.776 180.051 747.093 180.047 750.195 180.034C752.208 180.027 753.116 180.012 753.116 180.012C760.078 190.786 766.632 201.823 772.767 213.09C772.714 212.932 772.665 212.809 772.616 212.802C772.396 212.773 771.8 212.774 770.246 212.776C767.916 212.778 763.531 212.792 755.326 212.81C754.517 211.266 753.701 209.726 752.876 208.191C762.679 208.183 771.776 208.205 770.109 208.161C763.902 197.053 757.273 186.161 750.251 175.54C750.251 175.54 749.336 175.522 747.047 175.511C743.391 175.493 738.38 175.482 738.38 175.482C743.733 183.844 748.889 192.374 753.781 201.042C753.95 202.012 753.988 202.828 754.515 204.327C755.711 207.724 758.563 213.149 761.047 216.654Z" fill="#4794D4"/>
<path d="M437.648 215.041C441.127 215.069 443.517 212.122 444.375 208.795C445.391 198.64 434.251 192.352 428.822 198.79C423.833 205.884 430.494 215.838 437.648 215.041Z" fill="#4794D4"/>
<path d="M423.523 209.202C423.839 210.713 422.553 211.536 421.33 211.431C416.273 211.59 411.165 211.527 406.055 211.507C404.106 211.499 401.866 211.838 400.145 210.244C396.306 207.02 351.728 168.968 347.538 165.155C346.53 142.2 345.631 120.222 344.371 99.3003C344.184 99.1935 343.997 99.0868 343.81 98.98C337.848 96.7646 335.988 87.3699 343.321 84.2471C346.892 83.3446 351.129 85.7147 352.331 89.7316C353.708 93.6474 351.578 97.8847 348.065 99.0472C348.205 102.244 349.043 116.552 349.826 131.054C350.633 146.011 351.394 161.083 351.696 163.429C365.053 174.742 397.684 202.843 402.869 206.692C408.287 206.932 413.66 206.692 419.045 206.798C418.341 200.845 417.563 194.941 416.837 189.085C413.292 187.666 409.867 184.434 409.407 180.265C408.353 175.227 411.951 170.487 416.571 170.961C424.277 170.576 431.114 184.374 420.925 189.004C421.78 195.682 422.776 202.416 423.523 209.202Z" fill="#4794D4"/>
<path d="M288.748 208.418C293.998 214.431 301.148 212.014 304.079 205.843C306.869 193.924 295.489 189.612 289.874 195.795C286.572 199.055 286.182 204.779 288.748 208.418Z" fill="#4794D4"/>
<path d="M750.842 204.492C745.132 204.492 740.451 204.532 736.739 204.563C732.799 204.596 730.157 204.62 728.383 204.591C724.72 204.533 724.959 204.264 724.269 203.413C719.78 198.387 715.188 193.233 710.524 188.336C709.844 189.767 707.925 189.606 705.242 186.994C701.712 183.809 697.927 177.273 697.453 173.763C696.801 170.127 699.491 170.064 703.075 173.713C706.112 176.641 709.031 181.602 710.236 185.231C710.308 185.306 719.36 195.028 723.601 199.87C732.994 199.879 741.233 199.889 748.297 199.9C749.153 201.426 750.001 202.957 750.842 204.492Z" fill="#4794D4"/>
<path d="M720.583 182.373C721.736 185.422 722.769 188.719 721.567 189.144C719.91 190.458 714.145 184.191 711.104 178.137C710.588 176.967 710.104 175.82 709.678 174.72C708.36 170.593 710.245 169.714 713.728 173.074C715.036 174.265 716.45 176.121 717.788 177.855C724.271 177.876 730.094 177.901 735.214 177.87C736.142 179.347 737.062 180.829 737.975 182.315C732.854 182.353 726.974 182.248 720.583 182.373Z" fill="#4794D4"/>
<path d="M693.768 188.769C688.118 185.061 682.103 174.792 684.599 171.026C682.762 167.503 679.598 163.402 678.814 160.372C688.26 160.487 696.911 160.508 704.797 160.501C711.915 160.494 718.237 160.462 723.803 160.492C724.796 161.94 725.782 163.392 726.761 164.85C726.761 164.85 724.815 164.85 721.695 164.85C718.335 164.85 713.486 164.85 708.219 164.85C696.455 164.85 683.094 164.85 683.094 164.85C684.323 166.904 685.514 168.967 686.756 171.033C688.177 172.014 689.553 172.886 691.03 174.46C696.98 180.813 700.396 191.604 693.768 188.769Z" fill="#4794D4"/>
<path d="M657.059 183.947C660.656 186.992 663.65 186.39 664.009 183.276C663.862 181.369 663.397 179.125 662.038 176.678C659.732 172.125 655.36 168.19 652.602 167.788C651.364 167.61 650.693 168.352 649.944 168.927C648.679 172.166 652.263 180.212 657.059 183.947Z" fill="#4794D4"/>
<path d="M748.652 174.237C748.488 174.317 747.377 174.366 745.835 174.365C743.876 174.365 741.527 174.308 741.016 174.166C737.543 170.337 733.742 166.137 729.999 162.287C728.428 162.25 726.789 162.266 725.047 162.273C724.072 160.84 723.091 159.412 722.102 157.989C723.953 157.976 725.73 158.019 727.328 157.969C731.059 161.799 734.682 165.649 738.256 169.656C738.705 169.975 741.012 170.038 742.872 170.011C744.349 169.989 745.38 169.877 745.439 169.863C736.939 157.353 727.891 145.212 718.322 133.505C718.951 133.435 718.992 133.378 717.478 133.378C714.445 133.377 710.297 133.409 708.915 133.439C705.796 129.56 702.641 125.727 699.461 121.942C697.637 117.081 686.191 105.694 684.858 105.869C683.561 105.554 686.677 109.976 690.898 114.618C693.999 118.134 696.895 120.765 698.579 121.929C702.973 127.128 707.264 132.417 711.449 137.791C715.686 137.822 718.931 137.835 721.18 137.813C722.445 137.801 722.707 137.736 721.967 137.704C731.396 149.477 740.293 161.698 748.652 174.237Z" fill="#4794D4"/>
<path d="M421.009 155.887C419.585 161.037 412.874 162.005 408.635 157.996C404.872 154.426 404.103 147.907 407.357 144.901C410.608 141.348 417.52 143.243 420.137 148.506C420.348 148.827 420.559 149.148 420.771 149.47C462.821 149.585 503.22 149.528 541.516 149.421C541.537 149.24 541.558 149.059 541.578 148.878C542.699 129.214 541.418 119.266 540.947 114.22C540.48 109.224 540.515 108.884 541.423 108.907C544.191 108.978 559.658 108.994 589.478 108.987C603.255 108.983 619.424 108.975 637.415 108.964C645.606 108.958 653.92 108.953 662.202 108.947C669.655 108.942 676.767 108.937 683.31 108.932C684.453 110.208 685.589 111.49 686.719 112.777C686.719 112.777 682.069 112.786 673.927 112.797C664.413 112.81 649.659 112.826 632.637 112.841C613.464 112.858 592.274 112.873 575.145 112.885C557.031 112.897 544.442 112.904 544.442 112.904C544.444 114.284 545.455 126.688 545.584 132.27C546.083 153.871 545.621 153.782 544.517 153.73C543.828 153.792 514.765 153.803 484.61 153.796C453.398 153.788 421.528 153.765 421.496 153.765C421.353 154.488 421.198 155.2 421.009 155.887Z" fill="#4794D4"/>
<path d="M729.184 149.16C733.284 154.392 737.144 160.456 736.274 160.148C735.985 160.449 733.286 157.249 730.448 153.599C729.297 153.446 728.431 153.842 726.848 153.419C723.896 150.623 720.216 146.84 717.233 144.307C715.528 144.096 714.025 144.311 712.189 144.218C711.152 142.826 710.107 141.441 709.056 140.06C710.952 140.112 712.568 139.946 714.322 140.128C717.293 142.614 721.037 146.421 723.991 149.181C725.453 149.589 726.22 149.202 727.299 149.367C720.021 138.758 723.934 142.396 729.184 149.16Z" fill="#4794D4"/>
<path d="M709.953 134.373C710.184 134.969 710.184 134.829 705.004 134.808C703.946 133.456 702.881 132.109 701.809 130.767C703.457 130.696 705.248 130.929 706.544 130.667C706.026 128.991 704.86 126.691 704.092 124.921C703.677 123.964 702.641 122.338 703.196 122.501C704.166 122.546 704.966 122.472 705.826 122.554C704.418 120.759 702.849 118.816 702.126 117.734C700.13 114.88 702.457 116.704 706.601 121.264C710.699 125.73 715.308 131.637 715.602 132.69C716.09 133.91 712.94 130.76 709.229 126.543C708.461 126.619 707.387 126.421 706.59 126.629C707.587 128.91 708.93 131.736 709.953 134.373Z" fill="#4794D4"/>
<path d="M416.425 126.807C416.18 131.699 411.362 134.872 406.647 132.297C401.643 130.099 399.318 122.629 402.322 119.001C404.965 115.03 411.87 116.369 414.773 121.408C414.97 121.751 415.36 122.456 415.561 122.802C454.146 122.879 491.242 122.715 526.601 122.789C527.222 119.166 527.758 104.498 527.836 95.3054C536.353 95.3353 552.701 95.3557 571.589 95.37C589.275 95.3836 608.457 95.3908 625.033 95.3943C639.742 95.3974 651.975 95.3973 659.863 95.3954C666.698 95.394 670.588 95.3911 670.724 95.3905C671.929 96.64 673.127 97.8959 674.319 99.1583C664.685 99.1783 652.894 99.1824 639.858 99.1846C624.955 99.1871 609.496 99.1854 594.838 99.1864C562.432 99.1889 537.368 99.203 531.363 99.2811C531.372 99.5217 531.557 105.85 531.305 112.384C531.048 119.031 530.34 125.884 530.119 126.59C529.279 126.803 523.742 126.807 507.659 126.782C491.166 126.757 463.169 126.707 416.425 126.807Z" fill="#4794D4"/>
<path d="M350.347 130.369C354.658 132.434 359.896 129.714 360.533 124.928C361.577 120.071 357.333 114.635 352.711 114.649C348.529 114.359 344.841 118.457 345.441 123.037C345.455 126.189 347.64 129.068 350.347 130.369Z" fill="#4794D4"/>
<path d="M198.075 128.436C193.123 130.124 189.233 125.691 191.148 120.374C192.531 115.37 198.452 111.273 202.224 112.605C205.323 113.42 206.64 117.222 205.324 121.115C204.184 124.476 201.219 127.529 198.075 128.436Z" fill="#4794D4"/>
<path d="M157.656 124.935C154.841 128.267 150.823 129.978 148.03 129.078C143.072 126.012 146.076 118.645 150.789 115.015C154.594 112.09 158.983 112.283 160.144 115.47C161.243 117.935 159.989 121.853 157.656 124.935Z" fill="#4794D4"/>
<path d="M691.109 121.213C693.96 123.213 693.576 120.929 690.082 116.459C686.516 111.763 680.493 106.144 678.974 105.905C677.321 105.313 679.115 108.507 682.465 112.579C685.312 116.039 688.936 119.685 691.109 121.213Z" fill="#4794D4"/>
<path d="M704.122 121.857C703.766 121.087 703.048 119.922 701.544 118.032C700.04 116.114 697.915 113.748 695.948 111.574C688.73 98.6084 688.439 100.591 688.952 100.627C688.985 100.629 689.472 100.63 689.851 100.63C689.872 100.63 689.188 100.628 687.855 100.627C685.832 100.625 683.134 100.624 680.667 100.623C677.824 100.621 675.719 100.62 675.719 100.62C674.539 99.3614 673.353 98.1086 672.161 96.8622C676.597 96.8669 679.762 96.864 681.991 96.8532C683.744 96.8446 684.848 96.8321 685.51 96.8124C686.093 96.7951 685.931 96.7424 685.63 96.7369C684.531 96.7167 684.794 96.8249 685.185 97.3156C688.148 101.029 690.313 104.352 692.564 108.2C692.046 107.752 691.51 107.28 691.001 106.84C688.941 105.133 688.842 105.729 690.873 108.401C694.309 112.917 703.301 122.881 704.122 121.857Z" fill="#4794D4"/>
<path d="M651.732 118.529C662.404 118.486 672.118 118.625 680.457 118.445C664.532 99.1299 647.112 81.0715 628.629 64.5047C628.503 64.4015 628.378 64.2984 628.252 64.1953C631.342 64.2327 634.163 64.2294 636.741 64.2006C616.231 46.4298 594.314 30.3789 571.271 16.2902C576.172 16.2902 577.921 16.2569 578.725 16.2835C579.452 16.3076 579.558 16.3913 580.048 16.6223C584.577 18.7587 588.83 20.9029 593.106 23.2803C593.406 23.3039 593.672 23.2789 592.688 23.271C590.345 23.2521 586.241 23.2585 583.307 23.3168C581.828 22.3595 580.343 21.4103 578.853 20.4694C584.441 20.4694 587.152 20.4696 588.398 20.4661C589.026 20.4643 589.099 20.4556 589.007 20.4501C588.524 20.4215 588.555 20.4008 588.363 20.3439C584.543 18.2981 579.513 15.7337 575.284 13.8242C574.987 13.6898 574.965 13.631 574.234 13.6114C573.419 13.5897 571.523 13.6095 566.132 13.6224C589.285 27.4787 611.299 43.3081 631.953 60.8732C629.405 60.97 626.456 60.9006 623.383 60.9117C641.823 77.1011 659.222 94.7768 675.097 113.69C675.316 113.925 675.535 114.159 675.754 114.394C667.617 114.524 658.235 114.385 648.025 114.464C646.757 114.701 644.147 112.922 642.045 111.899C639.14 110.338 636.388 109.098 633.362 107.382C631.47 105.301 629.666 102.901 627.522 101.259C622.857 97.3509 619.464 97.4272 621.032 101.383C622.207 104.842 627.155 110.644 631.017 112.944C634.569 115.244 636.233 114.087 635.313 111.105C650.936 118.725 648.453 118.543 651.732 118.529Z" fill="#4794D4"/>
<path d="M100.481 114.867C96.1061 115.966 94.6949 111.445 98.0471 106.395C101.026 101.448 107.275 97.8552 109.683 99.5836C111.932 100.836 111.124 105.429 107.992 109.432C105.844 112.17 102.937 114.246 100.481 114.867Z" fill="#4794D4"/>
<path d="M82.917 114.457C78.7436 116.231 76.5141 113.428 78.5961 108.882C80.2611 104.832 85.0298 100.473 88.4862 99.411C92.1963 98.2779 93.8158 101.218 91.6485 105.611C90.0771 109.232 86.2109 113.052 82.917 114.457Z" fill="#4794D4"/>
<path d="M513.45 100.744C515.591 104.609 514.643 107.835 512.116 108.692C510.311 108.767 508.185 108.413 506.022 106.84C500.396 103.055 496.216 92.8321 504.609 93.0883C507.792 93.9806 511.712 97.0337 513.45 100.744Z" fill="#4794D4"/>
<path d="M635.126 101.469C636.185 102.224 637.468 103.238 637.93 103.008C646.995 103.003 655.266 102.975 662.794 103.021C642.153 79.7685 631.252 70.5404 625.257 65.1293C619.271 59.7264 617.753 58.4475 612.764 54.2107C616.259 54.3498 619.62 54.563 622.768 54.8001C600.327 36.3088 576.291 19.8649 551.05 5.76322C556.917 5.74522 559.039 5.73315 559.957 5.75463C560.771 5.77386 560.821 5.82357 561.062 5.91687C567.305 8.77309 573.028 11.556 579.171 14.8656C579.171 14.8656 579.599 14.8687 578.167 14.8699C574.885 14.873 569.778 14.8742 569.778 14.8742C568.31 13.9912 566.837 13.1161 565.361 12.2488C568.113 12.239 572.161 12.2566 574.274 12.2431C575.052 12.2382 574.602 12.2001 574.363 12.0961C552.999 0.909624 556.752 3.44058 555.6 3.35997C552.784 3.16028 549.882 3.35281 545.972 3.36406C571.154 17.1375 595.166 33.2451 617.621 51.3984C611.519 51.1474 608.242 50.847 607.49 50.7907C612.584 55.0274 625.52 66.1895 636.71 77.1107C647.931 88.0648 657.472 98.6357 657.954 99.1586C646.563 99.1151 640.77 99.1895 637.824 99.1817C634.797 99.1735 634.974 99.086 634.22 98.7282C627.692 94.1212 621.128 89.6623 614.465 85.1691C608.271 76.1968 598.657 71.6618 600.68 76.91C601.795 79.7834 606.25 84.8804 610.216 87.5263C613.734 90.0232 615.844 89.9185 615.849 88.1284C622.357 92.5713 628.745 96.9177 635.126 101.469Z" fill="#4794D4"/>
<path d="M375.161 93.446C374.606 96.0023 373.169 98.2357 370.786 99.1094C363.956 100.374 359.562 93.8469 361.104 88.3017C362.976 83.5709 370.021 81.2795 374.649 89.852C395.092 89.5183 415.407 89.7686 435.327 89.6843C435.575 89.304 444.386 76.3057 450.876 63.239C456.829 51.2463 460.291 39.278 460.642 38.5425C462.19 38.2385 499.143 38.3568 499.838 38.4437C501.101 38.9399 539.833 65.8664 543.125 68.0618C560.854 68.0618 575.219 68.0673 586.868 68.0767C597.698 68.0853 606.235 68.0978 612.992 68.1113C625.092 68.1359 631.889 68.1667 635.843 68.1806C642.682 68.2048 642.107 68.1677 642.026 67.9052C643.401 69.1203 644.769 70.3435 646.13 71.5739C642.408 71.5932 636.352 71.5932 628.61 71.5889C619.8 71.5842 608.958 71.5738 597.761 71.5682C585.562 71.5623 573.38 71.5619 563.792 71.576C553.783 71.5908 546.979 71.6206 546.177 71.6758C545.387 71.5005 544.712 71.7198 543.58 70.8161C540.652 68.6915 504.209 43.2489 501.383 41.3876C483.469 41.564 465.827 41.2712 463.469 41.5881C463.098 43.2014 462.968 43.9967 461.533 48.2264C460.051 52.5914 457.362 61.079 447.721 77.6606C443.131 85.5503 440.66 89.2338 439.379 91.1247C438.083 93.0355 437.94 93.0248 437.198 93.4278C434.609 93.5803 381.134 93.4888 375.161 93.446Z" fill="#4794D4"/>
<path d="M669.119 96.4103C672.294 98.5478 671.292 96.0244 667.555 91.8496C667.423 91.6926 667.291 91.5357 667.158 91.3792C668.543 91.3031 669.977 91.355 671.275 91.355C649.12 69.1997 624.93 49.1358 599.156 31.5455C603.847 31.5177 603.51 31.4032 604.428 31.9185C609.055 34.5184 613.546 37.1812 618.334 40.2617C618.682 40.3902 618.908 40.4473 619.407 40.3816C619.42 40.3799 619.099 40.3493 618.127 40.3384C616.497 40.3202 613.44 40.3135 607.906 40.3169C606.484 39.2688 605.057 38.2284 603.624 37.1962C603.624 37.1962 605.334 37.2015 607.631 37.2038C609.617 37.2056 611.774 37.2073 613.356 37.1905C614.369 37.1796 614.803 37.1223 614.692 37.1027C614.263 37.0264 613.721 36.9858 613.546 36.8868C603.915 30.8806 600.603 29.256 599.716 28.7627C598.827 28.2682 600.287 29.0767 599.465 28.6276C597.594 28.3166 596.273 28.6188 594.012 28.4911C620.008 45.8586 644.453 65.7363 666.847 87.7408C665.769 87.7224 664.678 87.7404 663.498 87.7228C661.809 86.2325 660.019 84.6582 658.602 83.6164C655.51 81.3447 654.606 81.5954 656.477 84.1644C658.959 87.5685 665.899 94.4191 669.119 96.4103Z" fill="#4794D4"/>
<path d="M680.615 95.8663C679.451 94.3625 677.244 91.9844 674.681 89.438C674.278 88.5817 673.902 87.8019 673.516 87.0612C672.149 84.4427 670.892 83.8262 671.786 83.6024C672.057 83.5351 672.447 83.6357 672.266 83.6541C671.81 83.7006 670.914 83.7245 669.305 83.7387C667.158 83.7575 663.92 83.7501 659.112 83.716C657.864 82.5047 656.61 81.2998 655.35 80.1019C655.483 80.1015 657.508 80.0949 660.199 80.0869C662.522 80.08 665.028 80.072 666.9 80.0689C668.1 80.0669 668.635 80.0807 668.583 80.0835C668.112 80.1091 667.53 80.125 667.426 80.1661C669.095 82.2729 669.841 83.7968 670.81 85.808C668.969 84.2189 666.999 82.5616 666.194 82.0949C664.724 81.1472 665.587 82.4409 667.785 84.8556C674.065 91.5773 683.495 99.9123 680.615 95.8663Z" fill="#4794D4"/>
<path d="M233.548 83.8523C232.268 88.6152 236.467 92.1052 240.898 90.2784C244.735 88.9391 247.605 84.3495 247.298 80.5926C246.133 75.1781 241.5 74.7478 237.115 77.8514C235.335 79.4696 233.922 81.6204 233.548 83.8523Z" fill="#4794D4"/>
<path d="M665.317 89.8698C660.292 89.862 653.324 89.8763 644.85 89.8939C635.235 89.9138 623.946 89.9384 612.128 89.9558C599.29 89.9746 586.226 89.9847 574.669 89.9762C562.558 89.9669 552.451 89.9375 546.312 89.8755C544.652 89.2294 541.175 85.6536 531.893 78.3832C528.456 78.4761 524.909 78.4468 521.314 78.4008C521.771 80.1589 522.185 82.0385 521.386 83.0049C520.2 84.9154 516.339 84.0643 512.966 81.223C508.854 77.9817 506.312 72.5598 507.836 70.511C509.051 68.3659 513.68 69.6584 517.36 73.2489C517.776 73.6546 518.594 74.4815 518.998 74.8878C523.018 74.9445 526.816 74.721 530.869 74.9679C535.54 78.318 540.133 82.4013 544.775 86.1113C549.607 86.0821 560.251 86.0677 573.449 86.0622C585.97 86.0573 600.361 86.0608 613.866 86.0684C626.145 86.0753 637.339 86.0858 645.85 86.0944C653.321 86.1019 658.742 86.108 661.532 86.1051C662.801 87.353 664.062 88.6078 665.317 89.8698Z" fill="#4794D4"/>
<path d="M498.298 84.3769C492.743 83.6287 485.788 75.6137 488.256 70.6853C489.819 69.1471 493.193 69.6911 496.546 72.2247C502.201 76.803 504.466 84.4921 498.298 84.3769Z" fill="#4794D4"/>
<path d="M655.426 80.1958C654.321 80.204 649.883 80.2073 642.963 80.2075C635.014 80.2079 623.565 80.2048 610.751 80.2007C596.505 80.196 581.103 80.19 568.519 80.1841C555.243 80.1778 545.727 80.1714 544.591 80.1667C541.85 78.0761 514.163 57.0876 513.37 56.5026C513.33 56.5031 489.354 56.5778 488.015 56.4493C488.967 58.9679 488.663 61.0266 486.915 61.6643C485.677 61.6258 484.404 61.6854 482.83 60.9114C477.838 58.7222 471.726 50.7198 476.432 48.1998C480.337 48.461 481.911 49.5354 485.86 53.2204C513.006 53.1789 511.291 53.2248 512.461 53.5059C523.932 61.8012 541.189 75.0456 543.382 76.6106C543.382 76.6106 552.888 76.6169 566.556 76.627C579.478 76.6364 595.477 76.6488 609.99 76.6627C622.939 76.675 634.251 76.6881 641.624 76.6985C648.019 76.7075 651.729 76.7149 651.729 76.7149C652.967 77.8684 654.199 79.0288 655.426 80.1958Z" fill="#4794D4"/>
<path d="M114.984 76.6332C113.253 83.0393 122.844 80.8912 128.592 71.4655C129.18 69.629 129.717 67.7303 128.938 66.8109C127.015 63.5681 117.242 69.6605 114.984 76.6332Z" fill="#4794D4"/>
<path d="M651.55 70.0372C655.325 73.0438 657.42 74.3034 655.908 72.5375C655.219 71.6774 653.218 69.7945 651.245 67.9998C651.931 68.0196 653.196 68.0237 654.312 68.0166C654.889 68.0129 654.859 67.9963 654.062 67.9916C652.5 67.9822 650.224 67.9842 647.933 67.9985C645.19 68.0159 642.926 68.0493 642.281 68.1115C640.939 66.9236 639.591 65.7432 638.236 64.5702C640.006 64.5651 636.553 64.5649 639.225 64.5661C640.46 64.5667 642.891 64.5676 646.856 64.5686C648.337 64.569 649.72 64.5692 650.701 64.5696C650.847 64.5696 649.917 64.57 647.214 64.57C644.536 62.4103 641.867 60.3905 640.695 59.7094C638.309 58.2224 640.796 60.8326 645.259 64.7468C647.356 66.5436 649.532 68.4037 651.55 70.0372Z" fill="#4794D4"/>
<path d="M638.177 64.5371C635.857 64.5371 633.372 64.5584 630.643 64.5314C630.455 64.7301 628.94 63.6126 627.778 62.8085C617.89 55.9622 607.628 49.1478 597.266 42.6804C595.151 42.6648 592.989 42.675 590.734 42.675C594.304 45.8997 595.578 48.1937 593.251 47.5126C586.716 44.9144 576.844 36.1276 577.878 35.0782C578.245 34.2719 582.578 36.5432 586.931 39.6435C589.337 39.668 591.461 39.5363 593.861 39.6983C596.922 41.4053 600.651 43.8382 604.027 45.965C627.334 60.6504 627.041 61.3458 627.164 61.1725C629.749 61.2147 632.059 61.1721 634.263 61.1833C635.573 62.2945 636.878 63.4122 638.177 64.5371Z" fill="#4794D4"/>
<path d="M305.128 57.7432C308.537 57.9067 311.859 54.593 311.804 50.9481C312.151 46.8379 308.244 43.5825 304.604 44.7802C301.51 45.6215 299.145 49.2474 299.574 52.5973C299.949 55.4908 302.283 57.7895 305.128 57.7432Z" fill="#4794D4"/>
<path d="M323.318 57.4636C327.026 58.8318 331.286 55.6638 331.237 51.53C331.469 48.3659 329.188 45.4021 326.381 44.7093C323.463 43.994 320.379 45.9761 319.326 48.988C318.152 52.3647 320.023 56.5121 323.318 57.4636Z" fill="#4794D4"/>
<path d="M634.371 52.2972C635.554 52.3484 635.436 52.3386 634.163 52.3222C631.733 52.2911 628.159 52.2888 623.591 52.3708C622.225 51.2773 620.854 50.1911 619.478 49.1124C620.58 49.1063 626.368 49.121 629.94 49.1056C631.333 49.0997 630.519 49.0584 630.12 48.9723C627.579 47.4926 624.298 45.631 621.215 44.0783C618.75 42.3209 616.144 40.5284 614.615 39.6093C612.526 38.3244 612.305 38.4427 613.366 39.4453C615.323 41.211 621.244 45.6947 625.6 48.7492C629.386 51.4024 631.174 52.3127 629.581 50.7596C628.887 50.0572 627.184 48.6566 625.531 47.3275C628.566 48.8941 631.134 50.2416 634.371 52.2972Z" fill="#4794D4"/>
<path d="M530.941 45.3973C532.674 48.4692 530.912 49.7222 527.297 48.0602C524.188 46.628 520.602 43.5256 518.383 40.706C517.466 39.3469 517.064 38.2385 516.688 37.1761C517.73 33.49 527.949 40.1131 530.941 45.3973Z" fill="#4794D4"/>
<path d="M616.246 46.6168C608.998 46.5548 611.166 47.2008 607.674 45.0654C595.703 37.4964 583.508 30.3229 571.147 23.5353C569.238 23.5261 567.34 23.5752 565.194 23.5032C573.819 30.3056 567.52 28.3518 560.096 23.3798C556.677 21.1288 553.928 18.8972 552.571 17.4939C551.818 16.439 552.434 16.1862 554.876 17.2743C556.58 18.0334 558.898 19.3605 561.158 20.7284C563.413 20.7986 565.105 20.5357 567.55 20.8497C569.789 21.9595 606.458 43.4462 606.55 43.5041C608.481 43.4599 610.499 43.5747 612.088 43.4482C613.479 44.4972 614.865 45.5533 616.246 46.6168Z" fill="#4794D4"/>
<path d="M591.713 28.8905C590.224 28.823 589.023 29.0082 587.165 28.8059C585.441 27.885 579.071 22.9783 545.013 6.35125C543.056 6.39278 540.891 6.36741 538.652 6.35554C541.761 8.40195 544.055 10.3211 542.874 10.2311C541.942 10.5373 535.449 7.21874 530.718 4.22033C523.441 -0.304401 523.186 -2.12725 534.546 3.92911C536.846 3.91356 539.108 3.93779 541.184 3.91713C555.343 10.6882 569.339 17.976 583.205 25.9079C584.985 26.1442 586.044 25.953 587.406 26.0098C588.847 26.9622 590.282 27.9226 591.713 28.8905Z" fill="#4794D4"/>
<path d="M510.521 24.7311C512.231 26.7006 512.79 28.2592 512.16 28.9561C511.104 29.0316 509.92 29.1001 507.877 28.0542C504.862 26.6457 501.22 23.6839 499.185 21.2817C498.237 20.1619 497.96 19.3546 497.559 18.518C497.886 16.3034 502.136 18.0515 507.212 21.7149C509.404 21.7777 520.822 21.8041 531.284 21.8147C541.007 21.8245 549.758 21.8192 550.616 21.8188C538.274 12.8794 537.88 12.9108 534.489 10.7044C532.789 9.91582 531.492 9.49656 529.383 8.35715C525.415 6.29375 520.911 3.31463 519.026 1.66249C517.241 0.0046142 518.785 0.0638636 522.693 1.86209C526.371 3.55577 531.167 6.4296 533.754 8.48522C535.148 9.66719 535.3 10.1901 535.546 10.566C556.956 24.6171 555.649 24.1292 554.894 24.7315C553.139 24.6513 544.295 24.6214 534.657 24.6259C524.305 24.6309 513.187 24.6712 510.521 24.7311Z" fill="#4794D4"/>
<path d="M163.15 21.6832C160.236 24.8289 155.246 27.7898 153.08 27.5629C151.933 27.6137 151.717 26.8311 151.68 26C152.195 24.8616 152.922 23.6021 154.322 22.1711C157.221 19.2122 161.794 16.4878 164.147 16.2156C165.45 15.9938 165.727 16.6719 166.064 17.2615C165.645 18.4664 164.931 19.9347 163.15 21.6832Z" fill="#4794D4"/>
<path d="M65.7611 20.9266C64.6684 22.0988 69.793 19.4808 75.5785 15.9502C80.8424 12.8214 84.9118 10.075 83.8124 10.2976C83.1214 10.2966 77.2991 13.3016 72.2478 16.4123C68.9758 18.4281 66.4205 20.2222 65.7611 20.9266Z" fill="#4794D4"/>
<path d="M448.082 9.00239C452.036 12.205 456.725 13.2533 456.408 10.8472C456.412 8.98573 452.915 5.53152 449.406 3.41575C440.833 -0.845661 442.532 4.74957 448.082 9.00239Z" fill="#4794D4"/>
</svg>
